<?xml version="1.0" encoding="utf-8"?>
<!-- Generator: Adobe Illustrator 19.2.0, SVG Export Plug-In . SVG Version: 6.00 Build 0)  -->
<svg version="1.1" id="Layer_1" xmlns="http://www.w3.org/2000/svg" xmlns:xlink="http://www.w3.org/1999/xlink" x="0px" y="0px"
	 viewBox="0 0 512 512" style="enable-background:new 0 0 512 512;" xml:space="preserve">
<style type="text/css">
	.st0{fill:#231F20;}
</style>
<g>
	<g>
		<g>
			<path d="M-116,148.6v104.8c0,35.7-16.4,67.7-42.1,88.8c11.8-15.6,18.8-34.9,18.8-55.9c0-51.2-41.6-92.8-92.8-92.8
				s-92.8,41.6-92.8,92.8c0,18.3,5.3,35.3,14.4,49.7c-21.6-20.9-35.1-50.2-35.1-82.5v-60.2l-10.9,0v60.2
				c0,66.2,51.4,120.5,116.4,125.3c2.6,0.2,5.3,0.3,7.9,0.3c0.2,0,0.4,0,0.7,0c0.2,0,0.4,0,0.7,0c69.3,0,125.6-56.4,125.6-125.6
				V148.6H-116z M-231.4,368.1c-2.6,0-5.2-0.1-7.8-0.3C-281,364.2-314,329-314,286.2c0-45.2,36.7-81.9,81.9-81.9
				s81.9,36.7,81.9,81.9C-150.2,331.2-186.6,367.8-231.4,368.1z M-103,133v4.8"/>
		</g>
	</g>
</g>
<g>
	<g>
		<g>
			<path class="st0" d="M269.8,262.3h76.6c10.7,0,19.4,8.7,19.4,19.4c0,10.7-8.7,19.4-19.4,19.4H165.5c-17.8,0-32.2,14.4-32.2,32.2
				c0,17.8,14.4,32.2,32.2,32.2v-0.1h109.7c3.5,0,6.4-2.9,6.4-6.4s-2.9-6.4-6.4-6.4H165.5c-10.7,0-19.4-8.7-19.4-19.4
				c0-10.7,8.7-19.4,19.4-19.4h181.1c17.8,0,32.2-14.4,32.2-32.2c0-17.8-14.4-32.2-32.2-32.2H270"/>
		</g>
	</g>
	<g>
		<g>
			<path class="st0" d="M269.8,159.4h76.6c10.7,0,19.4,8.7,19.4,19.4s-8.7,19.4-19.4,19.4H165.5c-17.8,0-32.2,14.4-32.2,32.2
				s14.4,32.2,32.2,32.2v-0.1h109.7c3.5,0,6.4-2.9,6.4-6.4s-2.9-6.4-6.4-6.4H165.5c-10.7,0-19.4-8.7-19.4-19.4s8.7-19.4,19.4-19.4
				h181.1c17.8,0,32.2-14.4,32.2-32.2s-14.4-32.2-32.2-32.2H270"/>
		</g>
	</g>
</g>
<g>
	<path class="st0" d="M257,11c33.2,0,65.4,6.5,95.8,19.3C382.1,42.7,408.4,60.4,431,83s40.3,48.9,52.7,78.2
		c12.8,30.3,19.3,62.5,19.3,95.8s-6.5,65.4-19.3,95.8c-12.4,29.3-30.1,55.6-52.7,78.2s-48.9,40.3-78.2,52.7
		C322.4,496.5,290.2,503,257,503s-65.4-6.5-95.8-19.3c-29.3-12.4-55.6-30.1-78.2-52.7s-40.3-49-52.7-78.2
		C17.5,322.4,11,290.2,11,257s6.5-65.4,19.3-95.8C42.7,131.9,60.4,105.6,83,83s48.9-40.3,78.2-52.7C191.6,17.5,223.8,11,257,11
		 M257,1C115.6,1,1,115.6,1,257s114.6,256,256,256s256-114.6,256-256S398.4,1,257,1L257,1z"/>
</g>
</svg>
