<?xml version="1.0" encoding="utf-8"?>
<!-- Generator: Adobe Illustrator 19.2.0, SVG Export Plug-In . SVG Version: 6.00 Build 0)  -->
<svg version="1.1" id="Layer_1" xmlns="http://www.w3.org/2000/svg" xmlns:xlink="http://www.w3.org/1999/xlink" x="0px" y="0px"
	 viewBox="0 0 512 512" style="enable-background:new 0 0 512 512;" xml:space="preserve">
<g id="_x30_05---Happy-Thoughts">
	<path id="Shape_1_" d="M149.8,359.5c-10.3,0-18.7,8.4-18.7,18.7s8.4,18.7,18.7,18.7c10.3,0,18.7-8.4,18.7-18.7
		C168.4,367.9,160.2,359.5,149.8,359.5z M149.8,386.3c-4.5,0-8-3.6-8-8c0-4.5,3.6-8,8-8c4.5,0,8,3.6,8,8
		C157.8,382.6,154.2,386.3,149.8,386.3z"/>
	<path id="Shape_2_" d="M184.5,316.9c-11.8,0-21.3,9.5-21.3,21.3c0,11.8,9.5,21.3,21.3,21.3s21.3-9.5,21.3-21.3
		C205.8,326.4,196.3,316.9,184.5,316.9z M184.5,348.9c-5.9,0-10.7-4.8-10.7-10.7c0-5.9,4.8-10.7,10.7-10.7s10.7,4.8,10.7,10.7
		C195.2,344.1,190.3,348.9,184.5,348.9z"/>
	<path id="Shape_3_" d="M232.6,194c-3,0-5.4,2.4-5.4,5.4v5.4c0,3,2.4,5.4,5.4,5.4c3,0,5.4-2.4,5.4-5.4v-5.4
		C237.8,196.4,235.5,194,232.6,194z"/>
	<path id="Shape_4_" d="M307.2,194c-3,0-5.4,2.4-5.4,5.4v5.4c0,3,2.4,5.4,5.4,5.4s5.4-2.4,5.4-5.4v-5.4
		C312.6,196.4,310.2,194,307.2,194z"/>
	<path id="Shape_5_" d="M291.3,220.7c-3,0-5.4,2.4-5.4,5.4c0,8.8-7.2,16.1-16.1,16.1s-16.1-7.2-16.1-16.1c0-3-2.4-5.4-5.4-5.4
		s-5.4,2.4-5.4,5.4c0,14.8,11.9,26.7,26.7,26.7c14.8,0,26.7-11.9,26.7-26.7c0-1.4-0.6-2.8-1.6-3.8
		C294,221.3,292.7,220.7,291.3,220.7z"/>
	<path id="Shape_6_" d="M380.5,165.9c-6.7-28.3-34.8-46.1-63.2-40c-15.5-19.2-39.3-29.6-64-27.6c-24.7,2-46.7,15.8-59,37.2
		c-18-1.4-35.6,5.5-47.8,18.8c-12.2,13.3-17.7,31.4-14.8,49.2c-18.7,17.7-22.1,46.2-8.1,67.9c14,21.6,41.5,30.2,65.3,20.2
		c11.9,28.7,44.2,43.1,73.5,32.9c50.5,45.7,131.3,4.6,124.5-62.4c17.8-10.1,28.2-29.5,26.8-49.9
		C412.4,191.4,399.6,173.6,380.5,165.9L380.5,165.9z M378.9,253.9c-8.3,4-17.7,5.2-26.7,3.3c-2-0.3-3.9,0.2-5.2,1.7
		c-1.3,1.5-1.7,3.4-1,5.4c0.6,1.8,2.2,3.2,4.1,3.6c8.8,1.8,18,1.4,26.7-1.4c2.5,54-60.7,86.4-103.4,52.9c4-2.4,7.7-5.3,11.1-8.5
		c1-1,1.6-2.4,1.6-3.8c0-1.4-0.6-2.8-1.6-3.8c-2.1-2.1-5.4-2.1-7.6,0c-14.6,14.2-36.6,17.8-54.9,8.7c-18.2-9.1-28.8-28.7-26.3-49
		c0.5-3-1.6-5.7-4.6-6.2c-3-0.5-5.7,1.6-6.2,4.6c-0.9,6.5-0.7,13.3,0.8,19.8c-5.5,2.4-11.4,3.6-17.3,3.6
		c-23.6-0.1-42.6-19.4-42.4-42.9c0.1-23.6,19.4-42.6,42.9-42.4c3,0,5.4-2.4,5.4-5.4c0-3-2.4-5.4-5.4-5.4c-9.4,0-18.6,2.4-26.7,7.1
		c-0.7-18.1,8.9-35.1,24.9-43.8c15.9-8.7,35.4-7.7,50.4,2.5c1.5,1.7,3.9,2.3,6,1.5c2.1-0.8,3.4-2.9,3.4-5c0-2.3-1.5-4.2-3.6-4.9
		c-5.3-3.8-11.1-6.7-17.4-8.5c11.6-17.4,31-28.1,52-28.6c21-0.5,40.8,9.4,53.1,26.3c4.2,5.7,7.5,12,9.5,18.9
		c0.6,1.8,2.1,3.2,3.9,3.7s3.8-0.1,5.2-1.5c1.3-1.4,1.7-3.3,1.3-5.2c-1.6-5.3-3.9-10.4-6.7-15.3c14.7-1.5,29,4.6,38.1,16.2
		c9.1,11.6,11.6,27.1,6.5,40.8c-0.7,1.8-0.3,3.8,0.9,5.3c1.3,1.5,3.1,2.2,5,1.8c2-0.3,3.4-1.6,4.1-3.4c2.1-5.9,3.2-11.9,3.2-18.1
		c13.7,8,21.8,22.8,21.1,38.7C402.4,233,393.2,247.1,378.9,253.9L378.9,253.9z"/>
</g>
<g>
	<path d="M256,10c33.2,0,65.4,6.5,95.8,19.3C381.1,41.7,407.4,59.4,430,82s40.3,48.9,52.7,78.2c12.8,30.3,19.3,62.5,19.3,95.8
		s-6.5,65.4-19.3,95.8c-12.4,29.3-30.1,55.6-52.7,78.2s-48.9,40.3-78.2,52.7C321.4,495.5,289.2,502,256,502s-65.4-6.5-95.8-19.3
		c-29.3-12.4-55.6-30.1-78.2-52.7s-40.3-49-52.7-78.2C16.5,321.4,10,289.2,10,256s6.5-65.4,19.3-95.8C41.7,130.9,59.4,104.6,82,82
		s48.9-40.3,78.2-52.7C190.6,16.5,222.8,10,256,10 M256,0C114.6,0,0,114.6,0,256s114.6,256,256,256s256-114.6,256-256S397.4,0,256,0
		L256,0z"/>
</g>
</svg>
