<?xml version="1.0" encoding="utf-8"?>
<!-- Generator: Adobe Illustrator 19.2.0, SVG Export Plug-In . SVG Version: 6.00 Build 0)  -->
<svg version="1.1" id="Capa_1" xmlns="http://www.w3.org/2000/svg" xmlns:xlink="http://www.w3.org/1999/xlink" x="0px" y="0px"
	 viewBox="0 0 512 512" style="enable-background:new 0 0 512 512;" xml:space="preserve">
<g>
	<g>
		<path d="M314.8,259.4c-0.5-1.6-1.7-3-3.4-3.6c-0.3-0.1-3-1.1-7.2-1.7c17.9-19,12-41.3,10.6-45.6c-0.5-1.6-1.7-3-3.4-3.6
			c-0.8-0.3-14.2-5-29.4,0.3c0.9-3.5,1.4-7.4,1.4-11.7c0-27.3-20.6-39.2-24.8-41.4c-1.5-0.8-3.3-0.9-4.9-0.2
			c-1,0.5-25.1,12-25.1,41.5c0,4.3,0.5,8.2,1.4,11.7c-15.3-5.3-28.7-0.6-29.5-0.3c-1.6,0.6-2.9,1.9-3.4,3.6
			c-1.4,4.3-7.3,26.6,10.6,45.6c-4.2,0.6-6.9,1.6-7.2,1.7c-1.6,0.6-2.9,1.9-3.4,3.6c-1.4,4.4-7.6,27.5,11.7,46.8
			c11.2,11.2,23.5,13.8,32.8,13.8c3.4,0,6.4-0.4,8.8-0.8V355c0,3,2.4,5.5,5.5,5.5c3,0,5.5-2.4,5.5-5.5v-35.8
			c2.4,0.4,5.4,0.8,8.9,0.8c9.3,0,21.7-2.7,32.8-13.8C322.4,286.9,316.3,263.9,314.8,259.4z M250.5,302.2c-0.1,2.5-0.5,4.6-0.8,6.1
			c-5.8,1.3-20.5,2.8-33.1-9.8c-12.4-12.4-11.1-26.8-9.7-33.1c3.7-0.8,10.8-1.7,18.8,0.9c0.5,0.2,1,0.4,1.6,0.6
			c4.2,1.6,8.6,4.2,12.7,8.3c7.9,7.9,10.2,16.5,10.6,23.4V302.2z M250.5,251.3c-0.1,2.5-0.5,4.6-0.8,6.1c-3.6,0.8-10.6,1.7-18.4-0.7
			c-0.8-0.3-1.6-0.6-2.4-0.8c-4.1-1.6-8.3-4.2-12.3-8.2c-12.4-12.4-11.1-26.8-9.7-33.1c5.8-1.3,20.5-2.8,33,9.8
			c0.1,0.1,0.2,0.2,0.2,0.2c0.5,0.5,1,1.1,1.4,1.5c6.5,7.4,8.6,15.3,8.9,21.6L250.5,251.3L250.5,251.3z M256,223.9
			c-1.7-1.1-4.2-2.9-6.7-5.5c-0.3-0.3-0.5-0.6-0.8-0.8c-4.6-5.1-9-12.9-9-23.9c0-17.8,11.4-27.1,16.5-30.3
			c5.4,3.5,16.5,12.7,16.5,30.3c0,10.4-3.9,17.9-8.2,23c-0.9,0.9-1.7,1.8-2.5,2.7C259.6,221.4,257.6,222.9,256,223.9z M261.5,249.5
			c0-6.4,1.7-14.9,8.4-22.9c0.8-0.8,1.6-1.7,2.4-2.6c12.5-12.3,27-10.8,32.8-9.5c1.4,6.3,2.7,20.7-9.7,33.1c-4,4-8.2,6.6-12.3,8.2
			c-0.8,0.3-1.6,0.5-2.4,0.8c-7.8,2.4-14.8,1.5-18.4,0.7c-0.4-1.8-0.8-4.5-0.8-7.7C261.5,249.6,261.5,249.6,261.5,249.5z
			 M295.4,298.5c-12.6,12.6-27.2,11.1-33.1,9.8c-1.3-5.8-2.8-20.5,9.8-33.1c4-4,8.2-6.6,12.3-8.2c0.8-0.3,1.6-0.5,2.3-0.8
			c7.8-2.4,14.8-1.5,18.4-0.7C306.5,271.7,307.8,286,295.4,298.5z"/>
	</g>
</g>
<g>
	<g>
		<path d="M285.2,119.1c-9.5-2-19.3-3-29.2-3c-37.4,0-72.5,14.6-99,41c-26.4,26.4-41,61.6-41,99c0,31.1,10.5,61.6,29.6,86
			c-2.1,3.3-3.3,7.2-3.3,11.2c0,5.5,2.2,10.8,6.1,14.7c3.9,3.9,9.1,6.1,14.7,6.1c5.5,0,10.8-2.2,14.7-6.1c3.9-3.9,6.1-9.1,6.1-14.7
			s-2.2-10.8-6.1-14.7s-9.1-6.1-14.7-6.1c-3.3,0-6.5,0.8-9.3,2.2C136.5,312.2,127,284.5,127,256c0-71.1,57.9-129,129-129
			c9.1,0,18.1,0.9,26.9,2.8c3,0.6,5.9-1.3,6.5-4.2C290,122.6,288.1,119.7,285.2,119.1z M156.1,346.3c1.9-1.9,4.4-2.9,7-2.9
			s5,1,7,2.9c1.9,1.9,2.9,4.3,2.9,7c0,2.6-1,5.1-2.9,7c-3.8,3.8-10.1,3.8-13.9,0c-1.9-1.9-2.9-4.3-2.9-7
			C153.3,350.7,154.3,348.2,156.1,346.3z"/>
	</g>
</g>
<g>
	<g>
		<path d="M366.4,170c2.1-3.3,3.3-7.2,3.3-11.2c0-5.5-2.2-10.8-6.1-14.7c-3.9-3.9-9.1-6.1-14.7-6.1c-5.5,0-10.8,2.2-14.7,6.1
			s-6.1,9.1-6.1,14.7c0,5.5,2.2,10.8,6.1,14.7c3.9,3.9,9.1,6.1,14.7,6.1c3.3,0,6.5-0.8,9.3-2.2c17.3,22.5,26.8,50.2,26.8,78.7
			c0,71.1-57.9,129-129,129c-7.7,0-15.3-0.7-22.8-2c-3-0.5-5.8,1.4-6.3,4.4c-0.5,3,1.5,5.8,4.4,6.3c8.1,1.4,16.4,2.2,24.7,2.2
			c37.4,0,72.5-14.6,99-41c26.4-26.4,41-61.6,41-99C395.9,224.9,385.5,194.4,366.4,170z M355.9,165.7c-1.9,1.9-4.3,2.9-7,2.9
			c-2.6,0-5.1-1-7-2.9c-3.8-3.8-3.8-10.1,0-13.9c1.9-1.9,4.3-2.9,7-2.9c2.6,0,5.1,1,7,2.9c1.9,1.9,2.9,4.3,2.9,7
			S357.7,163.8,355.9,165.7z"/>
	</g>
</g>
<g>
	<g>
		<path d="M208,375.8l-2.1,5.1L208,375.8c-2.8-1.1-6,0.2-7.1,3c-1.1,2.8,0.2,6,3,7.1l0.2,0.1c0.6,0.2,1.3,0.4,2,0.4
			c2.2,0,4.3-1.3,5.1-3.5C212.2,380,210.8,376.9,208,375.8z"/>
	</g>
</g>
<g>
	<g>
		<path d="M308.4,126.2L308.4,126.2c-2.9-1.2-6.1,0.2-7.2,3c-1.1,2.8,0.2,6,3,7.1l0.1,0c0.7,0.3,1.4,0.4,2,0.4
			c2.2,0,4.2-1.3,5.1-3.4C312.5,130.5,311.2,127.3,308.4,126.2z"/>
	</g>
</g>
<g>
	<path d="M256,10c33.2,0,65.4,6.5,95.8,19.3c29.3,12.4,55.6,30.1,78.2,52.7s40.3,48.9,52.7,78.2c12.8,30.3,19.3,62.5,19.3,95.8
		s-6.5,65.4-19.3,95.8c-12.4,29.3-30.1,55.6-52.7,78.2s-48.9,40.3-78.2,52.7C321.4,495.5,289.2,502,256,502s-65.4-6.5-95.8-19.3
		c-29.3-12.4-55.6-30.1-78.2-52.7S41.7,381,29.3,351.8C16.5,321.4,10,289.2,10,256s6.5-65.4,19.3-95.8
		c12.4-29.3,30.1-55.6,52.7-78.2s48.9-40.3,78.2-52.7C190.6,16.5,222.8,10,256,10 M256,0C114.6,0,0,114.6,0,256s114.6,256,256,256
		s256-114.6,256-256S397.4,0,256,0L256,0z"/>
</g>
</svg>
