<?xml version="1.0" encoding="utf-8"?>
<!-- Generator: Adobe Illustrator 19.2.0, SVG Export Plug-In . SVG Version: 6.00 Build 0)  -->
<svg version="1.1" id="Layer_1" xmlns="http://www.w3.org/2000/svg" xmlns:xlink="http://www.w3.org/1999/xlink" x="0px" y="0px"
	 viewBox="0 0 512 512" style="enable-background:new 0 0 512 512;" xml:space="preserve">
<g>
	<g>
		<circle cx="156.6" cy="337.2" r="5.7"/>
	</g>
</g>
<g>
	<g>
		<path d="M372.6,163.3h-33.4c-7.5,0-14.5,2.7-19.9,7.2V169v-15.6c0-22.3-18.2-40.5-40.5-40.5h-37.9c-3.1,0-5.7,2.5-5.7,5.7v15.6
			c0,22.3,18.2,40.5,40.5,40.5h32.2v19.9v15.3v22.4c-1.5-0.1-3-0.1-4.5-0.1c-14.9,0-29.2,4.6-41.3,13.3c-2.5,1.8-3.1,5.4-1.3,7.9
			c1.8,2.5,5.4,3.1,7.9,1.3c10.1-7.3,22.1-11.2,34.6-11.2c3,0,6,0.2,9,0.7c0.2,0.1,0.5,0.1,0.7,0.1c17.7,2.9,33.3,13.8,42.2,29.8
			c1,1.9,3,2.9,5,2.9c0.9,0,1.9-0.2,2.7-0.7c2.7-1.5,3.7-5,2.2-7.7c-9.8-17.7-26.7-30.2-46-34.6v-18.4H347c17.2,0,31.3-14,31.3-31.3
			V169C378.3,165.9,375.7,163.3,372.6,163.3z M307.9,163.3h-32.2c-16,0-29.1-13.1-29.1-29.1v-9.9h32.2c16,0,29.1,13.1,29.1,29.1
			V163.3L307.9,163.3z M366.9,184.4c0,11-8.9,19.9-19.9,19.9h-27.8v-9.6c0-11,8.9-19.9,19.9-19.9h27.8V184.4z"/>
	</g>
</g>
<g>
	<g>
		<path d="M399.6,297.4c-5-11.2-18.1-16.3-29.4-11.4h-0.1L333,303.2c-2.9,1.3-4.1,4.7-2.8,7.5c1.3,2.9,4.7,4.1,7.5,2.8l37.1-17.1
			c5.5-2.4,11.9,0.1,14.3,5.6s-0.1,12-5.6,14.4l-76,33.5c-12,5.3-25.7,5-37.5-0.8l-27.8-13.8c-14.8-7.4-32-7.8-47.1-1.1l-0.5,0.2
			l-20.8-47.1l28.9-12.7c13.7-6.1,29.1-6.6,43.2-1.4l55.9,20.5c5.1,1.9,7.8,7.6,6.1,12.7c-1.8,5.2-7.5,8.1-12.8,6.3l-43.3-14.6
			c-3-1-6.2,0.6-7.2,3.6s0.6,6.2,3.6,7.2l43.3,14.6c2.3,0.8,4.6,1.1,6.8,1.1c8.9,0,17.3-5.6,20.3-14.5c3.7-10.9-2-23.1-12.9-27.1
			l-55.9-20.5c-16.9-6.2-35.2-5.6-51.7,1.7l-29,12.8c-1.6-2.5-4-4.5-6.8-5.6c-3.6-1.4-7.5-1.3-11,0.2L113.9,288
			c-2.1,0.9-3.4,2.9-3.4,5.2v100.1c0,2,1,3.8,2.7,4.8c0.9,0.6,1.9,0.8,3,0.8c0.9,0,1.8-0.2,2.6-0.6l72.4-36.6
			c3.4-1.6,6.1-4.4,7.5-7.9c1.1-2.9,1.3-6.1,0.4-9.1l0.7-0.3c12-5.3,25.7-5,37.5,0.9l27.8,13.8c14.8,7.4,32,7.8,47.1,1.1l76-33.5
			C399.4,321.8,404.5,308.6,399.6,297.4z M188.1,349.8c-0.3,0.8-0.9,1.4-1.6,1.7c-0.1,0-0.2,0.1-0.3,0.1l-64.3,32.5v-24.9l16.8-8.3
			c2.8-1.4,4-4.8,2.6-7.6c-1.4-2.8-4.8-4-7.6-2.6l-11.8,5.8V297l33.9-14.9c0.7-0.3,1.6-0.3,2.3-0.1c0.8,0.3,1.4,0.9,1.7,1.6
			l26.7,60.5l0,0l1.5,3.3C188.3,348.3,188.4,349.1,188.1,349.8z"/>
	</g>
</g>
<g>
	<path d="M256,10c33.2,0,65.4,6.5,95.8,19.3C381.1,41.7,407.4,59.4,430,82s40.3,48.9,52.7,78.2c12.8,30.3,19.3,62.5,19.3,95.8
		s-6.5,65.4-19.3,95.8c-12.4,29.3-30.1,55.6-52.7,78.2s-48.9,40.3-78.2,52.7C321.4,495.5,289.2,502,256,502s-65.4-6.5-95.8-19.3
		c-29.3-12.4-55.6-30.1-78.2-52.7s-40.3-49-52.7-78.2C16.5,321.4,10,289.2,10,256s6.5-65.4,19.3-95.8C41.7,130.9,59.4,104.6,82,82
		s48.9-40.3,78.2-52.7C190.6,16.5,222.8,10,256,10 M256,0C114.6,0,0,114.6,0,256s114.6,256,256,256s256-114.6,256-256S397.4,0,256,0
		L256,0z"/>
</g>
</svg>
