<?xml version="1.0" encoding="utf-8"?>
<!-- Generator: Adobe Illustrator 19.2.0, SVG Export Plug-In . SVG Version: 6.00 Build 0)  -->
<svg version="1.1" id="Layer_1" xmlns="http://www.w3.org/2000/svg" xmlns:xlink="http://www.w3.org/1999/xlink" x="0px" y="0px"
	 viewBox="0 0 512 512" style="enable-background:new 0 0 512 512;" xml:space="preserve">
<style type="text/css">
	.st0{fill:#231F20;}
</style>
<g id="_x30_27---Bonzai-tree">
	<path id="Shape" class="st0" d="M116.4,208.6c3.4,10,12,17.3,22.5,19c10.4,1.7,20.9-2.6,27.3-11c5.9,3.5,12.5,5.7,19.3,6.3
		c-0.1,6.3,2.4,12.3,6.8,16.8c4.4,4.5,10.4,7,16.7,7h57.8c2.4,2.8,5.3,5.1,8.6,6.8l-22.9,23c-10.6-3.1-21.9-1.4-31.2,4.6
		c-9.2,6-15.3,15.8-16.7,26.7h-52c-7.8,0.1-14,6.4-14,14.2c0.1,7.8,6.4,14,14.2,14c2.1,20.5,17.3,37.3,37.6,41.3v15.1
		c0,2.6,2.1,4.7,4.7,4.7h23.5c5.2,0,9.4-4.2,9.4-9.4v-9.4h46.7v9.4c0,5.2,4.2,9.4,9.4,9.4h18.8c5.2,0,9.4-4.2,9.4-9.4v-10.3
		c20.2-4,35.5-20.8,37.6-41.3c7.8,0,14.1-6.3,14.1-14.1s-6.3-14.1-14.1-14.1h-38.3c-2.7-11.1-11.4-19.8-22.5-22.6l7.3-9.4
		c15.4,11.5,36.6,11.2,51.7-0.8c8,9.1,21.1,11.9,32.2,6.7c10.5-4.9,17-15.6,16.5-27.1s-7.8-21.6-18.6-25.6
		c1.9-9.7-0.7-19.7-7.1-27.2S355,190,345.2,190.3c-7.9-0.1-15.4,3.3-20.5,9.4c-9.7,0-16.6-0.2-26.8,7.4
		c-12.7-6.4-28.1-1.3-34.5,11.4h-45.1c-1.6,0-3.1-0.9-3.9-2.3c5-3.1,9.3-7.1,12.8-11.8c12.5,0.9,23.9-6.9,27.7-18.8h39
		c7.2,0.5,14.4-1.4,20.5-5.4c9,6.6,21.1,7.3,30.8,1.7s15.2-16.4,13.9-27.5c-1.2-11.1-8.9-20.5-19.6-23.8c-4.8-1.6-10-1.8-14.8-0.4
		c-5.5-7.8-13.9-13-23.3-14.4c-9.4-1.5-19,0.9-26.6,6.6c-12.1-6.9-28.5,1.9-28.2,15c0.4,8.2,5.4,17.7,14.1,20.1
		c0,0.5,1.5,0.3-15.8,0.3c-5.4-3.6-11.9-5.3-18.4-4.7c-2.3-7.3-10.9-23.7-36.3-23.7c-7.5-0.2-15,1.4-21.8,4.7
		c-17.8-2.6-34.6,8.9-38.7,26.4c-0.5,5.5,0.1,11.1,1.9,16.4C118,183.9,112.3,195.9,116.4,208.6L116.4,208.6z M283.1,259.1
		c1.6,3.7,3.8,7.2,6.4,10.3l-12,15.3c-2.8,0.4-5.6,1.1-8.2,2.3c-2.3-2.5-4.9-4.6-7.7-6.4L283.1,259.1z M302.9,368.8H199.6
		c-9,0-17.6-3.2-24.4-9.1h152.1C320.6,365.5,311.9,368.8,302.9,368.8z M218.4,387.5h-18.8v-9.4h18.8V387.5z M302.9,387.5h-18.8v-9.4
		h18.8V387.5z M335.2,350.3H167.3c-2.6-4.4-4.3-9.3-5-14.4h177.9C339.5,341,337.9,345.9,335.2,350.3L335.2,350.3z M354.6,321.8
		c0,2.6-2.1,4.7-4.7,4.7H152.7c-2.6,0-4.7-2.1-4.7-4.7s2.1-4.7,4.7-4.7h197.2C352.5,317.1,354.6,319.2,354.6,321.8z M301.7,307.7
		h-87.6c1.9-11.1,10.2-20,21.2-22.6c10.9-2.6,22.4,1.5,29.2,10.5c1.5,1.9,4.1,2.4,6.2,1.2c5.4-3.3,12.1-4.1,18.1-1.9
		C294.8,297,299.6,301.7,301.7,307.7z M270.5,226.1c1.2-4.8,4.6-8.8,9.1-10.9s9.7-2,14.2,0.3c3,1.4,6.6,1.1,9.4-0.8
		c8.1-5.6,12.6-5.6,21.6-5.6s8-9.4,20.4-9.4c7-0.3,13.8,2.6,18.3,8c4.6,5.3,6.5,12.4,5.1,19.3c-1,4.7,1.8,9.4,6.4,10.8
		c7.2,2.8,12,9.5,12.3,17.2s-4.1,14.8-11.1,18c-7.4,3.4-16.1,1.4-21.4-4.7c-3.3-3.8-9-4.3-13-1.1c-8.3,6.7-19.3,9-29.6,6
		c-10.2-3-18.4-10.8-21.8-20.9c-0.4-1.2-1.1-2.2-1.9-3.1c-0.8-1.7-2.6-2.8-4.6-2.7h-0.5c-4.6-0.8-8.6-3.4-11.1-7.3
		C270,235.4,269.3,230.6,270.5,226.1L270.5,226.1z M218.4,227.9h42.3c-0.3,3.2,0,6.3,0.8,9.4H209c-3.7,0-7.3-1.5-10-4.1
		s-4.1-6.2-4.1-10c3.8-0.4,7.5-1.2,11.1-2.5C208.5,225.1,213.3,227.9,218.4,227.9L218.4,227.9z M256,136.8c0-5.3,8-9.6,14.1-6.3
		c3.2,1.9,7.3,1.7,10.3-0.5c5.6-4.2,12.6-6,19.5-5c6.9,1.1,13.1,4.9,17.1,10.6c2.2,3.1,6.1,4.5,9.8,3.6c8.5-2,17.2,2,21.1,9.8
		s2,17.2-4.6,22.8s-16.3,5.9-23.3,0.8c-3.1-2.2-7.1-2.3-10.3-0.4c-7.2,4.6-16.3,5.3-24.2,2s-13.7-10.3-15.4-18.7
		c-0.7-3.5-3.4-6.3-6.9-7.2C258.7,146.2,255.9,141.7,256,136.8L256,136.8z M271.4,176.2H256c-0.3-3.3-1.2-6.5-2.7-9.4h11
		C266.1,170.4,268.5,173.5,271.4,176.2z M136,185.1c3.8-2,5.8-6.4,4.7-10.6c-1.3-4-1.9-8.2-1.7-12.3c3.2-12.4,15.1-20.4,27.8-18.8
		c6.8,1.4,7.1-4.7,23.5-4.7c18.8,0,25.3,10.8,27.6,17.2c1.3,3.7,4.8,6.2,8.8,6.2h3.5c7.3,0,13.7,4.8,15.7,11.8s-0.9,14.5-7.1,18.3
		c-3.1,2.1-6.8,3.1-10.5,2.8c-3.2-0.3-6.4,1.2-8.3,3.8c-11.4,15.4-32.6,19.6-48.9,9.7c-4.2-2.5-9.7-1.5-12.7,2.4
		c-4.7,6.4-12.8,9.1-20.4,6.9C125.1,214.3,116.6,195.3,136,185.1L136,185.1z"/>
	<path id="Shape_1_" class="st0" d="M307.6,241.4c1.1,0.6,2.4,0.8,3.6,0.5s2.2-1.1,2.9-2.2c2.5-4.4,7.2-7.1,12.2-7.1
		s9.7,2.7,12.2,7.1c0.8,1.5,2.4,2.5,4.1,2.5s3.3-0.9,4.2-2.4s0.8-3.4-0.1-4.8c-4.2-7.3-11.9-11.7-20.3-11.7s-16.1,4.5-20.3,11.7
		C304.6,237.2,305.4,240.1,307.6,241.4L307.6,241.4z"/>
	<path id="Shape_2_" class="st0" d="M167.1,165.4c2-2,4.7-3.2,7.5-3.2s5.5,1.1,7.5,3.2c1.2,1.3,3,1.8,4.7,1.3
		c5-1.3,10.3-0.1,14.1,3.4c3.5,3.9,4.8,9.4,3.4,14.5c-0.4,1.7,0.1,3.5,1.3,4.7s3,1.7,4.7,1.2s3-1.8,3.4-3.5c2.2-8.3,0-17.2-5.8-23.5
		c-5.5-5.3-13.2-7.6-20.8-6.3c-8-6.4-19.7-5.6-26.7,1.9c-1.6,1.9-1.4,4.7,0.4,6.4S165.4,167.2,167.1,165.4L167.1,165.4z"/>
	<path id="Shape_3_" class="st0" d="M281.9,157.5c1.4,0,2.8-0.6,3.7-1.7c0.9-1.1,1.3-2.5,1-3.9c-0.5-3.2,1.1-6.3,4.1-7.7
		c2.9-1.3,6.4-0.5,8.5,1.9c1.6,2.1,4.5,2.5,6.6,0.9s2.5-4.5,0.9-6.6c-3.1-4.1-8-6.5-13.1-6.5C276.2,134,272.6,157.5,281.9,157.5
		L281.9,157.5z"/>
</g>
<g>
	<path class="st0" d="M256,10c33.2,0,65.4,6.5,95.8,19.3C381.1,41.7,407.4,59.4,430,82s40.3,48.9,52.7,78.2
		c12.8,30.3,19.3,62.5,19.3,95.8s-6.5,65.4-19.3,95.8c-12.4,29.3-30.1,55.6-52.7,78.2s-48.9,40.3-78.2,52.7
		C321.4,495.5,289.2,502,256,502s-65.4-6.5-95.8-19.3c-29.3-12.4-55.6-30.1-78.2-52.7s-40.3-49-52.7-78.2
		C16.5,321.4,10,289.2,10,256s6.5-65.4,19.3-95.8C41.7,130.9,59.4,104.6,82,82s48.9-40.3,78.2-52.7C190.6,16.5,222.8,10,256,10
		 M256,0C114.6,0,0,114.6,0,256s114.6,256,256,256s256-114.6,256-256S397.4,0,256,0L256,0z"/>
</g>
</svg>
