<?xml version="1.0" encoding="utf-8"?>
<!-- Generator: Adobe Illustrator 19.2.0, SVG Export Plug-In . SVG Version: 6.00 Build 0)  -->
<svg version="1.1" id="Capa_1" xmlns="http://www.w3.org/2000/svg" xmlns:xlink="http://www.w3.org/1999/xlink" x="0px" y="0px"
	 viewBox="0 0 512 512" style="enable-background:new 0 0 512 512;" xml:space="preserve">
<g>
	<g>
		<path d="M274.1,147.7c-8.7-8.5-20.1-13.2-32.2-13.2c-16.5,0-31.8,8.9-40,23.2c-1.2,2.1-0.5,4.7,1.6,5.9c0.7,0.4,1.4,0.6,2.1,0.6
			c1.5,0,2.9-0.8,3.7-2.2c6.7-11.7,19.1-18.9,32.5-18.9c9.9,0,19.2,3.8,26.2,10.7c1.7,1.7,4.4,1.6,6.1-0.1
			C275.8,152.1,275.8,149.4,274.1,147.7z"/>
	</g>
</g>
<g>
	<g>
		<path d="M371.4,181.3c-6.2-10.2-16.7-17.2-28.4-19.1c-8.8-11-22.3-17.6-36.4-17.6c-2.4,0-4.3,1.9-4.3,4.3s1.9,4.3,4.3,4.3
			c12,0,23.5,5.8,30.6,15.6c0.7,1,1.8,1.6,3,1.7c9.8,1.1,18.7,6.8,23.9,15.3c0.8,1.3,2.2,2.1,3.7,2.1c0.8,0,1.5-0.2,2.2-0.6
			C372,186,372.6,183.3,371.4,181.3z"/>
	</g>
</g>
<g>
	<g>
		<path d="M370.8,155c-6.3-9.7-16.5-16.3-27.8-18.1c-8.8-11-22.3-17.6-36.4-17.6c-3.9,0-7.7,0.5-11.5,1.4
			c-7.5-1.9-15.4-1.9-22.8-0.1c-8.4-7.4-19.1-11.5-30.4-11.5c-15.5,0-30,7.9-38.5,20.8c-1-0.1-1.9-0.1-2.9-0.1
			c-22.2,0-40.6,17-42.7,38.7c-7.7,0.6-15,4.1-20.2,9.8c-5.9,6.4-8.9,14.7-8.3,23.4c1.1,15.3,13.4,27.7,28.7,28.8
			c8.8,0.6,17.5-2.5,23.8-8.6c0.3-0.3,0.7-0.6,1-0.8c5.6,15.7,16,30.2,27,45.4c-14.6,13.8-25.9,29.6-33.8,47.1h-45.4
			c-4.8,0-8.7,3.9-8.7,8.7v8.6c0,4.8,3.9,8.7,8.7,8.7h6.7l12.4,38.2c1.3,5.9,6.6,10.1,12.6,10.1h3.1l0.6,8.2
			c0.3,3.8,3.5,6.7,7.3,6.7h11.2c3.8,0,7-2.9,7.3-6.7l0.6-8.2h109.8l0.6,8.2c0.3,3.8,3.5,6.7,7.3,6.7h11.2c3.8,0,7-2.9,7.3-6.7
			l0.6-8.2h3.1c6.1,0,11.3-4.2,12.6-10.1l12.4-38.2h6.7c4.8,0,8.7-3.9,8.7-8.7v-8.6c0-4.8-3.9-8.7-8.7-8.7h-22
			c-0.9-2.4-2.5-4.5-4.7-5.9l-1.7-1.2c-0.7-0.5-1.2-1.1-1.5-1.9c-1.3-3.5-4.1-6.2-7.6-7.5l-3.9-1.4c-0.9-0.3-1.6-0.9-2.1-1.7
			l-1.2-1.9c-2.4-3.9-6.1-6.7-10.5-8c-5.9-1.7-12.3-0.4-17,3.6l-9.9,8.3c-0.7,0.6-1.6,0.9-2.6,0.9h-11.5c-5,0-9.5,2.9-11.5,7.4
			l-4.1,9.1h-13.4c-1.3-13.9,2-26,9.6-35.9c15.1-19.5,24.6-34.2,31.4-48.7c9.9-2.6,18.8-8.5,25.2-16.7c0.4,0,0.7,0,1.1,0
			c2.6,0,5.3-0.2,7.9-0.7c1.5,1.3,3.4,2.2,8.5,3.8c7.7,8,18.5,12.4,29.7,11.9c20-0.8,36.3-17.1,37.2-37.1
			C390.6,175.8,383.3,162.3,370.8,155z M183.5,394.2h-8.8l-0.5-6.3h9.7L183.5,394.2z M320.3,394.2h-8.8l-0.5-6.3h9.7L320.3,394.2z
			 M264.6,308c0.6-1.4,2.1-2.4,3.7-2.4h11.5c3,0,5.8-1.1,8.1-3l9.9-8.3c2.5-2.1,5.9-2.8,9-1.9c2.3,0.7,4.3,2.2,5.6,4.2l1.2,1.9
			c1.5,2.4,3.8,4.3,6.5,5.3l3.9,1.4c1.1,0.4,2,1.3,2.4,2.4c0.9,2.4,2.5,4.5,4.7,6h-69L264.6,308z M364.4,322.2L364.4,322.2
			C364.4,322.2,364.4,322.3,364.4,322.2l0.1,8.7c0,0,0,0.1-0.1,0.1l0.1-0.1c0,0,0,0,0,0L187.7,331c-2.4,0-4.3,1.9-4.3,4.3
			s1.9,4.3,4.3,4.3h160.9l-11.6,35.7c-0.1,0.2-0.1,0.3-0.1,0.5c-0.4,2-2.2,3.5-4.3,3.5h-170c-2.1,0-3.9-1.5-4.3-3.5
			c0-0.2-0.1-0.3-0.1-0.5l-11.6-35.7h10c2.4,0,4.3-1.9,4.3-4.3s-1.9-4.3-4.3-4.3l-25.8-0.1l0.1,0.1c0,0-0.1,0-0.1-0.1v-8.6
			c0,0,0-0.1,0.1-0.1H364.4L364.4,322.2z M242.1,272.5c-8.9,11.6-12.8,25.4-11.5,41.2h-45c7.8-16.1,18.9-30.7,32.9-43.3
			c1.6-1.5,1.9-3.9,0.6-5.7l-1.1-1.5c-10.3-14.2-20.1-27.6-25.8-41.6c0,0,0,0,0,0c0.2,0.2,0.4,0.4,0.7,0.5c0.5,0.4,0.9,0.9,1.4,1.3
			c0.2,0.1,0.3,0.3,0.5,0.4c0.3,0.3,0.6,0.5,0.9,0.8c0.4,0.3,0.8,0.7,1.2,1c0.1,0.1,0.1,0.1,0.2,0.2c4.1,3.3,7.9,5.7,11.4,7.1
			c5.7,10.3,13.2,17.5,22.2,21.6c1.6,0.7,3.4,0.4,4.7-0.8c9.1-8.4,16.3-16.4,21.9-24.3c0.2,0,0.3,0.1,0.5,0.1c0.1,0,0.3,0.1,0.4,0.1
			c0.4,0.1,0.7,0.2,1.1,0.2c0.1,0,0.2,0,0.4,0.1c0.4,0.1,0.7,0.1,1.1,0.2c0.1,0,0.3,0,0.4,0.1c0.4,0.1,0.7,0.1,1.1,0.2
			c0.1,0,0.3,0,0.4,0c0.4,0,0.7,0.1,1.1,0.1c0.2,0,0.3,0,0.5,0c0.3,0,0.7,0.1,1,0.1c0.5,0,1,0.1,1.5,0.1c0.2,0,0.3,0,0.5,0
			c0.3,0,0.7,0,1,0c0,0,0.1,0,0.1,0c0.1,0,0.3,0,0.4,0c0.4,0,0.7,0,1.1,0c0.1,0,0.1,0,0.2,0C263.5,242.9,254.9,255.8,242.1,272.5z
			 M219.5,234.2c6.9-0.7,13.5-3.7,18.6-8.5c2-1.8,4.9-2.2,7.2-0.9c1.1,0.6,2.2,1.1,3.3,1.6c-4.5,6.1-10.2,12.4-17,18.9
			C227.1,242.8,223.1,239,219.5,234.2z M381.3,189.9c-0.7,15.5-13.5,28.2-29,28.9c-9,0.4-17.7-3.3-23.8-10c-0.5-0.6-1.2-1-1.9-1.2
			c-6-1.9-6.4-2.3-6.8-2.7c-0.3-0.3-0.6-0.7-1.1-1.1c-1-0.9-2.5-1.3-3.8-1c-2.8,0.6-5.6,0.9-8.4,0.9c-0.9,0-1.8,0-2.9-0.1
			c-1.5-0.1-3,0.6-3.8,1.8c-5.8,8.3-14.5,13.9-24.1,15.8c-0.3,0.1-0.6,0.1-0.9,0.2c-0.2,0-0.5,0.1-0.7,0.1c-0.5,0.1-1,0.1-1.5,0.2
			c-0.2,0-0.3,0-0.5,0.1c-0.6,0.1-1.1,0.1-1.7,0.1c-0.1,0-0.2,0-0.3,0c-0.6,0-1.3,0-1.9,0c-0.4,0-0.9,0-1.3,0c-0.2,0-0.3,0-0.5,0
			c-0.3,0-0.5,0-0.8,0c-0.2,0-0.4,0-0.6,0c-0.2,0-0.5,0-0.7-0.1c-0.2,0-0.5,0-0.7-0.1c-0.2,0-0.4,0-0.6-0.1c-0.3,0-0.5-0.1-0.8-0.1
			c-0.1,0-0.2,0-0.4-0.1c-0.6-0.1-1.2-0.2-1.8-0.3c-0.1,0-0.2,0-0.3-0.1c-0.3-0.1-0.5-0.1-0.8-0.2c-0.2,0-0.3-0.1-0.5-0.1
			c-0.2-0.1-0.5-0.1-0.7-0.2c-0.2-0.1-0.4-0.1-0.6-0.2c-2.6-0.8-5.1-1.8-7.5-3.1c-5.6-3.1-12.5-2.2-17.2,2.1
			c-4.5,4.1-10.3,6.4-16.3,6.4c-0.8,0-1.9-0.1-3.1-0.5c0,0-0.1,0-0.1,0c-2.7-0.9-5.8-2.6-9.2-5.3c0,0,0,0-0.1,0
			c-0.6-0.5-1.2-1-1.8-1.5c-0.1-0.1-0.1-0.1-0.2-0.2c-0.2-0.2-0.5-0.4-0.7-0.6c-0.1-0.1-0.2-0.2-0.3-0.3c-0.2-0.2-0.4-0.4-0.6-0.6
			c-0.1-0.1-0.2-0.2-0.3-0.3c-0.3-0.2-0.5-0.5-0.8-0.8c0,0-0.1-0.1-0.1-0.1c-0.2-0.2-0.4-0.4-0.7-0.6c-0.1-0.1-0.1-0.1-0.2-0.1
			c-0.2-0.1-0.3-0.3-0.5-0.4c-0.1-0.1-0.1-0.1-0.2-0.2c-0.2-0.1-0.4-0.3-0.5-0.4c-0.1,0-0.1-0.1-0.2-0.1c-0.2-0.1-0.4-0.3-0.6-0.4
			c0,0-0.1-0.1-0.1-0.1c-2.6-1.5-5.5-2.3-8.4-2.3c-4.1,0-8.2,1.5-11.4,4.6c-4.6,4.5-10.8,6.7-17.2,6.2c-11.1-0.8-20-9.7-20.8-20.8
			c-0.4-6.3,1.7-12.3,6-16.9c4.3-4.6,10.1-7.1,16.4-7.1c0.4,0,0.8,0,1.4,0c1.2,0.1,2.3-0.4,3.2-1.2c0.9-0.8,1.4-1.9,1.4-3.1
			c0,0,0-0.1,0-0.1c0-18.9,15.4-34.2,34.3-34.2c1.5,0,3,0.1,4.5,0.3c1.7,0.2,3.4-0.6,4.3-2.1c6.7-11.7,19.1-18.9,32.5-18.9
			c9.9,0,19.2,3.8,26.2,10.7c1.1,1.1,2.8,1.5,4.3,1c6.9-2.1,14.5-2.2,21.6-0.2c0.8,0.2,1.6,0.2,2.3,0c3.4-1,6.9-1.4,10.3-1.4
			c12,0,23.5,5.8,30.6,15.6c0.7,1,1.8,1.6,3,1.7c9.8,1.1,18.7,6.8,23.9,15.3c0.4,0.6,0.9,1.2,1.6,1.5
			C375.9,167.6,381.9,178.3,381.3,189.9z"/>
	</g>
</g>
<g>
	<path d="M256,10c33.2,0,65.4,6.5,95.8,19.3c29.3,12.4,55.6,30.1,78.2,52.7s40.3,48.9,52.7,78.2c12.8,30.3,19.3,62.5,19.3,95.8
		s-6.5,65.4-19.3,95.8c-12.4,29.3-30.1,55.6-52.7,78.2s-48.9,40.3-78.2,52.7C321.4,495.5,289.2,502,256,502s-65.4-6.5-95.8-19.3
		c-29.3-12.4-55.6-30.1-78.2-52.7S41.7,381,29.3,351.8C16.5,321.4,10,289.2,10,256s6.5-65.4,19.3-95.8
		c12.4-29.3,30.1-55.6,52.7-78.2s48.9-40.3,78.2-52.7C190.6,16.5,222.8,10,256,10 M256,0C114.6,0,0,114.6,0,256s114.6,256,256,256
		s256-114.6,256-256S397.4,0,256,0L256,0z"/>
</g>
</svg>
