<?xml version="1.0" encoding="utf-8"?>
<!-- Generator: Adobe Illustrator 19.2.0, SVG Export Plug-In . SVG Version: 6.00 Build 0)  -->
<svg version="1.1" id="Capa_1" xmlns="http://www.w3.org/2000/svg" xmlns:xlink="http://www.w3.org/1999/xlink" x="0px" y="0px"
	 viewBox="0 0 512 512" style="enable-background:new 0 0 512 512;" xml:space="preserve">
<style type="text/css">
	.st0{fill:#231F20;}
</style>
<g>
	<g>
		<path d="M300.7,248.4C300.7,248.4,300.6,248.4,300.7,248.4h-21.4V227c0-4.3-3.5-7.8-7.8-7.9c0,0,0,0-0.1,0h-30.9
			c-4.3,0-7.8,3.5-7.8,7.8v21.4h-21.4c-4.3,0-7.8,3.4-7.9,7.8c0,0,0,0.1,0,0.1v30.8c0,4.3,3.5,7.8,7.8,7.8h21.4v21.4
			c0,4.3,3.5,7.8,7.8,7.9c0,0,0,0,0.1,0h30.8c4.3,0,7.8-3.5,7.8-7.8l0,0v-21.4h21.4c4.3,0,7.8-3.5,7.9-7.8c0,0,0,0,0-0.1v-30.8
			C308.5,251.9,305,248.4,300.7,248.4z M298,284.4h-24c-2.9,0-5.3,2.4-5.3,5.3v24h-25.5v-24c0-2.9-2.4-5.3-5.3-5.3h-24v-25.5h24
			c2.9,0,5.3-2.4,5.3-5.3v-24h25.5v24c0,2.9,2.4,5.3,5.3,5.3h24V284.4z"/>
	</g>
</g>
<g>
	<g>
		<path d="M347.4,179.9L347.4,179.9h-43.3v-18.5c0.3-8.4-6.3-15.5-14.8-15.8c-0.4,0-0.9,0-1.3,0H224c-8.4-0.4-15.6,6-16.1,14.5
			c0,0.4,0,0.9,0,1.3v18.4h-43.3c-16.7,0-36.2,9.5-36.2,36.2v114.2c0,26.7,19.5,36.2,36.2,36.2h182.7c16.7,0,36.2-9.5,36.2-36.2
			V216.1C383.6,189.4,364.1,179.9,347.4,179.9z M218.4,161.4c0-1.5,0-5.6,5.6-5.6h64c5.6,0,5.6,4,5.6,5.6v18.4h-75.2V161.4z
			 M373.1,330.2c0,23.2-18,25.7-25.7,25.7H164.6c-7.7,0-25.7-2.5-25.7-25.7V216.1c0-23.2,18-25.7,25.7-25.7h182.7
			c7.7,0,25.7,2.5,25.7,25.7L373.1,330.2L373.1,330.2z"/>
	</g>
</g>
<g>
	<path class="st0" d="M256.6,10.6c33.2,0,65.4,6.5,95.8,19.3C381.7,42.3,408,60,430.6,82.6s40.3,48.9,52.7,78.2
		c12.8,30.3,19.3,62.5,19.3,95.8s-6.5,65.4-19.3,95.8c-12.4,29.3-30.1,55.6-52.7,78.2s-48.9,40.3-78.2,52.7
		c-30.4,12.8-62.6,19.3-95.8,19.3s-65.4-6.5-95.8-19.3c-29.3-12.4-55.6-30.1-78.2-52.7s-40.3-49-52.7-78.2
		c-12.8-30.4-19.3-62.6-19.3-95.8s6.5-65.4,19.3-95.8c12.4-29.3,30.1-55.6,52.7-78.2s48.9-40.3,78.2-52.7
		C191.2,17.1,223.4,10.6,256.6,10.6 M256.6,0.6c-141.4,0-256,114.6-256,256s114.6,256,256,256s256-114.6,256-256S398,0.6,256.6,0.6
		L256.6,0.6z"/>
</g>
</svg>
