<?xml version="1.0" encoding="utf-8"?>
<!-- Generator: Adobe Illustrator 19.2.0, SVG Export Plug-In . SVG Version: 6.00 Build 0)  -->
<svg version="1.1" id="_x33_0" xmlns="http://www.w3.org/2000/svg" xmlns:xlink="http://www.w3.org/1999/xlink" x="0px" y="0px"
	 viewBox="0 0 512 512" style="enable-background:new 0 0 512 512;" xml:space="preserve">
<style type="text/css">
	.st0{fill:#231F20;}
	.st1{fill:#FFFFFF;}
</style>
<g>
	<g>
		<path class="st0" d="M241.8,235.7V227h19.2c5.6,0,10.1-4.4,10.4-9.9h8.7c-0.3,10.3-8.7,18.6-19.2,18.6H241.8z"/>
		<path class="st1" d="M279.5,217.7c-0.6,9.8-8.7,17.5-18.6,17.5h-18.6v-7.6h18.6c5.7,0,10.4-4.4,11-9.9H279.5 M280.7,216.5h-9.9
			c0,5.5-4.4,9.9-9.9,9.9h-19.7v9.9h19.7C271.8,236.3,280.7,227.4,280.7,216.5L280.7,216.5z"/>
	</g>
	<g>
		<path class="st0" d="M310.3,408.4c-15.8,0-28.5-12.3-29-28.1v-0.8L256,389l-25.2-9.4v0.8c-0.4,15.8-13.2,28.1-29,28.1
			c-16,0-29-13-29-29V321c0-14.3,4.7-27.8,13.5-39.1l0.3-0.3l-4.6-4.6c-5.9-5.9-9.2-13.8-9.2-22.2c0-9.9,4.7-19.2,12.6-25.1l2.5-1.9
			c2.9-2.2,4.7-5.7,4.7-9.4c0-3.1-1.2-6.2-3.5-8.4c-4.1-4.1-6.4-9.6-6.4-15.5c0-6.2,2.2-11.5,6.4-15.8l1.9-1.9c1-1,1.6-2.5,1.6-3.9
			v-10.8c0-32.4,26.3-58.6,58.6-58.6h9.9c32.4,0,58.6,26.3,58.6,58.6v10.8c0,1.5,0.6,2.8,1.6,3.9l1.9,1.9c4.1,4.1,6.4,9.6,6.4,15.5
			c0,6.2-2.2,11.5-6.4,15.8c-2.2,2.2-3.5,5.3-3.5,8.4c0,3.7,1.8,7.3,4.7,9.4l2.5,1.9c7.8,5.9,12.6,15.2,12.6,25.1
			c0,8.4-3.3,16.3-9.2,22.2l-4.6,4.6l0.3,0.3c8.9,11.3,13.5,24.8,13.5,39.1v58.4C339.3,395.3,326.3,408.4,310.3,408.4z M299.6,309.7
			c-5.3,0-9.6,4.3-9.6,9.5v60.1c0,11.2,9.1,20.3,20.3,20.3s20.3-9.1,20.3-20.3v-30.2h-17.9l6.7,33.7l-8.6,1.7l-10.2-51.1l7.4-7.4
			c1.8-1.8,2.8-4.3,2.8-6.7c0-5.3-4.3-9.5-9.5-9.5h-1.6V309.7z M181.5,379.4c0,11.2,9.1,20.3,20.3,20.3c11.2,0,20.3-9.1,20.3-20.3
			v-60.1c0-5.3-4.3-9.5-9.5-9.5h-1.7c-5.3,0-9.6,4.3-9.6,9.5c0,2.5,1,4.9,2.8,6.7l7.4,7.4l-10.2,51.1l-8.6-1.7l6.7-33.7h-17.9v30.3
			H181.5z M260.4,308.3V378l20.8-7.8v-50.9c0-6.6,3.7-12.8,9.5-16l0.3-0.1v-6.3L260.4,308.3z M220.9,303.2l0.3,0.1
			c5.9,3.3,9.5,9.4,9.5,16v50.9l20.8,7.8v-69.6l-30.7-11.5L220.9,303.2L220.9,303.2z M299.8,300.9h1.5c10.1,0,18.4,8.2,18.4,18.4
			c0,4.9-1.9,9.5-5.4,13l-4.1,4.1l0.8,4h19.7V321c0-26.9-19.3-49.7-45.8-54.1l-4.6-0.8v4.7c0,7.8-6.4,14.2-14.2,14.2h-19.7
			c-7.8,0-14.2-6.4-14.2-14.2v-4.7l-4.6,0.8c-26.6,4.4-45.8,27.1-45.8,54.1v19.5h19.5l0.8-4l-4.1-4.1c-3.5-3.5-5.4-8.1-5.4-13
			c0-10.1,8.2-18.4,18.4-18.4h1.5v-16.7l43.8,16.5l43.8-16.5V300.9z M240.6,261.6v9.2c0,3,2.5,5.5,5.5,5.5h19.7c3,0,5.5-2.5,5.5-5.5
			v-9.2l-2.4-7.1l-0.4,0.1c-2.6,0.4-5,0.8-7.6,0.8h-9.9c-2.5,0-5-0.2-7.6-0.8l-0.4-0.1L240.6,261.6z M251.1,112.3
			c-27.6,0-49.9,22.4-49.9,49.9v10.8c0,3.8-1.5,7.4-4.1,10.1l-1.9,1.9c-2.5,2.5-3.8,5.8-3.8,9.3c0,3.8,1.3,7.1,3.8,9.6
			c3.9,3.9,6.1,9.1,6.1,14.6c0,6.4-3,12.6-8.2,16.5l-2.5,1.9c-5.7,4.3-9.1,11-9.1,18c0,6.1,2.4,11.8,6.6,16l4.3,4.3l0.4-0.3
			c9.2-8.6,20.6-14.2,33.1-16.4l7.2-1.2l1.8-5.3l-0.4-0.2c-13.5-6.5-22.1-20.2-22.1-35.1v-38.3c0-5.4,3-10.3,7.8-12.8l11.7-5.8
			c7.3-3.6,13.9-8.3,19.7-13.9l0.2-0.1v-12.4h8.7v12.4l0.2,0.1c5.8,5.6,12.6,10.3,19.7,13.9l11.7,5.8c4.8,2.5,7.8,7.3,7.8,12.8v38.3
			c0,14.8-8.6,28.6-22.1,35.1l-0.4,0.2l1.8,5.3l7.2,1.2c12.4,2,23.9,7.7,33.1,16.4l0.4,0.3l4.3-4.3c4.3-4.3,6.6-10,6.6-16
			c0-7.1-3.4-13.8-9.1-18l-2.5-1.9c-5.2-3.8-8.2-10-8.2-16.5c0-5.5,2.1-10.6,6.1-14.6c2.5-2.5,3.8-5.8,3.8-9.3
			c0-3.8-1.3-7.1-3.8-9.6l-1.9-1.9c-2.7-2.7-4.1-6.3-4.1-10.1v-10.8c0-27.5-22.4-49.9-49.9-49.9H251.1z M220.9,216.5
			c0,16.6,13.6,30.2,30.2,30.2h9.9c16.6,0,30.2-13.6,30.2-30.2V205l-0.8,0.2c-1.7,0.6-3.3,0.9-4.7,0.9h-19.7c-3.5,0-6.8-1.3-9.5-3.7
			l-0.3-0.3l-0.3,0.3c-2.7,2.4-6.1,3.7-9.5,3.7h-19.7c-1.6,0-3.1-0.3-4.7-0.9l-0.8-0.2L220.9,216.5L220.9,216.5z M260.4,191.9
			c0,3,2.5,5.5,5.5,5.5h19.7c3,0,5.5-2.5,5.5-5.5v-13.7c0-0.4,0-0.8-0.2-1.3l-0.1-0.4h-30.5v15.5H260.4z M221,176.9
			c-0.1,0.4-0.2,0.9-0.2,1.3v13.7c0,3,2.5,5.5,5.5,5.5H246c3,0,5.5-2.5,5.5-5.5v-15.4H221V176.9z M255.7,153.8
			c-5.5,4.9-11.8,9.3-18.6,12.9l-2,1H277l-2-1c-6.8-3.6-13-7.8-18.6-12.9l-0.3-0.3L255.7,153.8z"/>
		<path d="M260.9,104.1c32.1,0,58.1,26,58.1,58.1v10.8c0,1.6,0.7,3.1,1.8,4.3l1.9,1.9c4,4,6.3,9.4,6.3,15c0,5.9-2.1,11.3-6.3,15.4
			c-2.4,2.4-3.6,5.5-3.6,8.7c0,3.9,1.9,7.6,4.9,9.9l2.5,1.9c7.7,5.8,12.3,15,12.3,24.7c0,8.2-3.3,15.9-9,21.7l-4.4,4.3l-0.7,0.7
			l0.6,0.8c8.7,11.2,13.3,24.5,13.3,38.8v58.4c0,15.7-12.8,28.5-28.5,28.5c-7.4,0-14.5-2.9-19.8-8.1s-8.4-12.1-8.6-19.5v-1.6
			l-1.5,0.6l-24.3,9.1l-24.3-9.1l-1.5-0.6v1.6c-0.2,7.4-3.3,14.3-8.6,19.5c-5.4,5.2-12.3,8.1-19.8,8.1c-15.7,0-28.5-12.8-28.5-28.5
			V321c0-14.2,4.6-27.6,13.3-38.8l0.6-0.8l-0.7-0.8l-4.3-4.3c-5.8-5.8-9-13.6-9-21.7c0-9.6,4.6-18.8,12.3-24.7l2.5-1.9
			c3.1-2.4,4.9-6.1,4.9-9.9c0-3.3-1.3-6.4-3.6-8.7c-4-4-6.3-9.4-6.3-15c0-5.9,2.1-11.3,6.3-15.4l1.9-1.9c1.1-1.1,1.8-2.7,1.8-4.3
			v-10.8c0-32.1,26-58.1,58.1-58.1L260.9,104.1 M192.3,275.7l0.8-0.8c9.1-8.5,20.4-14.1,32.7-16.3l6.8-1.1l0.7-0.1l0.2-0.7l1.5-4.5
			l0.3-0.9l-0.9-0.4c-13.2-6.4-21.7-20-21.7-34.5v-38.3c0-5.3,2.9-9.9,7.5-12.2l11.7-5.8c7.3-3.6,14-8.3,20-14l0.3-0.3v-0.4v-11.5
			h7.6v11.5v0.4l0.3,0.3c5.9,5.6,12.6,10.3,19.8,14l11.7,5.8c4.7,2.4,7.5,7.1,7.5,12.2v38.3c0,14.6-8.5,28.1-21.7,34.5l-0.9,0.4
			l0.3,0.9l1.5,4.5l0.2,0.7l0.7,0.1l6.8,1.1c12.3,2,23.7,7.6,32.7,16.3l0.8,0.8l0.8-0.8l3.9-3.9c4.4-4.4,6.8-10.2,6.8-16.4
			c0-7.3-3.5-14.2-9.3-18.5l-2.5-1.9c-5-3.8-8-9.8-8-16c0-5.4,2.1-10.3,5.8-14.1c2.6-2.6,4-6.1,4-9.6c0-3.9-1.3-7.4-4-10l-1.9-1.9
			c-2.6-2.6-4-6.1-4-9.6v-10.8c0-27.8-22.6-50.4-50.4-50.4H251c-27.8,0-50.4,22.6-50.4,50.4v10.8c0,3.7-1.5,7.1-4,9.6l-1.9,1.9
			c-2.6,2.6-4,6.1-4,9.6c0,3.9,1.3,7.4,4,10c3.8,3.8,5.8,8.7,5.8,14.1c0,6.3-3,12.2-8,16l-2.5,1.9c-5.8,4.4-9.3,11.3-9.3,18.5
			c0,6.2,2.5,12,6.8,16.4l3.9,3.9L192.3,275.7 M232.8,168.3h4.6h37.4h4.6l-4-2.1c-6.7-3.6-13-7.8-18.5-12.8l-0.8-0.7l-0.8,0.7
			c-5.5,4.9-11.7,9.2-18.5,12.8L232.8,168.3 M265.9,197.9h19.7c3.4,0,6.1-2.7,6.1-6.1v-13.7c0-0.6-0.1-1.1-0.2-1.5l-0.2-0.9h-0.9
			h-29.5h-1.1v1.1v14.8C259.8,195.1,262.5,197.9,265.9,197.9 M226.4,197.9h19.7c3.4,0,6.1-2.7,6.1-6.1v-14.8V176h-1.1h-29.5h-0.9
			l-0.2,0.9c-0.1,0.6-0.2,1-0.2,1.5V192C220.4,195.1,223,197.9,226.4,197.9 M226.4,205.6c-1.5,0-2.9-0.2-4.6-0.9l-1.5-0.6v1.6v10.8
			c0,16.9,13.8,30.7,30.7,30.7h9.9c16.9,0,30.7-13.8,30.7-30.7v-10.8v-1.6l-1.5,0.6c-1.6,0.6-3,0.9-4.6,0.9h-19.7
			c-3.4,0-6.6-1.2-9.1-3.6l-0.8-0.7l-0.8,0.7c-2.6,2.2-5.8,3.6-9.1,3.6H226.4 M246.1,276.8h19.7c3.4,0,6.1-2.7,6.1-6.1v-9.1v-0.1
			l-0.1-0.2l-2.1-6.5l-0.3-0.9l-1,0.2c-2.5,0.4-5,0.8-7.5,0.8H251c-2.5,0-5-0.2-7.5-0.8l-1-0.2l-0.3,0.9l-2.1,6.5l-0.1,0.2v0.2v9.1
			C240.1,274.2,242.8,276.8,246.1,276.8 M246.1,284.5c-7.5,0-13.7-6.2-13.7-13.7v-4v-1.3l-1.3,0.2l-4,0.7
			c-26.8,4.5-46.3,27.5-46.3,54.7V340v1.1h1.1h18.6h0.9l0.2-0.9l0.7-3.4l0.1-0.6l-0.4-0.4l-3.9-3.9c-3.4-3.4-5.2-7.8-5.2-12.6
			c0-9.8,8-17.8,17.8-17.8h0.9h1.1v-1.1V285l42.9,16.1l0.4,0.1l0.4-0.1l42.9-16.1v15.4v1.1h1.1h0.9c9.8,0,17.8,8,17.8,17.8
			c0,4.7-1.8,9.2-5.2,12.6l-3.9,3.9l-0.4,0.4l0.1,0.6l0.7,3.4l0.2,0.9h0.9H330h1.1V340V321c0-27.2-19.5-50.2-46.3-54.6l-4-0.7
			l-1.3-0.2v1.3v4c0,7.5-6.2,13.7-13.7,13.7h-19.6 M259.8,378.7l1.6-0.6l19.7-7.4l0.7-0.2v-0.8v-50.4c0-6.4,3.6-12.3,9.3-15.5
			l0.6-0.3v-0.7v-5.2v-1.6l-1.6,0.6l-29.6,11.1l-0.7,0.2v0.8v68.4V378.7 M252.2,378.7v-1.6v-68.4V308l-0.7-0.2l-29.6-11.1l-1.6-0.6
			v1.6v5.2v0.7l0.6,0.3c5.7,3.1,9.3,9.1,9.3,15.5v50.4v0.8l0.7,0.2l19.7,7.4L252.2,378.7 M310.3,400.3L310.3,400.3
			c11.5,0,20.8-9.3,20.8-20.8v-29.6v-1.1H330h-16.7h-1.3l0.2,1.3l6.5,32.5l-7.5,1.5l-10.1-50.2l7.2-7.2c1.9-1.9,3-4.5,3-7.2
			c0-5.6-4.6-10.1-10.1-10.1h-1.7c-5.6,0-10.2,4.6-10.2,10.1v60.1C289.4,390.8,298.8,400.3,310.3,400.3 M210.8,333.7l-10.1,50.2
			l-7.5-1.5l6.5-32.5l0.2-1.3h-1.3H182h-1.1v1.1v29.6c0,11.5,9.3,20.8,20.8,20.8s20.8-9.3,20.8-20.8v-60.1c0-5.6-4.6-10.1-10.1-10.1
			h-1.7c-5.6,0-10.2,4.6-10.2,10.1c0,2.7,1.1,5.3,2.9,7.2L210.8,333.7 M260.9,103h-9.9c-32.6,0-59.2,26.6-59.2,59.2v10.8
			c0,1.3-0.6,2.6-1.5,3.5l-1.9,1.9c-4.3,4.3-6.6,9.9-6.6,16.1c0,5.9,2.4,11.7,6.6,15.9c2.1,2.1,3.3,5,3.3,8c0,3.5-1.7,6.8-4.5,9
			l-2.5,1.9c-8,6.1-12.8,15.6-12.8,25.6c0,8.5,3.4,16.6,9.3,22.5l4.3,4.3c-8.5,11-13.6,24.7-13.6,39.5v58.4
			c0,16.4,13.2,29.6,29.6,29.6c16,0,29-12.8,29.6-28.7l24.8,9.3l24.8-9.3c0.4,15.9,13.6,28.7,29.6,28.7c16.4,0,29.6-13.2,29.6-29.6
			V321c0-14.8-5-28.6-13.6-39.5l4.3-4.3c6.1-6.1,9.3-14,9.3-22.5c0-10-4.8-19.5-12.8-25.6l-2.5-1.9c-2.8-2.1-4.5-5.5-4.5-9
			c0-2.9,1.2-5.8,3.3-8c4.3-4.3,6.6-9.9,6.6-16.1c0-5.9-2.4-11.7-6.6-15.9l-1.9-1.9c-0.9-0.9-1.5-2.2-1.5-3.5v-10.8
			C320.1,129.6,293.5,103,260.9,103L260.9,103z M192.3,274.2l-3.9-3.9c-4.1-4.1-6.5-9.8-6.5-15.6c0-6.9,3.3-13.5,8.9-17.6l0,0
			l2.5-1.9c5.3-3.9,8.4-10.3,8.4-16.9c0-5.6-2.2-11-6.2-14.9c-2.4-2.4-3.7-5.5-3.7-9.2c0-3.4,1.3-6.5,3.7-8.9l1.9-1.9
			c2.8-2.8,4.4-6.5,4.4-10.4v-10.8c0-27.2,22.1-49.3,49.3-49.3h9.9c27.2,0,49.3,22.1,49.3,49.3v10.8c0,3.9,1.6,7.6,4.4,10.4l1.9,1.9
			c2.4,2.4,3.7,5.5,3.7,9.2c0,3.4-1.3,6.5-3.7,8.9c-4,4-6.2,9.3-6.2,14.9c0,6.6,3.1,12.9,8.4,16.9l2.5,1.9
			c5.5,4.1,8.9,10.8,8.9,17.6c0,5.9-2.2,11.4-6.5,15.6l-3.9,3.9c-9-8.4-20.4-14.3-33.4-16.5l-6.8-1.1l-1.5-4.5
			c13.2-6.4,22.4-19.8,22.4-35.5v-38.3c0-5.6-3.1-10.8-8.2-13.2l-11.7-5.8c-7.2-3.6-13.8-8.2-19.6-13.8v-12.7h-9.9v12.7
			c-5.8,5.5-12.4,10.2-19.6,13.8l-11.7,5.8c-5,2.5-8.2,7.6-8.2,13.2v38.3c0,15.7,9.2,29.1,22.4,35.5l-1.5,4.5l-6.8,1.1
			C212.7,259.8,201.3,265.8,192.3,274.2L192.3,274.2z M237.3,167.2c6.7-3.6,13-7.8,18.7-12.9c5.6,5,12,9.4,18.7,12.9H237.3
			L237.3,167.2z M265.9,196.8c-2.7,0-4.9-2.2-4.9-4.9v-14.8h29.5c0.1,0.3,0.1,0.8,0.1,1.1v13.7c0,2.7-2.2,4.9-4.9,4.9H265.9
			L265.9,196.8z M226.4,196.8c-2.7,0-4.9-2.2-4.9-4.9v-13.7c0-0.4,0.1-0.8,0.1-1.1h29.5v14.8c0,2.7-2.2,4.9-4.9,4.9H226.4
			L226.4,196.8z M226.4,206.7h19.7c3.8,0,7.3-1.5,9.9-3.8c2.6,2.4,6.1,3.8,9.9,3.8h19.7c1.7,0,3.4-0.3,4.9-0.9v10.8
			c0,16.4-13.2,29.6-29.6,29.6h-9.9c-16.4,0-29.6-13.2-29.6-29.6v-10.8C223,206.3,224.6,206.7,226.4,206.7L226.4,206.7z
			 M246.1,275.7c-2.7,0-4.9-2.2-4.9-4.9v-9.1l2.1-6.5c2.5,0.4,5,0.8,7.7,0.8h9.9c2.7,0,5.2-0.2,7.7-0.8l2.1,6.5v9.1
			c0,2.7-2.2,4.9-4.9,4.9H246.1L246.1,275.7z M246.1,285.6h19.7c8.2,0,14.8-6.6,14.8-14.8v-4l4,0.7c26.2,4.4,45.4,26.9,45.4,53.6
			V340h-18.6l-0.7-3.4l3.9-3.9c3.6-3.6,5.5-8.3,5.5-13.3c0-10.4-8.5-18.9-18.9-18.9h-0.9v-17L256,300.1l-44.4-16.7v17h-0.9
			c-10.4,0-18.9,8.5-18.9,18.9c0,5,2,9.8,5.5,13.3l3.9,3.9l-0.7,3.4H182V321c0-26.7,19.1-49.2,45.4-53.6l4-0.7v4
			C231.3,279,238,285.6,246.1,285.6L246.1,285.6z M260.9,377.2v-68.4l29.6-11.1v5.2c-5.8,3.3-9.9,9.4-9.9,16.5v50.4L260.9,377.2
			L260.9,377.2z M251.1,377.2l-19.7-7.4v-50.4c0-7.2-4-13.2-9.9-16.5v-5.2l29.6,11.1L251.1,377.2L251.1,377.2z M310.3,399.1
			c-10.9,0-19.7-8.9-19.7-19.7v-60.1c0-4.9,4-9,9.1-9h1.7c4.9,0,9,4,9,9c0,2.4-1,4.7-2.7,6.4l-7.6,7.6l10.4,51.9l9.6-1.9l-6.7-33.5
			H330v29.6C330,390.3,321.1,399.1,310.3,399.1L310.3,399.1L310.3,399.1L310.3,399.1z M201.6,385.2l10.4-51.9l-7.6-7.6
			c-1.7-1.7-2.7-4-2.7-6.4c0-4.9,4-9,9.1-9h1.7c4.9,0,9,4,9,9v60.1c0,10.9-8.9,19.7-19.7,19.7s-19.7-8.9-19.7-19.7v-29.6h16.7
			l-6.7,33.6L201.6,385.2L201.6,385.2z"/>
	</g>
</g>
<g>
	<path class="st0" d="M256,10c33.2,0,65.4,6.5,95.8,19.3C381.1,41.7,407.4,59.4,430,82s40.3,48.9,52.7,78.2
		c12.8,30.3,19.3,62.5,19.3,95.8s-6.5,65.4-19.3,95.8c-12.4,29.3-30.1,55.6-52.7,78.2s-48.9,40.3-78.2,52.7
		C321.4,495.5,289.2,502,256,502s-65.4-6.5-95.8-19.3c-29.3-12.4-55.6-30.1-78.2-52.7s-40.3-49-52.7-78.2
		C16.5,321.4,10,289.2,10,256s6.5-65.4,19.3-95.8C41.7,130.9,59.4,104.6,82,82s48.9-40.3,78.2-52.7C190.6,16.5,222.8,10,256,10
		 M256,0C114.6,0,0,114.6,0,256s114.6,256,256,256s256-114.6,256-256S397.4,0,256,0L256,0z"/>
</g>
</svg>
