<?xml version="1.0" encoding="utf-8"?>
<!-- Generator: Adobe Illustrator 19.2.0, SVG Export Plug-In . SVG Version: 6.00 Build 0)  -->
<svg version="1.1" id="Layer_1" xmlns="http://www.w3.org/2000/svg" xmlns:xlink="http://www.w3.org/1999/xlink" x="0px" y="0px"
	 viewBox="0 0 512 512" style="enable-background:new 0 0 512 512;" xml:space="preserve">
<style type="text/css">
	.st0{fill:#231F20;}
</style>
<g id="Gloves">
	<g id="Outline">
		<path class="st0" d="M364.9,170.3v-14.8c0-13-14.1-20.9-25.1-14.5v-2.3c0-9.3-7.5-16.8-16.8-16.8s-16.8,7.5-16.8,16.8v2.3
			c-11-6.4-25.1,1.5-25.1,14.5V187c-11-6.4-25.1,1.5-25.1,14.5v62.8c0,19.1,8.3,34.4,16.8,51.3v70.2c0,2.3,1.9,4.2,4.2,4.2h92.2
			c2.3,0,4.2-1.9,4.2-4.2v-70.2c8.4-16.8,16.8-32.1,16.8-51.3v-79.6C390.1,171.8,376,163.9,364.9,170.3z M364.9,381.7h-83.8v-16.8
			h83.8V381.7z M381.7,264.4c0,23.6-16.8,45.9-16.8,50.3v41.9h-83.8c-0.2-43.7,0.4-42.2-0.4-43.8c-7.9-15.8-16.3-30.9-16.3-48.4
			v-62.8c0-4.6,3.8-8.4,8.4-8.4c4.6,0,8.4,3.8,8.4,8.4v33.5c0,2.3,1.9,4.2,4.2,4.2s4.2-1.9,4.2-4.2v-79.6c0-4.6,3.8-8.4,8.4-8.4
			c4.6,0,8.4,3.8,8.4,8.4V189c0,2.3,1.9,4.2,4.2,4.2c2.3,0,4.2-1.9,4.2-4.2v-50.3c0-4.6,3.8-8.4,8.4-8.4s8.4,3.8,8.4,8.4v96.4
			c0,2.3,1.9,4.2,4.2,4.2c2.3,0,4.2-1.9,4.2-4.2v-79.6c0-4.6,3.8-8.4,8.4-8.4s8.4,3.8,8.4,8.4v79.6c0,2.3,1.9,4.2,4.2,4.2
			c2.3,0,4.2-1.9,4.2-4.2v-50.3c0-4.6,3.8-8.4,8.4-8.4s8.4,3.8,8.4,8.4V264.4z"/>
		<circle class="st0" cx="339.8" cy="335.6" r="4.2"/>
		<circle class="st0" cx="323" cy="335.6" r="4.2"/>
		<circle class="st0" cx="306.3" cy="335.6" r="4.2"/>
		<circle class="st0" cx="339.8" cy="318.9" r="4.2"/>
		<circle class="st0" cx="323" cy="318.9" r="4.2"/>
		<circle class="st0" cx="306.3" cy="318.9" r="4.2"/>
		<circle class="st0" cx="310.5" cy="205.7" r="4.2"/>
		<path class="st0" d="M264.2,342.3c-0.7-2.2-3.1-3.4-5.3-2.7l-58.6,19.1c-14-41.2-13.1-40.1-14.4-41.3
			c-12.5-12.7-25.1-24.3-30.5-41l-24.7-75.7c-2.3-7.1,5.2-13.4,11.8-10.1c2,1,3.5,2.7,4.2,4.9l0,0l0,0l15.6,47.8
			c0.7,2.2,3.1,3.4,5.3,2.7c2.2-0.7,3.4-3.1,2.7-5.3c0,0,0,0,0,0c-2.4-7.5-14.3-43.8-16.9-51.8c-6.7-22.7-10-25.1-7.3-30.3
			c2.1-4.1,7.1-5.8,11.3-3.7c0,0,0,0,0,0c5.8,3,3.5,5.3,28.9,80.5c0.7,2.2,3.1,3.4,5.3,2.7c2.2-0.7,3.4-3.1,2.7-5.3c0,0,0,0,0-0.1
			c-10.1-31.1-20.5-62.8-29.9-91.6c-0.7-2.1-0.5-4.4,0.5-6.4c3.4-6.7,13.1-5.8,15.4,1.2l29.9,91.6c1.7,5.3,9.7,2.7,8-2.6
			c-3.5-10.7-20.9-63.9-24.7-75.7l0,0v0c-1.4-4.4,1.1-9.1,5.5-10.5c4.4-1.4,9,1,10.5,5.3c0,0.1,15.1,46.2,14.3,43.8l10.4,31.8
			c1.7,5.3,9.7,2.7,8-2.6c-9.3-30.9-12.6-32.9-9.9-38.3c3.3-6.6,13.1-5.9,15.4,1.2l0.6,1.9c1.6,5.1,9.7,2.5,8-2.6l-0.6-1.9
			c-4-12.3-19.9-15.5-28.4-6l-9.8-30c-4-12.3-19.9-15.5-28.4-6c-0.5-0.9-1.5-8-9-11.9c-13.2-6.7-28.2,5.9-23.5,20.1l0.7,2.1
			c-7.4-1.6-15,2.1-18.4,8.8c-4.7,9.3,1,16.2,3.6,26.9c-12.5-2.6-23.4,9.3-19.4,21.6l24.7,75.7c5.9,18.2,18.6,30.1,31.9,43.6
			l13.8,41c-0.2,1.3,0.3,2.6,1.2,3.5l6.8,20.2c0.7,2.2,3.1,3.4,5.3,2.6l55.1-18c2.2-0.7,3.4-3.1,2.7-5.3s-3.1-3.4-5.3-2.7l0,0
			l-51.2,16.7l-4.7-14l58.5-19.1C263.7,346.8,264.9,344.5,264.2,342.3z"/>
		
			<ellipse transform="matrix(0.6915 -0.7223 0.7223 0.6915 -172.1199 259.1414)" class="st0" cx="217.4" cy="331.1" rx="4.2" ry="4.2"/>
		
			<ellipse transform="matrix(0.4528 -0.8916 0.8916 0.4528 -162.9202 386.3367)" class="st0" cx="233.3" cy="325.9" rx="4.2" ry="4.2"/>
		
			<ellipse transform="matrix(0.4528 -0.8916 0.8916 0.4528 -149.5665 397.6961)" class="st0" cx="249.2" cy="320.7" rx="4.2" ry="4.2"/>
		
			<ellipse transform="matrix(0.4528 -0.8916 0.8916 0.4528 -164.9148 361.6235)" class="st0" cx="212.2" cy="315.2" rx="4.2" ry="4.2"/>
		
			<ellipse transform="matrix(0.4528 -0.8916 0.8916 0.4528 -151.5605 372.9829)" class="st0" cx="228.1" cy="310" rx="4.2" ry="4.2"/>
		
			<ellipse transform="matrix(0.4528 -0.8916 0.8916 0.4528 -138.2076 384.3422)" class="st0" cx="244" cy="304.8" rx="4.2" ry="4.2"/>
		<path class="st0" d="M310.5,218.3c-2.3,0-4.2,1.9-4.2,4.2v12.6c0,2.3,1.9,4.2,4.2,4.2c2.3,0,4.2-1.9,4.2-4.2v-12.6
			C314.7,220.2,312.8,218.3,310.5,218.3z"/>
	</g>
</g>
<g>
	<path class="st0" d="M257,11c33.2,0,65.4,6.5,95.8,19.3c29.3,12.4,55.6,30.1,78.2,52.7s40.3,48.9,52.7,78.2
		c12.8,30.3,19.3,62.5,19.3,95.8s-6.5,65.4-19.3,95.8c-12.4,29.3-30.1,55.6-52.7,78.2s-48.9,40.3-78.2,52.7
		C322.4,496.5,290.2,503,257,503s-65.4-6.5-95.8-19.3c-29.3-12.4-55.6-30.1-78.2-52.7S42.7,382,30.3,352.8
		C17.5,322.4,11,290.2,11,257s6.5-65.4,19.3-95.8c12.4-29.3,30.1-55.6,52.7-78.2s48.9-40.3,78.2-52.7C191.6,17.5,223.8,11,257,11
		 M257,1C115.6,1,1,115.6,1,257s114.6,256,256,256s256-114.6,256-256S398.4,1,257,1L257,1z"/>
</g>
</svg>
