<?xml version="1.0" encoding="utf-8"?>
<!-- Generator: Adobe Illustrator 19.2.0, SVG Export Plug-In . SVG Version: 6.00 Build 0)  -->
<svg version="1.1" id="Layer_1" xmlns="http://www.w3.org/2000/svg" xmlns:xlink="http://www.w3.org/1999/xlink" x="0px" y="0px"
	 viewBox="0 0 512 512" style="enable-background:new 0 0 512 512;" xml:space="preserve">
<style type="text/css">
	.st0{fill:#231F20;}
	.st1{fill:#FFFFFF;}
</style>
<title>035 - Creative Thinking</title>
<desc>Created with Sketch.</desc>
<g id="Page-1">
	<g id="_x30_35---Creative-Thinking">
		<g id="Shape">
			<path class="st0" d="M159,387.7c-18.9,0-34.2-14.8-34.7-33.8c-0.5-18.9,14-34.6,32.9-35.5h0.7l-32.8-79.2
				c-1.7-4.2,0.3-9.1,4.5-10.8l36.6-15.2c1-0.4,2-0.6,3.1-0.6c3.3,0,6.4,2,7.7,5l24.1,58.4l0.4-0.1c3.3-0.9,6.7-1.4,10-1.5h0.6
				l-22-93.6v-0.2v-0.1c-0.1-0.3-0.1-0.5-0.1-0.9l1.7-45.8c0.1-4.4,3.2-8,7.5-9.1c0.7-0.2,1.5-0.2,2.2-0.2c3.5,0,6.8,1.9,8.4,5
				l21.9,40.3c0.1,0.2,0.2,0.4,0.2,0.7c0,0.1,0.1,0.2,0.1,0.2l21.6,92.2l0.6-0.5c3.3-2.9,6.9-5.4,10.9-7.6l0.3-0.1v-0.3
				c-0.5-10.4-0.2-20.8,0.7-31.2c0.5-6,1.4-12.4,2.5-19.5v-0.2l-0.2-0.2c-2.7-3-4.7-6.3-6.2-9.9c-3.8-9.6-1.5-20.4,5.9-27.5
				c17-18.7,18.9-27.9,16.7-36.5c-0.4-1.6,0.2-3.3,1.6-4.3c0.6-0.4,1.4-0.6,2.1-0.6c0.9,0,1.7,0.3,2.3,0.9c1,0.7,24,19.1,26.8,44.6
				c1.2,12.5-2.8,25.3-10.8,34.9l-0.1,0.1v0.2c0.5,14.4-0.2,28.9-2.2,43.2l-0.1,0.5l0.5,0.1c5.4,1.2,10.7,3,15.6,5.7l0.5,0.3
				l10.4-25l0,0c4.1-8.8,6.5-17.9,7.4-27.5c0.1-2,1.2-3.9,2.9-5l31-19.3l0.3-0.1c0.5-0.3,1.3-0.5,1.9-0.5c0.1,0,0.2,0,0.2,0
				c0.1,0,0.2,0.1,0.3,0.1c0.2,0,0.5,0.1,0.9,0.2c0.2,0.1,0.3,0.2,0.5,0.3s0.3,0.2,0.5,0.3c0.1,0.1,0.3,0.3,0.5,0.6
				c0.1,0.1,0.1,0.2,0.2,0.2l0.1,0.1c0,0,0,0.1,0.1,0.2c0.2,0.3,0.3,0.6,0.4,1l8.2,35.8c0.4,2-0.1,4.1-1.5,5.6
				c-6.2,7.4-11,15.8-14.3,24.8v0.1v0.1l-20.2,48.8v0.1c1.5,7.4,1.5,14.8,0.1,22.3l-0.1,0.6h1.2c12.2,0,23.6,6.5,29.8,17
				c6.3,10.6,6.5,23.9,0.5,34.7c-6,10.8-17.4,17.6-29.8,17.8l0,0H159V387.7z M159,326c-14.8,0-27,12.1-27,27c0,14.9,12.1,27,27,27
				h194c14.8,0,27-12.1,27-27c0-14.9-12.1-27-27-27c-2,0-4.1,0.2-6,0.6c-0.3,0.1-0.5,0.1-0.9,0.1c-1.1,0-2.1-0.4-2.9-1.3
				c-1-1-1.3-2.5-0.9-3.7c1.5-4.9,2.2-9.9,2.2-15.1c0-24.8-17.6-46-42.1-50.4c-3-0.5-6.1-0.9-9.2-0.9c-21.2,0-40.5,13.3-47.9,33.2
				c-0.4,1.2-1.4,2-2.6,2.3c-0.3,0.1-0.7,0.1-1.1,0.1c-0.9,0-1.6-0.3-2.3-0.7c-7.4-5.6-16.2-8.4-25.4-8.4c-6.4,0-12.8,1.5-18.6,4.3
				c-14.4,7-23.5,21.2-23.8,37.3c0,1.2-0.6,2.3-1.6,3.1c-0.6,0.5-1.5,0.7-2.2,0.7c-0.4,0-0.7-0.1-1.1-0.2
				C164.2,326.3,161.7,326,159,326L159,326z M132.1,235.6l32.8,79l0.4-1.6c3.6-15.3,13.9-27.9,28.3-34.4l0.4-0.2l-3.9-9.6l-16.8,6.9
				c-0.4,0.2-1,0.3-1.5,0.3c-1.8,0-3.4-1.3-3.8-3.1c-0.3-1.8,0.6-3.6,2.3-4.4l16.9-6.9l-3.7-9.2l-8.6,3.6c-0.4,0.2-1,0.3-1.5,0.3
				c-1.8,0-3.4-1.3-3.8-3.1c-0.3-1.8,0.6-3.6,2.3-4.4l8.6-3.6l-3.7-9.2l-16.8,6.9c-0.4,0.2-1,0.3-1.5,0.3c-1.8,0-3.4-1.3-3.7-3.1
				c-0.3-1.8,0.6-3.6,2.3-4.4l16.8-6.9l-3.7-9.1L132.1,235.6z M328.1,259.1l0.3,0.2c8.1,6,14.6,14,18.8,23.2l0.5,1.1l14.8-35.9
				l-0.9,0.1c-0.9,0.1-1.7,0.1-2.6,0.1c-3.6,0-7.3-0.7-10.6-2.2c-4.2-1.6-7.9-4.4-10.8-7.9l-0.5-0.6L328.1,259.1z M223.5,223.3
				c1.8,0,3.3,1.2,3.7,2.9l12.9,55.1l0.6-1.3c1.8-3.6,4.1-7,6.5-10.1l0.2-0.2l-20-85.4l-0.6,0.9c-2,2.5-4.6,4.4-7.5,5.8l-0.4,0.2
				l3.2,13.8c0.3,1.4-0.1,2.8-1.1,3.7c-0.7,0.6-1.7,1.1-2.7,1.1c-0.4,0-0.7-0.1-1.2-0.2c-1.4-0.4-2.3-1.5-2.7-2.9l-3.2-13.8H211
				c-0.1,0-0.2,0-0.3,0s-0.3,0-0.4,0c-2.9,0-5.8-0.6-8.4-1.8l-1-0.4l19.6,84h0.3c3.2,0.4,6.4,1.3,9.5,2.3l1,0.3l-11.5-49.3
				c-0.4-2,0.9-4.1,2.9-4.6C222.8,223.3,223.1,223.3,223.5,223.3z M273.9,228.2c-0.5,7.4-0.7,14.8-0.5,22.3v0.7l0.6-0.2
				c6.2-2.2,12.7-3.3,19.3-3.3c0.7,0,1.4,0,2.1,0.1c0.3,0,0.6,0,1.1,0.1h0.5l0.1-0.5c0.9-6.6,1.5-12.4,1.9-17.7v-0.6h-0.6
				c-1.8,0.1-3.7,0.3-5.7,0.3c-5.7-0.1-11.4-0.5-17.1-1.5l-1.3-0.2h-0.5V228.2z M346.9,203.3v0.2c-0.9,8.2-2.8,16.2-5.9,23.8
				l-0.1,0.2l0.1,0.2c1.8,4.9,5.6,8.9,10.4,10.8c2.2,1,4.7,1.4,7.2,1.4c2.8,0,5.3-0.5,7.9-1.7l0.2-0.1l0.1-0.2
				c3.2-7.6,7.5-14.6,12.7-20.9l0.2-0.2l-5.3-23.1l-7.2,17.3c-0.6,1.5-2,2.3-3.6,2.3c-0.5,0-1-0.1-1.5-0.3c-1-0.4-1.7-1.2-2.1-2.1
				c-0.4-1-0.4-2,0-3l7.2-17.3L346.9,203.3z M276.3,206.7c-0.6,4.5-1.2,8.6-1.6,12.8l-0.1,0.5l1.2,0.2c0.3,0,0.6,0.1,1,0.1
				c5.1,0.9,10.4,1.3,15.6,1.3c2.2,0,4.5-0.1,6.6-0.2h0.4v-0.5c0.1-4.9,0.2-9,0-12.7v-0.5l-23.2-1.4L276.3,206.7z M274.4,170.9
				c-3.6,3.6-5.8,8.6-5.7,13.8s2.2,10,6,13.6l0.1,0.1h0.2c8.5,0.5,17.1,1.1,25.8,1.6h0.3l0.2-0.2c6.7-8.2,10-18.5,9.1-29
				c-2-12.2-7.5-23.2-16-31.9l-0.7-0.7l-0.2,1.1C292,148.1,286.2,157.8,274.4,170.9L274.4,170.9z M198.2,178.5l0.1,0.1
				c2.9,3.9,7.5,6.4,12.4,6.4c0.7,0,1.5-0.1,2.2-0.2v0.1l0.6-0.2c5.8-1.6,10-6.4,11-12.3v-0.2l-7.8-14.4l-0.5,0.4
				c-2.3,1.8-5,3.2-8,3.9c-1.4,0.3-2.8,0.5-4.3,0.5c-1.6,0-3.1-0.1-4.6-0.4l-0.6-0.1L198.2,178.5z M201.7,132.2c-0.1,0-0.3,0-0.4,0
				c-0.9,0.2-1.4,1-1.5,1.8l-0.7,20.3l0.4,0.1c1.4,0.4,2.8,0.6,4.3,0.6c1,0,1.9-0.1,2.8-0.2c2.3-0.6,4.5-1.8,6.2-3.4l0.3-0.3
				l-9.6-17.8C203,132.5,202.3,132.2,201.7,132.2z"/>
			<path d="M288.9,124.8c0.7,0,1.5,0.2,2,0.7c1,0.7,23.8,19,26.6,44.3c1.2,12.4-2.8,25-10.7,34.5l-0.2,0.3v0.4
				c0.5,14.4-0.2,28.9-2.2,43.1l-0.1,1l1,0.2c5.4,1.1,10.6,3,15.5,5.6l1.1,0.5l0.4-1.1l10.1-24.3l0.1-0.2c4.1-8.8,6.5-18,7.5-27.6
				l0,0l0,0c0-1.8,1.1-3.5,2.6-4.6l30.8-19.2l0,0l0.2-0.1c0.1,0,0.1-0.1,0.2-0.1c0.5-0.3,1.1-0.4,1.6-0.4h0.1c0.1,0,0.2,0.1,0.4,0.1
				c0.2,0,0.4,0.1,0.7,0.2c0.2,0.1,0.3,0.2,0.4,0.3h0.1h0.1c0.1,0,0.2,0.1,0.3,0.2c0.1,0.1,0.3,0.3,0.4,0.5l0,0l0,0
				c0.1,0.1,0.1,0.1,0.2,0.2c0,0.1,0,0.1,0.1,0.2c0.1,0.2,0.2,0.5,0.3,0.7l8.3,35.8c0.4,1.8-0.1,3.7-1.4,5l0,0l0,0
				c-6.2,7.5-11,15.8-14.3,24.9l-0.1,0.2v0.1l-20.1,48.5l-0.1,0.3l0.1,0.3c1.5,7.4,1.5,14.7,0.1,22.1l-0.2,1.3h1.3
				c0.2,0,0.3,0,0.5,0c12,0,23.3,6.4,29.4,16.7c6.2,10.5,6.4,23.6,0.5,34.2c-6,10.7-17.2,17.4-29.4,17.5H159c-9,0-17.4-3.4-23.8-9.7
				c-6.4-6.3-10-14.6-10.2-23.6c-0.2-9,3-17.5,9.1-24.1c6.1-6.6,14.3-10.5,23.3-10.9l1.5-0.1l-0.5-1.4l-32.7-78.3
				c-1.6-3.9,0.2-8.4,4.2-10.1l36.6-15.2c1-0.4,1.9-0.5,2.9-0.5c3.1,0,6,1.8,7.2,4.7l24,58l0.3,0.9l0.9-0.2c3.3-0.9,6.6-1.4,9.9-1.5
				l1.3-0.1l-0.3-1.3l-21.8-93v-0.1v-0.1v-0.1c-0.1-0.2-0.1-0.5-0.1-0.7l1.7-45.8c0.1-4.1,3-7.6,7-8.5c0.6-0.1,1.4-0.2,2-0.2
				c3.3,0,6.4,1.8,8,4.8l21.8,40.2c0.1,0.2,0.2,0.4,0.2,0.6l0,0l0,0c0,0.1,0.1,0.2,0.1,0.2l21.3,91.3l0.4,1.7l1.4-1.2
				c3.3-2.9,6.9-5.4,10.8-7.5l0.6-0.3v-0.6c-0.4-10.4-0.2-20.8,0.7-31.1c0.5-6,1.4-12.4,2.5-19.4l0.1-0.5l-0.3-0.4
				c-2.6-2.9-4.6-6.2-6.1-9.8c-3.7-9.4-1.5-20,5.8-26.9l0,0l0,0c17.1-18.9,19.1-28.2,16.7-37c-0.3-1.4,0.2-2.9,1.4-3.6
				C287.6,125,288.3,124.8,288.9,124.8 M203.6,155.4c1,0,1.9-0.1,2.9-0.2l0,0l0,0c2.3-0.6,4.6-1.9,6.4-3.5l0.6-0.5l-0.4-0.7
				l-9.5-17.5c-0.4-0.7-1.3-1.3-2.1-1.3c-0.2,0-0.3,0-0.5,0.1c-1.1,0.2-1.8,1.2-1.9,2.2l-0.7,19.9v0.9l0.9,0.2
				C200.7,155.3,202.1,155.4,203.6,155.4 M274.1,170.4L274.1,170.4c-3.8,3.7-6,8.9-5.9,14.2c0.1,5.2,2.3,10.4,6.2,14l0.3,0.2h0.4
				c8.5,0.5,17.1,1.1,25.8,1.6h0.5l0.3-0.4c6.8-8.3,10.1-18.8,9.2-29.5l0,0l0,0c-2-12.2-7.6-23.3-16.2-32.1l-1.5-1.5L293,139
				C291.6,147.9,285.7,157.6,274.1,170.4 M203.9,162.2L203.9,162.2c-1.6,0-3.1-0.1-4.5-0.4l-1.2-0.2v1.3l-0.5,15.5v0.3l0.2,0.3
				c3,4.2,7.7,6.6,12.8,6.6c0.5,0,1.2,0,1.7-0.1v0.2l1.4-0.3c6-1.6,10.4-6.6,11.3-12.7l0.1-0.3l-0.2-0.3l-7.5-13.7l-0.6-1.1l-1,0.7
				c-2.3,1.8-4.9,3.1-7.8,3.8C206.8,162,205.4,162.2,203.9,162.2 M218.5,209c-0.3,0-0.6,0-1-0.1c-1.2-0.3-2-1.3-2.2-2.5l-3.1-13.3
				l-0.2-0.9h-0.9c-0.1,0-0.2,0-0.4,0c-0.1,0-0.3,0-0.4,0c-2.9,0-5.6-0.6-8.2-1.8l-2-0.9l0.5,2.1l19.3,82.5l0.2,0.7l0.7,0.1
				c3.2,0.4,6.4,1.3,9.4,2.3l1.8,0.6l-0.5-1.8l-11.3-48.4c-0.4-1.8,0.7-3.5,2.5-3.9c0.2-0.1,0.5-0.1,0.7-0.1c1.5,0,2.9,1.1,3.2,2.5
				l12.6,53.7l0.6,2.9l1.3-2.6c1.8-3.5,3.9-6.9,6.5-10l0.3-0.4l-0.1-0.5l-19.5-84.1l-0.5-2.1l-1.4,1.7c-1.9,2.3-4.5,4.3-7.3,5.6
				l-0.9,0.3l0.2,0.9l3.1,13.3c0.3,1.2-0.1,2.5-1,3.2C220.2,208.7,219.3,209,218.5,209 M358.5,240.5c2.8,0,5.6-0.6,8.1-1.8l0.3-0.2
				l0.2-0.4c3.2-7.5,7.5-14.5,12.6-20.8l0.3-0.4l-0.1-0.5L375,195l-0.7-3.2l-1.3,3.1l-6.5,15.8c-0.5,1.3-1.7,2-3.1,2
				c-0.4,0-0.9-0.1-1.3-0.2c-1.7-0.7-2.6-2.7-1.8-4.4l6.5-15.8l1.3-3.1l-2.8,1.8l-18.6,11.6l-0.4,0.3v0.5
				c-0.9,8.1-2.8,16.1-5.9,23.7l-0.1,0.4l0.1,0.4c1.8,5,5.8,9.1,10.7,11.1C353.5,240,355.9,240.5,358.5,240.5 M292.3,222.1
				c2.2,0,4.5-0.1,6.7-0.2l1-0.1v-1c0.1-5,0.2-9.1,0-12.8v-1l-1-0.1l-22.1-1.4l0,0l0,0h-1l-0.1,1c-0.6,4.5-1.2,8.6-1.6,12.8
				l-0.1,1.1l1.1,0.1c0.2,0,0.5,0.1,0.7,0.1c0.3,0,0.6,0.1,0.9,0.1C281.9,221.6,287.1,222.1,292.3,222.1 M165,316.4l0.7-3.2
				c3.6-15.2,13.8-27.5,28-34.1l1-0.4l-0.4-1l-3.5-8.6l-0.4-1l-1,0.4l-16.3,6.7c-0.4,0.2-0.9,0.2-1.3,0.2c-1.6,0-3-1.2-3.3-2.7
				c-0.3-1.6,0.5-3.1,2-3.7l16.3-6.7l1-0.4l-0.4-1l-3.4-8.1l-0.4-1l-1,0.4l-8.1,3.4c-0.4,0.2-0.9,0.2-1.3,0.2c-1.6,0-3-1.2-3.3-2.7
				c-0.3-1.6,0.5-3.1,2-3.7l8.1-3.4l1-0.4l-0.4-1l-3.4-8.1l-0.4-1l-1,0.4l-16.3,6.7c-0.4,0.2-0.9,0.2-1.3,0.2c-1.6,0-3-1.2-3.3-2.7
				c-0.3-1.6,0.5-3.1,2-3.7l16.3-6.7l1-0.4l-0.4-1l-3.4-8.1l-0.4-1l-1,0.4l-36.7,15.2l-1,0.4l0.4,1l31.9,77.1L165,316.4
				 M272.8,252.1l1.4-0.5c6.2-2.1,12.6-3.3,19.2-3.3c0.7,0,1.4,0,2.1,0.1c0.3,0,0.7,0,1.1,0.1h1l0.1-1c0.9-6.6,1.5-12.4,1.9-17.8
				l0.1-1.3l-1.3,0.1c-1.7,0.1-3.7,0.3-5.6,0.3c-5.7-0.1-11.4-0.5-17.1-1.5l-1.3-0.2h-0.1h-0.1h-1l-0.1,1
				c-0.5,7.4-0.7,14.9-0.5,22.3L272.8,252.1 M347.6,284.9l1-2.2l14.1-33.9l0.7-1.7l-1.8,0.2c-0.9,0.1-1.7,0.1-2.6,0.1
				c-3.6,0-7-0.7-10.4-2.2c-4.1-1.6-7.8-4.3-10.6-7.7l-1.2-1.4l-0.6,1.6l-8.5,20.6l-0.3,0.7l0.6,0.5c8,6,14.4,13.9,18.6,22.9
				L347.6,284.9 M241.8,290.6c-0.7,0-1.4-0.2-2-0.6c-7.5-5.7-16.4-8.6-25.7-8.6c-6.5,0-13,1.5-18.8,4.4c-14.5,7-23.8,21.6-24.1,37.8
				c0,1.1-0.5,2-1.4,2.7c-0.5,0.4-1.3,0.6-1.9,0.6c-0.3,0-0.6,0-1-0.1c-2.6-0.7-5.1-1.2-7.8-1.2H159c-15.2,0-27.5,12.4-27.5,27.5
				s12.4,27.5,27.5,27.5h194c15.2,0,27.5-12.4,27.5-27.5s-12.4-27.5-27.5-27.5c-2,0-4.1,0.2-6.1,0.6c-0.2,0-0.4,0.1-0.7,0.1
				c-1,0-1.8-0.4-2.5-1.1c-0.9-0.9-1.1-2.1-0.7-3.2c1.5-4.9,2.2-10,2.2-15.2c0-25.1-17.8-46.4-42.5-50.9c-3.1-0.5-6.2-0.9-9.3-0.9
				c-21.5,0-40.9,13.4-48.5,33.6c-0.3,1-1.2,1.7-2.1,2C242.5,290.6,242.1,290.6,241.8,290.6 M288.9,123.7c-0.9,0-1.7,0.2-2.5,0.7
				c-1.6,1.1-2.3,3-1.8,4.8c2.2,8.5,0.3,17.5-16.4,36c-7.6,7.3-9.9,18.4-6.1,28.1c1.5,3.7,3.6,7.2,6.3,10.1
				c-1.1,6.8-1.9,13.2-2.5,19.5c-1,10.4-1.3,20.8-0.7,31.3c-3.9,2.1-7.6,4.7-11,7.7l-21.3-91.4c0-0.1-0.1-0.1-0.1-0.2
				c-0.1-0.3-0.2-0.5-0.3-0.9l-21.9-40.3c-1.8-3.3-5.2-5.3-9-5.3c-0.7,0-1.6,0.1-2.3,0.3c-4.5,1.1-7.7,4.9-7.9,9.5l-1.7,45.8
				c0,0.3,0,0.6,0.1,1c0,0.1,0,0.1,0,0.2l21.8,93.1c-3.4,0.1-6.8,0.6-10.1,1.5l-24-58c-1.5-3.3-4.7-5.3-8.2-5.3
				c-1.1,0-2.2,0.2-3.3,0.6l-36.6,15.2c-4.5,1.9-6.6,7-4.8,11.5l32.6,78.5c-19.1,1-33.8,17-33.4,36.1c0.4,19.1,16.1,34.3,35.2,34.4
				h194c12.6-0.2,24.1-7,30.3-18c6.2-11,6-24.4-0.5-35.2c-6.4-10.7-17.8-17.2-30.3-17.2c-0.2,0-0.3,0-0.5,0
				c1.4-7.5,1.4-15.1-0.1-22.5l20.2-48.7v-0.1c3.3-9,8.1-17.3,14.2-24.6c1.5-1.6,2.1-3.8,1.6-6l-8.3-35.8c-0.1-0.4-0.2-0.7-0.4-1.1
				c0-0.1,0-0.1-0.1-0.2c0-0.1-0.2-0.2-0.3-0.3c-0.2-0.2-0.4-0.5-0.6-0.7c-0.1-0.1-0.3-0.2-0.5-0.3s-0.4-0.3-0.6-0.4
				c-0.3-0.1-0.6-0.2-1.1-0.2c-0.1,0-0.2-0.1-0.3-0.1c-0.1,0-0.2,0-0.3,0c-0.7,0-1.5,0.2-2.1,0.5c-0.1,0-0.1,0-0.2,0.1l0,0
				l-31.2,19.4c-1.9,1.2-3.1,3.2-3.1,5.4c-0.9,9.5-3.4,18.8-7.4,27.4l0,0L320.7,254c-4.9-2.7-10.2-4.6-15.7-5.7
				c2-14.3,2.9-28.8,2.2-43.3c8.2-9.8,12.2-22.5,10.9-35.3c-2.8-25.7-25.9-44.2-27-45C290.8,124.1,289.9,123.7,288.9,123.7
				L288.9,123.7z M203.6,154.4c-1.4,0-2.8-0.2-4.1-0.5l0.7-19.9c0-0.6,0.4-1.2,1.1-1.3c0.1,0,0.2,0,0.3,0c0.5,0,1,0.3,1.2,0.7
				l9.5,17.5c-1.7,1.5-3.7,2.7-6,3.3C205.4,154.4,204.6,154.4,203.6,154.4L203.6,154.4z M301,199.4c-8.8-0.5-17.3-1.1-25.8-1.6
				c-3.6-3.4-5.8-8.2-5.9-13.2s1.9-9.8,5.4-13.3l0,0c11.7-12.9,17.7-22.8,19.2-32.1c8.4,8.6,14,19.6,15.9,31.6
				C310.8,181.1,307.6,191.3,301,199.4L301,199.4z M203.9,163.2c1.5,0,3-0.2,4.4-0.5c3-0.7,5.8-2.1,8.2-4.1l7.5,13.7
				c-0.9,5.7-5,10.4-10.6,11.8l0,0c-1,0.2-1.8,0.3-2.8,0.3c-4.7,0-9.2-2.2-12-6.2l0.5-15.5C200.7,163,202.3,163.2,203.9,163.2
				L203.9,163.2L203.9,163.2z M218.5,210.1c1.1,0,2.2-0.4,3-1.2c1.2-1.1,1.6-2.8,1.3-4.3l-3.1-13.3c3-1.3,5.7-3.3,7.7-5.9l19.6,84.1
				c-2.6,3.2-4.8,6.6-6.6,10.2l-12.6-53.7c-0.5-2-2.3-3.3-4.3-3.3c-0.3,0-0.6,0-1,0.1c-2.3,0.5-3.8,2.9-3.3,5.2l11.3,48.4
				c-3.1-1.1-6.3-1.9-9.6-2.3l-19.3-82.5c2.7,1.3,5.7,1.9,8.6,1.9c0.3,0,0.5,0,0.9,0l3.1,13.3c0.3,1.6,1.5,2.8,3,3.3
				C217.6,210.1,218,210.1,218.5,210.1L218.5,210.1z M358.5,239.5c-2.3,0-4.7-0.4-6.9-1.4c-4.7-1.9-8.3-5.8-10-10.5
				c3.1-7.7,5.1-15.7,5.9-24l18.5-11.5l-6.5,15.8c-1,2.2,0.1,4.8,2.3,5.8c0.5,0.2,1.2,0.3,1.7,0.3c1.7,0,3.4-1.1,4.1-2.7l6.5-15.8
				l4.9,21.2c-5.2,6.4-9.5,13.4-12.8,21.1C363.7,238.9,361.1,239.5,358.5,239.5L358.5,239.5z M292.3,221c-5.2,0-10.4-0.4-15.5-1.3
				c-0.5-0.1-1.1-0.1-1.6-0.2c0.4-4.2,1-8.3,1.6-12.8l0,0l22.1,1.4c0.1,4.2,0.1,8.3,0,12.7C296.8,221,294.6,221,292.3,221L292.3,221
				z M164.7,312.9l-31.9-77.1l36.7-15.2l3.4,8.1l-16.3,6.7c-1.9,0.9-3,2.9-2.6,4.9c0.4,2,2.2,3.5,4.3,3.5c0.5,0,1.2-0.1,1.7-0.3
				l16.3-6.7l3.4,8.1l-8.1,3.4c-1.9,0.9-3.1,2.9-2.7,4.9c0.4,2,2.2,3.5,4.3,3.5l0,0c0.5,0,1.2-0.1,1.7-0.3l8.1-3.4l3.4,8.1
				l-16.3,6.7c-1.9,0.9-3.1,2.9-2.7,4.9c0.4,2,2.2,3.5,4.3,3.5l0,0c0.5,0,1.2-0.1,1.7-0.3l16.3-6.7l3.5,8.6
				C178.8,284.7,168.4,297.6,164.7,312.9L164.7,312.9z M273.9,250.6c-0.2-7.5,0-14.8,0.5-22.2l0,0l1.3,0.2
				c5.7,0.9,11.4,1.4,17.2,1.5c1.8,0,3.7-0.1,5.7-0.3c-0.4,5.7-1.1,11.6-1.9,17.7c-1.1-0.1-2.1-0.2-3.2-0.2
				C286.8,247.2,280.1,248.3,273.9,250.6L273.9,250.6z M347.6,282.3c-4.2-9.3-10.7-17.3-18.9-23.4l8.5-20.6c2.9,3.5,6.7,6.3,11,8
				c3.4,1.5,7,2.2,10.8,2.2c0.9,0,1.8-0.1,2.7-0.2L347.6,282.3L347.6,282.3z M241.8,291.7c0.4,0,0.9-0.1,1.3-0.2
				c1.3-0.4,2.3-1.4,2.9-2.7c7.5-20.1,26.7-32.9,47.4-32.9c3,0,6.1,0.3,9.1,0.9c24.1,4.4,41.6,25.4,41.6,50c0,5-0.7,10-2.2,14.8
				c-0.4,1.5-0.1,3.1,1,4.3c0.9,1,2,1.4,3.2,1.4c0.3,0,0.6,0,1-0.1c1.9-0.4,3.9-0.6,5.9-0.6c14.6,0,26.5,11.8,26.5,26.5
				c0,14.6-11.8,26.5-26.5,26.5H159c-14.6,0-26.5-11.8-26.5-26.5c0-14.6,11.8-26.5,26.5-26.5h0.1c2.6,0,5,0.3,7.5,1.1
				c0.4,0.1,0.9,0.2,1.3,0.2c1,0,1.8-0.3,2.6-0.9c1.1-0.9,1.8-2.1,1.8-3.5c0.3-15.7,9.4-29.9,23.5-36.8c5.9-2.9,12.1-4.3,18.4-4.3
				c8.9,0,17.7,2.9,25.1,8.4C239.9,291.4,240.9,291.7,241.8,291.7L241.8,291.7z"/>
		</g>
		<g id="Shape_1_">
			<path class="st0" d="M294.2,192.5c-1.5,0-2.8-0.9-3.4-2.1s-0.5-2.9,0.3-4.1c3.9-5.3,5.6-12.2,4.5-18.8c-0.4-1.4,0-2.9,1-3.8
				c0.7-0.7,1.7-1.2,2.8-1.2c0.3,0,0.7,0,1.1,0.1c1.4,0.4,2.3,1.5,2.8,2.8c1.7,8.9-0.3,18.1-5.8,25.5c-0.6,0.9-1.7,1.5-2.9,1.5
				L294.2,192.5z"/>
			<path class="st1" d="M299.3,163c0.3,0,0.6,0,0.9,0.1c1.2,0.3,2,1.3,2.3,2.3c1.7,8.8-0.3,17.9-5.7,25.1c-0.5,0.7-1.5,1.3-2.5,1.3
				h-0.2c-1.3,0-2.5-0.7-3-1.8c-0.5-1.2-0.4-2.5,0.3-3.5c3.9-5.4,5.7-12.5,4.6-19.1v-0.1v-0.1c-0.3-1.2,0-2.5,0.9-3.3
				C297.5,163.3,298.4,163,299.3,163 M299.3,162c-1.2,0-2.3,0.4-3.1,1.3c-1.2,1.2-1.5,2.8-1.1,4.4c1.1,6.5-0.5,13-4.4,18.4
				c-1,1.4-1.2,3.1-0.4,4.6c0.7,1.5,2.2,2.5,3.9,2.5l0,0l0,0c1.4,0,2.7-0.6,3.5-1.7c5.6-7.5,7.6-16.9,5.9-25.9
				c-0.4-1.6-1.6-2.8-3.1-3.2C300.1,162,299.7,162,299.3,162L299.3,162z"/>
		</g>
		<g id="Shape_2_">
			<path class="st0" d="M237.3,356.8c-1.6,0-3-1-3.5-2.3c-5.1-12.2-0.4-26.2,11-32.7c3.9-2.2,8.3-3.4,12.8-3.4
				c8.2,0,16.1,3.9,20.9,10.7l0.2,0.3l0.4-0.2c2.9-1.4,6.1-2.1,9.2-2.1c8.3,0,16,4.9,19.5,12.5c0.4,1,0.4,2,0.1,3
				c-0.3,1-1.1,1.7-2,2.1c-0.5,0.2-1.1,0.3-1.6,0.3c-1.5,0-2.9-0.9-3.5-2.2c-2.2-4.8-7.2-8-12.5-8c-3.1,0-6.1,1.1-8.5,3
				c-0.1,0-0.2,0.1-0.3,0.2h-0.1h-0.1c-0.1,0.1-0.2,0.1-0.3,0.2c-0.1,0-0.1,0-0.2,0c-0.5,0.2-1.1,0.3-1.6,0.3c-0.2,0-0.4,0-0.6-0.1
				c-0.2-0.1-0.5-0.1-0.7-0.2s-0.4-0.2-0.5-0.3c-0.2-0.2-0.4-0.3-0.6-0.5c-0.1-0.1-0.1-0.1-0.2-0.2s-0.1-0.2-0.2-0.3v-0.1v-0.1
				c-0.1-0.1-0.2-0.2-0.3-0.3c-2.9-6.3-9.3-10.4-16.3-10.4c-10.1,0-18.3,8.1-18.3,18.1c0,2.6,0.5,5,1.5,7.3c0.4,1,0.4,2,0,3
				c-0.4,1-1.2,1.7-2,2.1C238.4,356.8,237.9,356.8,237.3,356.8L237.3,356.8z"/>
			<path class="st1" d="M257.6,319c8.1,0,15.7,3.8,20.5,10.4l0.5,0.7l0.9-0.4c2.8-1.4,5.9-2.1,9-2.1c8.1,0,15.6,4.8,19,12.2
				c0.3,0.9,0.4,1.7,0.1,2.6c-0.3,0.9-1,1.5-1.7,1.9c-0.4,0.2-0.9,0.3-1.4,0.3c-1.3,0-2.5-0.7-3.1-1.9c-2.3-5-7.4-8.3-12.9-8.3
				c-3.2,0-6.3,1.1-8.8,3.1c-0.1,0-0.2,0.1-0.3,0.1l-0.1,0.1l-0.1,0.1c-0.1,0-0.1,0.1-0.2,0.1h-0.1h-0.1h-0.1
				c-0.4,0.1-0.9,0.2-1.3,0.2c-0.2,0-0.4,0-0.5-0.1l0,0l0,0c-0.2,0-0.4-0.1-0.5-0.2c-0.2-0.1-0.3-0.2-0.5-0.3l0,0l0,0
				c-0.2-0.1-0.3-0.3-0.5-0.4c-0.1-0.1-0.1-0.1-0.2-0.2c0-0.1-0.1-0.1-0.1-0.2l-0.1-0.1l-0.1-0.1c-0.1-0.1-0.1-0.2-0.2-0.2
				c-3-6.5-9.6-10.7-16.8-10.7h-0.1c-10.4,0-18.7,8.4-18.7,18.7c0,2.6,0.5,5.1,1.5,7.5c0.3,0.9,0.3,1.7,0,2.6
				c-0.3,0.9-1,1.5-1.8,1.8c-0.4,0.2-0.9,0.2-1.3,0.2c-1.4,0-2.6-0.7-3.1-2c-5-11.8-0.4-25.6,10.8-32C248.9,320,253.2,319,257.6,319
				 M257.6,317.9c-4.5,0-9,1.1-13,3.4c-11.6,6.6-16.5,21-11.3,33.3c0.6,1.6,2.2,2.7,4.1,2.7l0,0l0,0c0.6,0,1.2-0.1,1.7-0.3
				c1.1-0.4,1.9-1.3,2.3-2.5c0.4-1.1,0.4-2.3,0-3.4c-1-2.2-1.5-4.7-1.5-7c0-9.7,7.9-17.6,17.6-17.6h0.1c6.8,0,13,3.9,15.8,10.1
				c0.1,0.1,0.2,0.3,0.3,0.4c0.1,0.1,0.1,0.3,0.2,0.4s0.2,0.1,0.3,0.2c0.2,0.2,0.4,0.4,0.6,0.5c0.2,0.2,0.4,0.3,0.7,0.4
				c0.2,0.1,0.5,0.2,0.7,0.2c0.3,0.1,0.5,0.1,0.9,0.1c0.5,0,1.2-0.1,1.7-0.3c0.1,0,0.2,0,0.3-0.1c0.1-0.1,0.3-0.2,0.4-0.3
				c0.1-0.1,0.3-0.1,0.4-0.2c2.3-1.9,5.2-2.9,8.2-2.9l0,0c5.1,0,9.8,3,12,7.7c0.7,1.6,2.3,2.6,4.1,2.6c0.6,0,1.3-0.1,1.8-0.4
				c2.2-1,3.2-3.6,2.1-5.9c-3.6-7.8-11.4-12.8-20-12.8c-3.3,0-6.5,0.7-9.5,2.2C273.9,321.6,265.7,317.9,257.6,317.9L257.6,317.9z"/>
		</g>
		<g id="Shape_3_">
			<path class="st0" d="M189.8,321.5c-2.1,0-3.8-1.7-3.8-3.8c0-16,15.7-21.2,15.9-21.3l0.3-0.1c0.3-0.1,0.5-0.1,0.9-0.1
				c1.7,0,3.1,1.1,3.6,2.7c0.3,1,0.2,2-0.2,3c-0.4,1-1.3,1.6-2.2,1.9c-6.1,2-10.2,7.6-10.6,13.9C193.7,319.8,192,321.5,189.8,321.5z
				"/>
			<path class="st1" d="M203.1,296.7c1.4,0,2.7,1,3.2,2.2c0.6,1.7-0.3,3.6-2.1,4.3c-6.3,2.1-10.6,7.8-11,14.4l0,0l0,0
				c0,1.8-1.5,3.3-3.3,3.3c-1.8,0-3.3-1.5-3.3-3.3c0-15.6,15.4-20.7,15.5-20.8l0.3-0.1C202.5,296.8,202.8,296.7,203.1,296.7
				 M203.1,295.6c-0.4,0-1,0.1-1.4,0.2l0,0c-0.6,0.2-16.2,5.6-16.2,21.8c0,2.5,1.9,4.4,4.4,4.4s4.4-1.9,4.4-4.4
				c0.3-6.2,4.4-11.4,10.2-13.4c2.3-0.7,3.5-3.3,2.8-5.6C206.6,296.8,204.9,295.6,203.1,295.6L203.1,295.6z"/>
		</g>
		<g id="Shape_4_">
			<path class="st0" d="M264.8,290.7c-0.3,0-0.6,0-1-0.1c-2-0.5-3.3-2.7-2.8-4.7c2.9-12,13.6-20.4,25.8-20.6c2.1,0,3.8,1.7,3.8,3.8
				c0,1.1-0.4,2-1.2,2.8s-1.7,1.2-2.8,1.2c-8.8,0.2-16.2,6.3-18.3,14.7C268.1,289.5,266.5,290.7,264.8,290.7L264.8,290.7z"/>
			<path class="st1" d="M286.8,264.9v1.1c1.8,0,3.3,1.5,3.3,3.3c0,0.9-0.3,1.7-1,2.3c-0.6,0.6-1.5,1-2.3,1
				c-9,0.2-16.7,6.4-18.8,15.1c-0.3,1.5-1.7,2.6-3.2,2.6c-0.3,0-0.5,0-0.7-0.1c-1.8-0.4-2.9-2.2-2.5-4.1c2.9-11.7,13.2-20,25.3-20.2
				L286.8,264.9 M286.8,264.9L286.8,264.9c-12.5,0.2-23.4,8.8-26.4,20.9c-0.6,2.3,0.9,4.8,3.2,5.3c0.3,0.1,0.7,0.1,1.1,0.1l0,0
				c2,0,3.7-1.4,4.3-3.3c2-8.2,9.3-14.1,17.8-14.3c2.5,0,4.4-2,4.4-4.4C291.1,266.8,289.2,264.9,286.8,264.9L286.8,264.9z"/>
		</g>
	</g>
</g>
<g>
	<path class="st0" d="M257,11c33.2,0,65.4,6.5,95.8,19.3C382.1,42.7,408.4,60.4,431,83s40.3,48.9,52.7,78.2
		c12.8,30.3,19.3,62.5,19.3,95.8s-6.5,65.4-19.3,95.8c-12.4,29.3-30.1,55.6-52.7,78.2s-48.9,40.3-78.2,52.7
		C322.4,496.5,290.2,503,257,503s-65.4-6.5-95.8-19.3c-29.3-12.4-55.6-30.1-78.2-52.7s-40.3-49-52.7-78.2
		C17.5,322.4,11,290.2,11,257s6.5-65.4,19.3-95.8C42.7,131.9,60.4,105.6,83,83s48.9-40.3,78.2-52.7C191.6,17.5,223.8,11,257,11
		 M257,1C115.6,1,1,115.6,1,257s114.6,256,256,256s256-114.6,256-256S398.4,1,257,1L257,1z"/>
</g>
</svg>
