<?xml version="1.0" encoding="utf-8"?>
<!-- Generator: Adobe Illustrator 19.2.0, SVG Export Plug-In . SVG Version: 6.00 Build 0)  -->
<svg version="1.1" id="Layer_1" xmlns="http://www.w3.org/2000/svg" xmlns:xlink="http://www.w3.org/1999/xlink" x="0px" y="0px"
	 viewBox="0 0 50 40" style="enable-background:new 0 0 50 40;" xml:space="preserve">
<style type="text/css">
	.st0{fill:#FFFFFF;}
</style>
<g>
	<polygon class="st0" points="20.4,8.6 20.4,17.1 21.5,17.1 21.5,9.9 38.8,9.9 38.8,24 26.6,24 26.6,25.1 40,25.1 40,8.6 	"/>
	<g>
		<path class="st0" d="M24.8,19.1c-0.1,0-0.1-0.1-0.3-0.1h-2.4c-0.3,0-0.5,0.2-0.6,0.4l-0.7,1.8v-0.1c-0.5-1.3-1.7-2.1-3-2.1l0,0
			c0.4-0.6,0.6-1.2,0.6-1.9v-1.3c0-1.7-1.3-3-3-3s-3,1.4-3,3.1v1.3c0,0.7,0.3,1.3,0.6,1.9l0,0c-1.7,0-3,1.3-3,3v7.3
			c0,0.3,0.3,0.6,0.6,0.6h1.9v1.3h1.3v-2.6h3.7v2.6h1.3v-6.7l0.2,0.3c0.6,1.3,2.1,1.7,3.3,1.1c0.6-0.3,1-0.8,1.3-1.3l1-2.4l1-2.4
			C25.2,19.5,25.1,19.2,24.8,19.1z M13.6,16c0-1,0.8-1.9,1.9-1.9s1.9,0.8,1.9,1.9v1.3c0,1-0.8,1.9-1.9,1.9s-1.9-0.8-1.9-1.9V16z
			 M12.4,28.8h-1.3v-1.2h1.3V28.8z M16.1,20.3h1.9c0.8,0,1.6,0.6,1.9,1.3l0.6,1.7c0.1,0.3,0.5,0.5,0.8,0.3c0.2-0.1,0.3-0.2,0.3-0.3
			l0.2-0.5h1L22,24.3c-0.3,0.7-1,1-1.7,0.8c-0.3-0.1-0.6-0.3-0.7-0.6l-1.3-2.6c-0.1-0.3-0.5-0.4-0.8-0.3c-0.2,0.1-0.3,0.3-0.3,0.6
			v5.5h-3.7v-5.5c0-0.3-0.3-0.6-0.6-0.6c-0.3,0-0.6,0.3-0.6,0.6v4.2h-1.3v-4.2c0-1,0.8-1.9,1.9-1.9h1.9 M23.2,21.4h-1l0.4-1.3h1.1
			L23.2,21.4z"/>
		<rect x="14.8" y="30" class="st0" width="1.3" height="1.3"/>
	</g>
</g>
</svg>
