<?xml version="1.0" encoding="utf-8"?>
<!-- Generator: Adobe Illustrator 19.2.0, SVG Export Plug-In . SVG Version: 6.00 Build 0)  -->
<svg version="1.1" id="Layer_1" xmlns="http://www.w3.org/2000/svg" xmlns:xlink="http://www.w3.org/1999/xlink" x="0px" y="0px"
	 viewBox="0 0 512 512" style="enable-background:new 0 0 512 512;" xml:space="preserve">
<path d="M411.6,164.4c4.2,0,7.6-3.4,7.6-7.6v-17.9c0-4.2-3.4-7.6-7.6-7.6h-49.8l15.4-15.4c1.9-1.9,1.9-4.9,0-6.8s-4.9-1.9-6.8,0
	l-6.5,6.5v-12.4c0-2.6-2.1-4.8-4.8-4.8c-2.6,0-4.8,2.1-4.8,4.8v21.9l-6.1,6.1H313c-0.5-1.2-1-2.4-1.6-3.6
	c-5.5-11.4-15-20.2-26.7-24.8c-2-0.8-4.3-0.7-6.3,0.2c-2,1-3.5,2.7-4.1,4.8c-0.8,2.7-0.1,5.6,1.8,7.7c4.4,4.5,7.5,10,9.4,15.8h-38.4
	c-11.8-17.1-33.5-25.1-53.8-19.4l-1.4,0.4c-3.3,0.9-5.2,4.4-4.3,7.7l3.2,11.4H175c-2.6,0-4.8,2.1-4.8,4.8c0,2.6,2.1,4.8,4.8,4.8h22
	l0,0h47.4c0,0,0,0,0.1,0c0,0,0,0,0.1,0h42.8c0.4,4.7-0.1,9.4-1.4,14.1H102.3V141h50.3c2.6,0,4.8-2.1,4.8-4.8c0-2.6-2.1-4.8-4.8-4.8
	h-52.2c-4.2,0-7.6,3.4-7.6,7.6v17.9c0,4.2,3.4,7.6,7.6,7.6h27.8l5,5c-11,5.7-18.8,22.3-18.8,42.5c0,25,12,44.6,27.3,44.6
	c13.5,0,24.5-15,26.9-36.2c7.4,2,13.9,0.8,18.1-3.4c8.1-8.1,4.4-24.6-8.5-37.5c-10.6-10.6-23.6-15.2-32.5-11.7
	c-0.3-0.1-0.5-0.1-0.8-0.2l-3.2-3.2h58.5c0,0,13.3,47.6,13.5,48.5c-11.3,12.2-29.1,36.8-33.6,74.5c-4.5,37.6-17.1,57.6-38.7,81.4
	c-4.4,4.8-6.7,11.1-6.3,17.6c0.3,6.5,3.1,12.5,8,16.9c4.5,4.1,10.4,6.4,16.5,6.4l0,0c6.9,0,13.5-2.9,18.1-8
	c21.6-23.7,37.4-46.6,45.9-80.3c0.3,0.2,0.7,0.3,1.1,0.4c4.1,1.2,6.9-2.7,7.8-4c1.2-1.6,2.4-3.8,3.6-5.8c0.2-0.3,0.3-0.6,0.5-0.9
	c0.1,0.3,0.1,0.5,0.2,0.8c1.7,7.2,3,12.9,8.2,13h0.1c5,0,6.4-5.2,8.4-12.4c0.1-0.3,0.2-0.6,0.3-1c0.2,0.3,0.3,0.6,0.5,0.9
	c3.4,6.7,5.9,11.6,10.9,10.4c5.1-1.1,5.2-7,5.4-14.4c0-0.2,0-0.5,0-0.8c0.3,0.3,0.5,0.6,0.7,0.8c1.6,1.8,3.2,3.6,4.7,5
	c1.1,1,4.2,3.9,7.7,2.7c6.7,7.6,14.5,15.1,23.7,22.7c26.7,22,29.3,47.4,29.4,48.4c0,0.5,0.2,1,0.4,1.4c2.4,8.1,10.1,20.9,24.8,20.9
	c1.4,0,2.8-0.1,4.4-0.4c16.3-2.6,19.7-17.9,19.2-25.6c-0.1-1-0.8-10.2-5.3-23.2c-0.9-2.5-3.6-3.8-6.1-3c-2.5,0.9-3.8,3.6-3,6.1
	c4.2,12.1,4.8,20.4,4.8,20.7c0.1,1.4,0.4,13.7-11.2,15.6c-5.9,0.9-10.6-0.9-14.3-5.8c-2.7-3.5-4-7.4-4.3-8.4
	c-0.6-4.9-5.3-31.5-32.7-54.2C278,302.1,264,274,254.2,238.9c-0.1-0.4-0.7-2.7-0.9-3.4c4.4-1.1,8.4-3.1,11.9-5.8l16.1,4.7
	c0.9,0.3,1.9,0.4,2.8,0.5c8.3,28.2,19.5,49.7,48.4,73.6c12.7,10.5,22.9,22.8,30.6,36.6c0.9,1.6,2.5,2.5,4.2,2.5
	c0.8,0,1.6-0.2,2.3-0.6c2.3-1.3,3.2-4.2,1.9-6.5c-8.2-14.9-19.2-28.1-32.8-39.3c-27.3-22.6-37.8-42.9-45.6-69.7
	c1.4-1.4,2.4-3.1,2.9-5l18.5-61.9h42.1l9.9,9.9c-4.6,8.8-0.3,22.8,11,34.1c8.3,8.3,18,12.8,26.1,12.8c4.5,0,8.4-1.4,11.3-4.3
	c8.1-8.1,4.4-24.6-8.5-37.5c-10.8-10.8-24-15.1-32.8-11.6l-3.5-3.5L411.6,164.4L411.6,164.4z M197.9,120.6
	c13.4-3.1,27.4,1.2,37,10.7h-34L197.9,120.6z M171.4,186.2c9.3,9.3,12.2,20.3,8.5,24c-2,2-6.3,2-11.2,0.1c-2.1-0.8-4.4-0.6-6.2,0.6
	c-1.8,1.2-3,3.2-3.2,5.4c-1.1,16.9-9,30.6-17.6,30.6c-8.4,0-17.8-14.4-17.8-35c0-16.8,6.2-29.4,13-33.6V195c0,2.6,2.1,4.8,4.8,4.8
	c2.6,0,4.8-2.1,4.8-4.8v-12.3l6.5,6.5c0.9,0.9,2.2,1.4,3.4,1.4s2.4-0.5,3.4-1.4c1.9-1.9,1.9-4.9,0-6.8l-6.2-6.2
	C158.5,176.8,165.2,180.1,171.4,186.2z M399.6,186.2c9.3,9.3,12.2,20.3,8.5,24c-3.6,3.6-14.7,0.8-24-8.5c-6.8-6.8-10.2-14.6-10-19.6
	l7.2,7.2c2.3,1.9,4.5,1.9,6.8,0c1.9-1.9,1.9-4.9,0-6.8l-6.2-6.2C386.9,176.9,393.6,180.2,399.6,186.2z M409.7,140.8v14.1h-93.3
	c0.5-4.7,0.3-9.4-0.5-14.1H409.7z M245.2,227c-10,0-18.5-6.3-21.8-15.2c-0.9-2.6-1.5-5.4-1.5-8.1c0-12.8,10.4-23.2,23.2-23.2
	s23.2,10.4,23.2,23.2C268.5,216.5,258.1,227,245.2,227z M265.4,177.9c-0.9-0.7-1.9-1.4-2.9-2l-3.2-11.4h22.6
	C277.9,170.5,272.2,175.2,265.4,177.9z M249.3,164.4l2,7.1c-2-0.4-4-0.6-6.1-0.6c-12.2,0-22.9,6.7-28.6,16.7l-6.5-23.2H249.3z
	 M170.6,395.3c-2.8,3.1-6.8,4.9-11,4.9c-3.7,0-7.3-1.4-10-3.9c-2.9-2.7-4.7-6.4-4.9-10.3c-0.2-4,1.2-7.8,3.9-10.7
	c23-25.3,36.3-46.6,41.1-86.7c3.9-32.3,18.2-54.2,28.6-66.3c5.6,8.2,14.9,13.7,25.4,14.2c0.1,0.2,0.1,0.5,0.2,0.7
	c0.1,0.3,0.2,0.6,0.3,1c-6.9,6.9-21.2,24.4-24.8,54C213.6,339.7,196.4,366.9,170.6,395.3z M265.7,294.3c-3.7,1.3-4.3,5-4.6,10.5
	c-2.6-4.8-4.9-7.9-8.7-7.5c-3.9,0.4-5.5,3.9-7.1,9.1c-1.3-5.4-2.7-8.8-6.6-9.4c-3.7-0.5-6.1,2.3-8.8,6.7c0.1-3.7-0.1-6.5-1.4-8.4
	c0.1-0.7,0.2-1.4,0.3-2.1c2.7-22.2,11.9-36.6,18.4-44.4c4.9,16.2,11,30.9,19.9,45.1C266.6,294.1,266.2,294.2,265.7,294.3z
	 M294.7,196.9l-2.1-0.6c-2.5-0.7-5.2,0.7-5.9,3.2c-0.7,2.5,0.7,5.2,3.2,5.9l2,0.6l-2.5,8.7v0.1l-2.6,8.9c-0.2,0.8-0.8,1.2-1.1,1.4
	c0,0-0.1,0-0.1,0.1l0,0c-0.3,0.2-0.9,0.3-1.6,0.1l-11.4-3.3c3.5-5.2,5.5-11.5,5.5-18.2c0-6.9-2.1-13.2-5.7-18.5
	c9.9-4.9,17.7-13.3,21.7-23.7c0.4-1,0.8-2.1,1.1-3.1c1.9-6.3,2.2-15.8,1.3-23.6c-0.8-7-4-13.6-8-19.5c15.2,9.7,22.4,28.3,17,46.2
	L294.7,196.9z"/>
<path d="M245.2,187.7c-8.8,0-16,7.2-16,16s7.2,16,16,16s16-7.2,16-16S254.1,187.7,245.2,187.7z M245.2,210.2c-3.5,0-6.4-2.9-6.4-6.4
	s2.9-6.4,6.4-6.4s6.4,2.9,6.4,6.4S248.8,210.2,245.2,210.2z"/>
<g>
	<path d="M256,10c33.2,0,65.4,6.5,95.8,19.3C381.1,41.7,407.4,59.4,430,82s40.3,48.9,52.7,78.2c12.8,30.3,19.3,62.5,19.3,95.8
		s-6.5,65.4-19.3,95.8c-12.4,29.3-30.1,55.6-52.7,78.2s-48.9,40.3-78.2,52.7C321.4,495.5,289.2,502,256,502s-65.4-6.5-95.8-19.3
		c-29.3-12.4-55.6-30.1-78.2-52.7s-40.3-49-52.7-78.2C16.5,321.4,10,289.2,10,256s6.5-65.4,19.3-95.8C41.7,130.9,59.4,104.6,82,82
		s48.9-40.3,78.2-52.7C190.6,16.5,222.8,10,256,10 M256,0C114.6,0,0,114.6,0,256s114.6,256,256,256s256-114.6,256-256S397.4,0,256,0
		L256,0z"/>
</g>
</svg>
