<?xml version="1.0" encoding="utf-8"?>
<!-- Generator: Adobe Illustrator 19.2.0, SVG Export Plug-In . SVG Version: 6.00 Build 0)  -->
<svg version="1.1" id="Layer_1" xmlns="http://www.w3.org/2000/svg" xmlns:xlink="http://www.w3.org/1999/xlink" x="0px" y="0px"
	 viewBox="0 0 511 511" style="enable-background:new 0 0 511 511;" xml:space="preserve">
<path d="M344.2,210.7c7.6-7.6,7.6-20,0-27.6l-72-72c-3.7-3.7-8.6-5.7-13.8-5.7c-5.2,0-10.1,2-13.8,5.7c-2.6,2.6-4.3,5.8-5.1,9.1
	c-0.8,0.2-1.6,0.5-2.3,1l-21.3,15.1l-18.7-18.7c-11-11-28.9-11-39.9,0L118.9,156c-11,11-11,28.9,0,39.9l5.4,5.4l-11.1,7.8
	c-8.9,6.3-14.6,16.2-15.5,27.1c-0.9,10.9,3,21.6,10.7,29.3l22.2,22.2c2.4,2.4,6.3,2.4,8.7,0s2.4-6.3,0-8.7l-22.2-22.2
	c-5.2-5.2-7.8-12.3-7.1-19.5c0.6-7.3,4.4-13.8,10.3-18.1l92.4-65.6l43.4,43.4c1.2,1.2,2.8,1.8,4.4,1.8s3.2-0.6,4.4-1.8
	c2.4-2.4,2.4-6.3,0-8.7L223,146.4l17.1-12.1l79,79l-85,119.7c-4.2,5.9-10.8,9.7-18.1,10.3c-7.3,0.6-14.4-2-19.5-7.1L174.3,314
	c-2.4-2.4-6.3-2.4-8.7,0s-2.4,6.3,0,8.7l22.2,22.2c7,7,16.4,10.8,26.2,10.8c1,0,2.1,0,3.1-0.1c10.9-0.9,20.8-6.6,27.1-15.5l5.5-7.7
	l62.1-13.1l9.9,9.9c2.9,2.9,7.3,3.8,11.2,2.2s6.3-5.3,6.3-9.5v-48.4c0-4.2-2.5-7.9-6.3-9.5s-8.2-0.7-11.2,2.2l-11,11h-21.9
	l43.2-60.9C336.5,215.9,340.8,214,344.2,210.7z M127.6,187.2c-6.2-6.2-6.2-16.2,0-22.4l38.4-38.4c6.2-6.2,16.2-6.2,22.4,0l17.2,17.2
	l-8,5.7l-16-16c-2.4-2.4-6.3-2.4-8.7,0l-38.4,38.4c-1.2,1.2-1.8,2.7-1.8,4.4s0.7,3.2,1.8,4.4l8,8l-8,5.7L127.6,187.2z M152.7,181.1
	l-5.1-5.1l29.7-29.7l10.2,10.2L152.7,181.1z M313.2,289.5c1.6,0,3.2-0.7,4.4-1.8l9.2-9.2v38.4l-8.7-8.7c-1.5-1.5-3.6-2.1-5.6-1.7
	l-52.3,11l19.9-28L313.2,289.5L313.2,289.5z M253.3,119.8c1.4-1.4,3.2-2.1,5.1-2.1s3.7,0.7,5.1,2.1l72,72c2.8,2.8,2.8,7.4,0,10.2
	s-7.4,2.8-10.2,0l-72-72C250.5,127.2,250.5,122.6,253.3,119.8z"/>
<path d="M152.5,294.7c-1.6,0-3.2,0.7-4.4,1.8c-1.1,1.1-1.8,2.7-1.8,4.4c0,1.6,0.7,3.2,1.8,4.4c1.1,1.1,2.7,1.8,4.4,1.8
	c1.6,0,3.2-0.7,4.4-1.8c1.1-1.1,1.8-2.7,1.8-4.4c0-1.6-0.7-3.2-1.8-4.4C155.7,295.3,154.1,294.7,152.5,294.7z"/>
<path d="M350,307.7l0.3,0.1c0.8,0.3,1.6,0.5,2.4,0.5c2.4,0,4.7-1.4,5.7-3.7c1.3-3.1-0.1-6.8-3.2-8.1l-0.3-0.1
	c-3.1-1.3-6.8,0.1-8.1,3.3C345.4,302.7,346.9,306.3,350,307.7z"/>
<path d="M379.4,316.6c-0.1-0.2-0.3-0.4-0.4-0.6c-1.9-2.8-5.8-3.5-8.6-1.6c-2.8,1.9-3.5,5.8-1.6,8.6c0.1,0.2,0.2,0.3,0.3,0.5
	c1.2,1.8,3.1,2.7,5.1,2.7c1.2,0,2.4-0.3,3.4-1C380.5,323.3,381.2,319.4,379.4,316.6z"/>
<path d="M382.5,352.9L382.5,352.9c3.5,0,6.2-2.8,6.2-6.2c0-0.3,0-0.5,0-0.8c-0.1-3.4-2.9-6.1-6.3-6s-6.1,2.9-6,6.3
	c0,0.2,0,0.4,0,0.6C376.4,350.2,379.2,352.9,382.5,352.9z"/>
<path d="M382.5,368.3c-3.4,0-6.2,2.8-6.2,6.2v0.3c0,3.4,2.8,6.2,6.2,6.2c3.4,0,6.2-2.8,6.2-6.2v-0.3
	C388.7,371.1,385.9,368.3,382.5,368.3z"/>
<path d="M356.7,340.7c2.8-2,3.4-5.9,1.4-8.6l-0.2-0.3c-2-2.7-5.9-3.3-8.6-1.3s-3.3,5.9-1.3,8.6l0.2,0.2c1.2,1.7,3.1,2.5,5,2.5
	C354.3,341.9,355.6,341.5,356.7,340.7z"/>
<path d="M357.8,371.3c-3.4,0-6.2,2.8-6.2,6.2v0.5c0,3.4,2.8,6.2,6.2,6.2c3.4,0,6.2-2.8,6.2-6.2v-0.5
	C363.9,374.1,361.2,371.3,357.8,371.3z"/>
<path d="M357.8,349.7c-3.4,0-6.2,2.8-6.2,6.2v0.5c0,3.4,2.8,6.2,6.2,6.2c3.4,0,6.2-2.8,6.2-6.2v-0.5
	C363.9,352.4,361.2,349.7,357.8,349.7z"/>
<path d="M357.8,393c-3.4,0-6.2,2.8-6.2,6.2v0.3c0,3.4,2.8,6.2,6.2,6.2c3.4,0,6.2-2.8,6.2-6.2v-0.3C363.9,395.7,361.2,393,357.8,393z
	"/>
<path d="M351.2,281.2l0.3,0.1c0.6,0.2,1.1,0.2,1.7,0.2c2.7,0,5.2-1.8,5.9-4.5c0.9-3.3-1-6.7-4.3-7.6l-0.3-0.1
	c-3.3-0.9-6.7,1-7.6,4.3C346,276.9,348,280.3,351.2,281.2z"/>
<path d="M372,290.9l0.5,0.3c1.1,0.8,2.3,1.1,3.6,1.1c1.9,0,3.8-0.9,5-2.6c2-2.8,1.3-6.6-1.5-8.6l-0.5-0.4c-2.8-2-6.6-1.3-8.6,1.5
	C368.5,285.1,369.2,289,372,290.9z"/>
<path d="M398.9,300.6l-0.4-0.5c-2-2.8-5.8-3.4-8.6-1.4c-2.8,2-3.4,5.8-1.4,8.6l0.3,0.5c1.2,1.7,3.1,2.6,5.1,2.6
	c1.2,0,2.5-0.4,3.5-1.1C400.2,307.3,400.8,303.4,398.9,300.6z"/>
<path d="M406.2,333c3.3-0.9,5.2-4.3,4.3-7.6c-0.1-0.2-0.1-0.4-0.2-0.7c-0.9-3.3-4.3-5.2-7.6-4.3c-3.3,0.9-5.2,4.3-4.3,7.6l0.1,0.5
	c0.7,2.7,3.2,4.5,5.9,4.5C405.1,333.2,405.7,333.2,406.2,333z"/>
<path d="M407.2,345.5c-3.4,0-6.2,2.8-6.2,6.2v0.3c0,3.4,2.8,6.2,6.2,6.2s6.2-2.8,6.2-6.2v-0.3C413.4,348.3,410.6,345.5,407.2,345.5z
	"/>
<g>
	<path d="M256,10c33.2,0,65.4,6.5,95.8,19.3C381.1,41.7,407.4,59.4,430,82s40.3,48.9,52.7,78.2c12.8,30.3,19.3,62.5,19.3,95.8
		s-6.5,65.4-19.3,95.8c-12.4,29.3-30.1,55.6-52.7,78.2s-48.9,40.3-78.2,52.7C321.4,495.5,289.2,502,256,502s-65.4-6.5-95.8-19.3
		c-29.3-12.4-55.6-30.1-78.2-52.7s-40.3-49-52.7-78.2C16.5,321.4,10,289.2,10,256s6.5-65.4,19.3-95.8C41.7,130.9,59.4,104.6,82,82
		s48.9-40.3,78.2-52.7C190.6,16.5,222.8,10,256,10 M256,0C114.6,0,0,114.6,0,256s114.6,256,256,256s256-114.6,256-256S397.4,0,256,0
		L256,0z"/>
</g>
<path d="M35,51"/>
</svg>
