<?xml version="1.0" encoding="utf-8"?>
<!-- Generator: Adobe Illustrator 19.2.0, SVG Export Plug-In . SVG Version: 6.00 Build 0)  -->
<svg version="1.1" id="Capa_1" xmlns="http://www.w3.org/2000/svg" xmlns:xlink="http://www.w3.org/1999/xlink" x="0px" y="0px"
	 viewBox="0 0 512 512" style="enable-background:new 0 0 512 512;" xml:space="preserve">
<g>
	<g>
		<path d="M345.9,129.1H166.1c-8.7,0-15.9,7.1-15.9,15.9v222c0,8.7,7.1,15.9,15.9,15.9h179.7c8.7,0,15.9-7.1,15.9-15.9V145
			C361.7,136.2,354.6,129.1,345.9,129.1z M351.2,367c0,2.9-2.4,5.3-5.3,5.3H166.1c-2.9,0-5.3-2.4-5.3-5.3v-26.4h11.5
			c2.2,6.1,8,10.6,14.9,10.6c8.7,0,15.9-7.1,15.9-15.9s-7.1-15.9-15.9-15.9c-6.9,0-12.7,4.4-14.9,10.6h-11.5v-42.3h11.5
			c2.2,6.1,8,10.6,14.9,10.6c8.7,0,15.9-7.1,15.9-15.9s-7.1-15.9-15.9-15.9c-6.9,0-12.7,4.4-14.9,10.6h-11.5v-42.3h11.5
			c2.2,6.1,8,10.6,14.9,10.6c8.7,0,15.9-7.1,15.9-15.9s-7.1-15.9-15.9-15.9c-6.9,0-12.7,4.4-14.9,10.6h-11.5V182h11.5
			c2.2,6.1,8,10.6,14.9,10.6c8.7,0,15.9-7.1,15.9-15.9s-7.1-15.9-15.9-15.9c-6.9,0-12.7,4.4-14.9,10.6h-11.5V145
			c0-2.9,2.4-5.3,5.3-5.3h179.7c2.9,0,5.3,2.4,5.3,5.3V367z M182,335.3c0-2.9,2.4-5.3,5.3-5.3c2.9,0,5.3,2.4,5.3,5.3
			s-2.4,5.3-5.3,5.3C184.4,340.6,182,338.2,182,335.3z M182,282.4c0-2.9,2.4-5.3,5.3-5.3s5.3,2.4,5.3,5.3s-2.4,5.3-5.3,5.3
			C184.4,287.7,182,285.4,182,282.4z M182,229.6c0-2.9,2.4-5.3,5.3-5.3c2.9,0,5.3,2.4,5.3,5.3c0,2.9-2.4,5.3-5.3,5.3
			C184.4,234.9,182,232.5,182,229.6z M182,176.7c0-2.9,2.4-5.3,5.3-5.3c2.9,0,5.3,2.4,5.3,5.3s-2.4,5.3-5.3,5.3
			C184.4,182,182,179.6,182,176.7z"/>
	</g>
</g>
<g>
	<g>
		<path d="M324.7,234.9h-95.2c-2.9,0-5.3,2.4-5.3,5.3s2.4,5.3,5.3,5.3h95.2c2.9,0,5.3-2.4,5.3-5.3S327.6,234.9,324.7,234.9z"/>
	</g>
</g>
<g>
	<g>
		<path d="M324.7,192.6h-95.2c-2.9,0-5.3,2.4-5.3,5.3s2.4,5.3,5.3,5.3h95.2c2.9,0,5.3-2.4,5.3-5.3S327.6,192.6,324.7,192.6z"/>
	</g>
</g>
<g>
	<g>
		<path d="M324.7,277.1h-95.2c-2.9,0-5.3,2.4-5.3,5.3s2.4,5.3,5.3,5.3h95.2c2.9,0,5.3-2.4,5.3-5.3S327.6,277.1,324.7,277.1z"/>
	</g>
</g>
<g>
	<g>
		<path d="M303.6,319.4h-74c-2.9,0-5.3,2.4-5.3,5.3s2.4,5.3,5.3,5.3h74c2.9,0,5.3-2.4,5.3-5.3S306.5,319.4,303.6,319.4z"/>
	</g>
</g>
<g>
	<path d="M256,10c33.2,0,65.4,6.5,95.8,19.3c29.3,12.4,55.6,30.1,78.2,52.7s40.3,48.9,52.7,78.2c12.8,30.3,19.3,62.5,19.3,95.8
		s-6.5,65.4-19.3,95.8c-12.4,29.3-30.1,55.6-52.7,78.2s-48.9,40.3-78.2,52.7C321.4,495.5,289.2,502,256,502s-65.4-6.5-95.8-19.3
		c-29.3-12.4-55.6-30.1-78.2-52.7S41.7,381,29.3,351.8C16.5,321.4,10,289.2,10,256s6.5-65.4,19.3-95.8
		c12.4-29.3,30.1-55.6,52.7-78.2s48.9-40.3,78.2-52.7C190.6,16.5,222.8,10,256,10 M256,0C114.6,0,0,114.6,0,256s114.6,256,256,256
		s256-114.6,256-256S397.4,0,256,0L256,0z"/>
</g>
</svg>
