<?xml version="1.0" encoding="utf-8"?>
<!-- Generator: Adobe Illustrator 19.2.0, SVG Export Plug-In . SVG Version: 6.00 Build 0)  -->
<svg version="1.1" id="Layer_1" xmlns="http://www.w3.org/2000/svg" xmlns:xlink="http://www.w3.org/1999/xlink" x="0px" y="0px"
	 viewBox="0 0 512 512" style="enable-background:new 0 0 512 512;" xml:space="preserve">
<style type="text/css">
	.st0{fill:#231F20;}
</style>
<g id="Page-1">
	<g id="_x30_92---Bonsai-Tree" transform="translate(-1)">
		<path id="Shape" d="M153.3,223.8h-20.4c-13.7,0-24.8,11.1-24.8,24.8c0,2.7,2.2,5,5,5h5v5c0,19.2,15.6,34.7,34.7,34.7h208.5
			c19.2,0,34.7-15.6,34.7-34.7v-5h5c2.7,0,5-2.2,5-5c0-13.7-11.1-24.8-24.8-24.8H222.4 M212.5,223.8h-49.1 M132.9,233.7h248.2
			c6.3,0,11.9,4,14,9.9H118.8C121,237.7,126.6,233.8,132.9,233.7L132.9,233.7z M386.1,258.6c0,13.7-11.1,24.8-24.8,24.8H152.8
			c-13.7,0-24.8-11.1-24.8-24.8v-5h258.1V258.6z"/>
	</g>
	<g id="_x30_92---Bonsai-Tree_1_" transform="translate(-1)">
		<path id="Shape_1_" d="M154.2,284.3v5c0,19.2,15.6,34.7,34.7,34.7h136c19.2,0,34.7-15.6,34.7-34.7v-5 M349.8,289.3
			c0,13.7-11.1,24.8-24.8,24.8H189c-13.7,0-24.8-11.1-24.8-24.8v-5h185.7V289.3z"/>
	</g>
	<g>
		<rect x="299.3" y="321.3" width="22.8" height="7.7"/>
		<rect x="190" y="321.3" width="22.8" height="7.7"/>
	</g>
</g>
<g>
	<path class="st0" d="M256,10c33.2,0,65.4,6.5,95.8,19.3C381.1,41.7,407.4,59.4,430,82s40.3,48.9,52.7,78.2
		c12.8,30.3,19.3,62.5,19.3,95.8s-6.5,65.4-19.3,95.8c-12.4,29.3-30.1,55.6-52.7,78.2s-48.9,40.3-78.2,52.7
		C321.4,495.5,289.2,502,256,502s-65.4-6.5-95.8-19.3c-29.3-12.4-55.6-30.1-78.2-52.7s-40.3-49-52.7-78.2
		C16.5,321.4,10,289.2,10,256s6.5-65.4,19.3-95.8C41.7,130.9,59.4,104.6,82,82s48.9-40.3,78.2-52.7C190.6,16.5,222.8,10,256,10
		 M256,0C114.6,0,0,114.6,0,256s114.6,256,256,256s256-114.6,256-256S397.4,0,256,0L256,0z"/>
</g>
</svg>
