<?xml version="1.0" encoding="utf-8"?>
<!-- Generator: Adobe Illustrator 19.2.0, SVG Export Plug-In . SVG Version: 6.00 Build 0)  -->
<svg version="1.1" id="Layer_1" xmlns="http://www.w3.org/2000/svg" xmlns:xlink="http://www.w3.org/1999/xlink" x="0px" y="0px"
	 viewBox="0 0 176.5 65" style="enable-background:new 0 0 176.5 65;" xml:space="preserve">
<style type="text/css">
	.st0{fill:#FFFFFF;}
</style>
<g>
	<g>
		<g>
			<path class="st0" d="M83.9,22.4c0,0.6-0.1,1.2-0.4,1.7c-0.3,0.5-0.7,1-1.1,1.4c-0.5,0.4-1.1,0.7-1.8,0.9
				c-0.7,0.2-1.5,0.3-2.3,0.3h-3.7V11.1h4c0.7,0,1.4,0.1,2,0.3c0.6,0.2,1.1,0.4,1.5,0.7c0.4,0.3,0.7,0.7,1,1.1s0.4,0.9,0.4,1.5
				c0,1-0.3,1.8-1,2.5c-0.7,0.7-1.5,1.1-2.6,1.4c0.5,0.1,1,0.2,1.5,0.4c0.5,0.2,0.9,0.5,1.3,0.8c0.4,0.3,0.7,0.7,0.9,1.1
				C83.8,21.3,83.9,21.8,83.9,22.4z M82.3,14.8c0-0.4-0.1-0.8-0.3-1.2c-0.2-0.4-0.5-0.6-0.8-0.9c-0.3-0.2-0.7-0.4-1.2-0.6
				c-0.5-0.1-1-0.2-1.5-0.2h-3v6.2h2.2c0.7,0,1.3-0.1,1.8-0.2c0.6-0.2,1.1-0.4,1.5-0.7c0.4-0.3,0.7-0.6,1-1.1
				C82.2,15.8,82.3,15.3,82.3,14.8z M82.9,22.3c0-0.6-0.1-1.1-0.4-1.5c-0.3-0.4-0.6-0.8-1.1-1c-0.5-0.3-1-0.5-1.6-0.6
				C79.2,19.1,78.6,19,78,19h-2.5v6.7h2.9c0.7,0,1.3-0.1,1.8-0.2c0.6-0.2,1-0.4,1.4-0.7c0.4-0.3,0.7-0.7,0.9-1.1
				S82.9,22.9,82.9,22.3z"/>
			<path class="st0" d="M104.5,18.9c0,1.1-0.2,2.1-0.5,3.1s-0.8,1.8-1.4,2.6c-0.6,0.7-1.4,1.3-2.3,1.8c-0.9,0.4-1.9,0.7-3.1,0.7
				s-2.2-0.2-3.1-0.7c-0.9-0.4-1.7-1-2.3-1.8c-0.6-0.7-1.1-1.6-1.4-2.6c-0.3-1-0.5-2-0.5-3.1c0-1.1,0.2-2.1,0.5-3.1
				c0.3-1,0.8-1.8,1.4-2.6c0.6-0.7,1.4-1.3,2.3-1.8c0.9-0.4,1.9-0.7,3.1-0.7s2.2,0.2,3.1,0.7c0.9,0.4,1.7,1,2.3,1.8
				c0.6,0.7,1.1,1.6,1.4,2.6C104.3,16.8,104.5,17.8,104.5,18.9z M103.4,18.9c0-1-0.1-1.9-0.4-2.8c-0.3-0.9-0.7-1.6-1.3-2.3
				c-0.5-0.7-1.2-1.2-2-1.6c-0.8-0.4-1.7-0.6-2.6-0.6s-1.8,0.2-2.6,0.6c-0.8,0.4-1.4,0.9-2,1.6c-0.5,0.7-1,1.4-1.3,2.3
				s-0.4,1.8-0.4,2.8s0.1,1.9,0.4,2.8s0.7,1.6,1.3,2.3c0.5,0.7,1.2,1.2,2,1.6c0.8,0.4,1.7,0.6,2.6,0.6s1.8-0.2,2.6-0.6
				c0.8-0.4,1.4-0.9,2-1.6s1-1.4,1.3-2.3C103.3,20.8,103.4,19.9,103.4,18.9z"/>
			<path class="st0" d="M122,26.7l-9.8-14v14h-1V11.1h1l9.8,14v-14h1v15.6H122z"/>
			<path class="st0" d="M139.1,22.8c0,0.6-0.1,1.2-0.4,1.7c-0.2,0.5-0.6,1-1,1.3s-1,0.7-1.6,0.9s-1.3,0.3-2,0.3
				c-0.7,0-1.4-0.1-2.2-0.2c-0.8-0.2-1.4-0.4-2-0.6l0.3-0.9c0.6,0.3,1.3,0.5,1.9,0.6s1.3,0.2,2,0.2c1.2,0,2.2-0.3,2.9-0.9
				c0.7-0.6,1.1-1.4,1.1-2.4c0-0.5-0.1-1-0.3-1.4c-0.2-0.4-0.5-0.7-0.9-1c-0.4-0.3-0.8-0.6-1.2-0.8c-0.5-0.2-0.9-0.5-1.4-0.7
				c-0.6-0.3-1.1-0.6-1.6-0.8c-0.5-0.3-0.9-0.6-1.3-0.9c-0.4-0.3-0.6-0.7-0.8-1.1c-0.2-0.4-0.3-0.9-0.3-1.5c0-0.6,0.1-1.2,0.4-1.6
				c0.2-0.5,0.6-0.8,1-1.1s0.9-0.5,1.4-0.7c0.5-0.1,1.1-0.2,1.7-0.2c0.7,0,1.4,0.1,2,0.2c0.6,0.2,1.2,0.4,1.7,0.6l-0.2,0.9
				c-0.6-0.3-1.1-0.5-1.7-0.6c-0.6-0.2-1.2-0.2-1.8-0.2c-1,0-1.8,0.2-2.4,0.7c-0.6,0.4-1,1.1-1,2c0,0.5,0.1,0.8,0.2,1.2
				c0.1,0.3,0.3,0.6,0.6,0.9c0.3,0.3,0.6,0.5,1,0.7c0.4,0.2,0.9,0.5,1.4,0.7c0.5,0.2,1,0.5,1.6,0.8c0.5,0.3,1,0.6,1.5,1
				c0.4,0.4,0.8,0.8,1.1,1.3C138.9,21.5,139.1,22.1,139.1,22.8z"/>
			<path class="st0" d="M157.7,26.7h-1l-1.6-4.2h-7.8l-1.6,4.2h-1l6.2-15.6h0.8L157.7,26.7z M147.6,21.6h7.1l-3.5-9.2L147.6,21.6z"
				/>
			<path class="st0" d="M164.3,26.7V11.1h1v15.6H164.3z"/>
		</g>
		<g>
			<path class="st0" d="M83.2,47.3c0,0.6-0.1,1.2-0.4,1.7c-0.2,0.5-0.6,1-1,1.3c-0.4,0.4-1,0.7-1.6,0.9c-0.6,0.2-1.3,0.3-2,0.3
				c-0.7,0-1.4-0.1-2.2-0.2c-0.8-0.2-1.4-0.4-2-0.6l0.3-0.9c0.6,0.3,1.3,0.5,1.9,0.6c0.6,0.1,1.3,0.2,2,0.2c1.2,0,2.2-0.3,2.9-0.9
				c0.7-0.6,1.1-1.4,1.1-2.4c0-0.5-0.1-1-0.3-1.4c-0.2-0.4-0.5-0.7-0.9-1c-0.4-0.3-0.8-0.6-1.2-0.8c-0.5-0.2-0.9-0.5-1.4-0.7
				c-0.6-0.3-1.1-0.6-1.6-0.8c-0.5-0.3-0.9-0.6-1.3-0.9c-0.4-0.3-0.6-0.7-0.8-1.1c-0.2-0.4-0.3-0.9-0.3-1.5c0-0.6,0.1-1.2,0.4-1.6
				c0.2-0.5,0.6-0.8,1-1.1c0.4-0.3,0.9-0.5,1.4-0.7s1.1-0.2,1.7-0.2c0.7,0,1.4,0.1,2,0.2c0.6,0.2,1.2,0.4,1.7,0.6l-0.2,0.9
				c-0.6-0.3-1.1-0.5-1.7-0.6c-0.6-0.2-1.2-0.2-1.8-0.2c-1,0-1.8,0.2-2.4,0.7c-0.6,0.4-1,1.1-1,2c0,0.5,0.1,0.8,0.2,1.2
				c0.1,0.3,0.3,0.6,0.6,0.9s0.6,0.5,1,0.7c0.4,0.2,0.9,0.5,1.4,0.7c0.5,0.2,1,0.5,1.6,0.8c0.5,0.3,1,0.6,1.5,1
				c0.4,0.4,0.8,0.8,1.1,1.3C83.1,46.1,83.2,46.7,83.2,47.3z"/>
			<path class="st0" d="M94.3,36.5v14.7h-1V36.5h-4.8v-0.9h10.7v0.9H94.3z"/>
			<path class="st0" d="M116.5,48.1c-0.2,0.7-0.6,1.3-1.1,1.8c-0.5,0.5-1.1,0.9-1.8,1.2c-0.7,0.3-1.6,0.5-2.6,0.5
				c-1,0-1.8-0.2-2.6-0.5s-1.3-0.7-1.8-1.2s-0.8-1.1-1.1-1.8c-0.2-0.7-0.4-1.4-0.4-2.1V35.6h1V46c0,0.7,0.1,1.3,0.3,1.9
				c0.2,0.6,0.5,1,0.9,1.5c0.4,0.4,0.9,0.7,1.5,0.9c0.6,0.2,1.3,0.3,2,0.3c0.8,0,1.4-0.1,2-0.3c0.6-0.2,1.1-0.5,1.5-0.9
				s0.7-0.9,0.9-1.5c0.2-0.6,0.3-1.2,0.3-1.9V35.6h1v10.3C116.8,46.7,116.7,47.4,116.5,48.1z"/>
			<path class="st0" d="M136.8,43.4c0,1.1-0.2,2.2-0.7,3.1c-0.4,1-1,1.8-1.8,2.5c-0.8,0.7-1.7,1.2-2.8,1.6c-1.1,0.4-2.3,0.6-3.6,0.6
				h-3.4V35.6h3.4c1.3,0,2.5,0.2,3.6,0.6c1.1,0.4,2,0.9,2.8,1.6c0.8,0.7,1.4,1.5,1.8,2.5C136.5,41.3,136.8,42.3,136.8,43.4z
				 M135.7,43.4c0-1.1-0.2-2.1-0.6-2.9c-0.4-0.9-1-1.6-1.7-2.2s-1.5-1-2.5-1.4c-0.9-0.3-1.9-0.5-3-0.5h-2.4v13.8h2.4
				c1,0,2-0.2,3-0.5c0.9-0.3,1.8-0.8,2.5-1.4c0.7-0.6,1.3-1.3,1.7-2.2C135.5,45.5,135.7,44.5,135.7,43.4z"/>
			<path class="st0" d="M143.4,51.2V35.6h1v15.6H143.4z"/>
			<path class="st0" d="M166,43.4c0,1.1-0.2,2.1-0.5,3.1c-0.3,1-0.8,1.8-1.4,2.6c-0.6,0.7-1.4,1.3-2.3,1.8c-0.9,0.4-1.9,0.7-3.1,0.7
				c-1.2,0-2.2-0.2-3.1-0.7s-1.7-1-2.3-1.8c-0.6-0.7-1.1-1.6-1.4-2.6c-0.3-1-0.5-2-0.5-3.1c0-1.1,0.2-2.1,0.5-3.1
				c0.3-1,0.8-1.8,1.4-2.6c0.6-0.7,1.4-1.3,2.3-1.8s1.9-0.7,3.1-0.7c1.2,0,2.2,0.2,3.1,0.7c0.9,0.4,1.7,1,2.3,1.8
				c0.6,0.7,1.1,1.6,1.4,2.6C165.9,41.4,166,42.4,166,43.4z M165,43.4c0-1-0.1-1.9-0.4-2.8c-0.3-0.9-0.7-1.6-1.3-2.3
				c-0.5-0.7-1.2-1.2-2-1.6c-0.8-0.4-1.7-0.6-2.6-0.6c-1,0-1.8,0.2-2.6,0.6c-0.8,0.4-1.4,0.9-2,1.6c-0.5,0.7-1,1.4-1.3,2.3
				c-0.3,0.9-0.4,1.8-0.4,2.8c0,1,0.1,1.9,0.4,2.8c0.3,0.9,0.7,1.6,1.3,2.3c0.5,0.7,1.2,1.2,2,1.6c0.8,0.4,1.7,0.6,2.6,0.6
				c1,0,1.8-0.2,2.6-0.6s1.4-0.9,2-1.6c0.5-0.7,1-1.4,1.3-2.3C164.9,45.3,165,44.4,165,43.4z"/>
		</g>
	</g>
	<path class="st0" d="M29.4,8.2c-4.9,0-4.2,4-6.1,5c-1.6,0.8-4.4,0.7-6.1,2.7c-1.3,1.6-1.6,3.4-1.2,5.3c0.4,2,1,3.9,4.4,3.7
		c2.7-0.1,4-2.8,4.8-3.7c0.6-0.6,3.1-3,6,0.5c1,1.2,3.3,3.5,5.9,2.9c1.5-0.4,1.7-1.6,1.8-2.6c0.2-1.7-0.6-3.7-2.3-4.3
		c-2.8-1-1.5-3.9-1.6-5.9C34.8,10.4,33,8.2,29.4,8.2z"/>
	<path class="st0" d="M39.7,37.1c1.3,0.6,3.6-0.7,4.7-1.7c1-0.9,2.3-0.7,3.1,0.3c0.5,0.6,1.7,2,2.3,2.5c0.3,0.2,2.1,2,4.7-1.2
		c0.8-1,1-3-1.2-4.5c-0.4-0.3-0.7-1-0.8-1.6c-0.1-0.8,0.1-1.5,0.2-2.3c0.2-1.7-0.9-3-2.6-3.6c-2.9-1.1-4.6,0-5,1.1
		c-0.6,1.9-2,1.8-3.3,1.8c-2.8,0.1-4.5,2.3-4.6,5.2C37.2,34.9,37.7,36.2,39.7,37.1z"/>
	<path class="st0" d="M11.8,24.7c-1.9,0.7-1.5,2-1.4,3.9c0.1,1.8-2,2.8-1.8,4.8c0.2,1.5,0.6,3.1,2.9,3c1.6-0.1,2.8-1,2.8-2.8
		c0-1.5,0.9-2.2,2.2-2c1,0.2,2.1,0.8,3,0.2c1.9-1.3,0.9-4.1-1.5-4.4c-0.7-0.1-2.4-0.1-2.9-0.7C14.3,25.5,13.4,24.2,11.8,24.7z"/>
	<path class="st0" d="M40.3,50.1c-0.1-0.5-0.2-0.8-0.3-1.1c-0.6-2.4,0-3.5,1.9-5c2.4-1.8,3.1-2.6,4-5.5c0.2-0.6,0.6-2.2-0.2-2.7
		c-0.3-0.2-1,0.2-1.2,0.5c-0.9,0.9-1.6,2.1-2.6,2.8c-2.6,1.8-4.8-0.4-5.2-1c-2-2.8-3.7-4.7-6-7.2c-2.4-2.6-3-4.4-1.4-7.8
		c0.4-0.9,0-1.5-1.1-1.6c-1.5-0.1-2.6,0.5-3.4,1.8c-2,3.2-3,6.7-2.8,10.4c0.1,1.4-0.3,1.7-1.6,1.3c-1.1-0.4-2.1-1.1-3.2-1.6
		c-0.6-0.3-1-1.1-1.7-0.5c-0.4,0.3,0,1.2,0.3,1.7c0.7,1.2,1.1,1.5,2,2.3c1.5,1.2,3.2,2.1,4.8,3.1c1.2,0.7,1.3,1.8,1.4,2.9
		c0.3,2.4-0.5,4.5-1.7,6.5c-0.1,0.2-0.2,0.5-0.3,0.8C28.2,50.1,34.2,50.1,40.3,50.1z"/>
	<path class="st0" d="M14.1,56.9c-2.7,0-5-2-5.2-4.7c-0.1-1.8,0,1.1,0-0.7c0.8,0,44.6,0,45.5,0c0,1.8,0.1-1.1,0,0.6
		c-0.2,2.7-2.5,4.7-5.2,4.7H14.1z"/>
</g>
</svg>
