<?xml version="1.0" encoding="utf-8"?>
<!-- Generator: Adobe Illustrator 19.2.0, SVG Export Plug-In . SVG Version: 6.00 Build 0)  -->
<svg version="1.1" id="Layer_1" xmlns="http://www.w3.org/2000/svg" xmlns:xlink="http://www.w3.org/1999/xlink" x="0px" y="0px"
	 viewBox="0 0 180 80" style="enable-background:new 0 0 180 80;" xml:space="preserve">
<style type="text/css">
	.st0{fill:#414142;}
</style>
<g>
	<g>
		<g>
			<path class="st0" d="M85.9,28.8c0,0.7-0.1,1.3-0.4,1.9c-0.3,0.6-0.7,1.1-1.3,1.5c-0.6,0.4-1.2,0.7-2,1c-0.8,0.2-1.7,0.4-2.7,0.4
				H75V16.4h4.8c0.8,0,1.6,0.1,2.3,0.3c0.7,0.2,1.3,0.5,1.7,0.8c0.5,0.4,0.8,0.8,1.1,1.3c0.3,0.5,0.4,1.1,0.4,1.7c0,1-0.3,1.9-1,2.6
				c-0.7,0.7-1.6,1.2-2.7,1.6c0.6,0.1,1.1,0.3,1.7,0.5c0.5,0.2,1,0.5,1.4,0.8c0.4,0.3,0.7,0.8,0.9,1.2
				C85.8,27.7,85.9,28.2,85.9,28.8z M79,24c0.7,0,1.3-0.1,1.9-0.2c0.6-0.2,1.1-0.4,1.5-0.7c0.4-0.3,0.7-0.6,1-1.1
				c0.2-0.4,0.3-0.9,0.3-1.4c0-1-0.4-1.7-1.1-2.1c-0.7-0.5-1.7-0.7-2.8-0.7h-3.1V24H79z M84.2,28.8c0-0.6-0.1-1.1-0.4-1.5
				c-0.3-0.4-0.6-0.8-1.1-1c-0.5-0.3-1-0.5-1.6-0.6c-0.6-0.1-1.2-0.2-1.9-0.2h-2.6v6.7h3c1.4,0,2.5-0.3,3.3-0.9
				C83.8,30.7,84.2,29.9,84.2,28.8z"/>
			<path class="st0" d="M100.2,33.9c-1.3,0-2.5-0.2-3.5-0.7c-1-0.5-1.9-1.1-2.6-1.9c-0.7-0.8-1.2-1.8-1.6-2.8
				C92.2,27.3,92,26.2,92,25s0.2-2.3,0.6-3.4c0.4-1.1,0.9-2,1.6-2.8c0.7-0.8,1.6-1.5,2.6-1.9c1-0.5,2.2-0.7,3.5-0.7
				c1.3,0,2.5,0.2,3.5,0.7c1,0.5,1.9,1.1,2.6,1.9c0.7,0.8,1.2,1.8,1.6,2.8c0.4,1.1,0.6,2.2,0.6,3.4s-0.2,2.3-0.6,3.4
				c-0.4,1.1-0.9,2-1.6,2.8c-0.7,0.8-1.6,1.5-2.6,1.9C102.7,33.6,101.5,33.9,100.2,33.9z M100.2,32.4c1,0,1.9-0.2,2.7-0.6
				c0.8-0.4,1.5-0.9,2-1.6c0.6-0.7,1-1.5,1.3-2.4s0.4-1.9,0.4-2.9c0-1-0.1-2-0.4-2.9s-0.7-1.7-1.3-2.4c-0.6-0.7-1.2-1.2-2-1.6
				c-0.8-0.4-1.7-0.6-2.7-0.6c-1,0-1.9,0.2-2.7,0.6c-0.8,0.4-1.5,0.9-2,1.6c-0.5,0.7-1,1.5-1.3,2.4C93.9,23,93.8,24,93.8,25
				c0,1,0.1,2,0.4,2.9c0.3,0.9,0.7,1.7,1.3,2.4c0.5,0.7,1.2,1.2,2,1.6C98.3,32.2,99.2,32.4,100.2,32.4z"/>
			<path class="st0" d="M127.5,33.6l-10.2-14.3v14.3h-1.7V16.4h1.7l10.2,14.3V16.4h1.7v17.1H127.5z"/>
			<path class="st0" d="M146.9,29.2c0,0.7-0.1,1.3-0.4,1.9c-0.3,0.6-0.7,1.1-1.2,1.5c-0.5,0.4-1.1,0.7-1.8,1
				c-0.7,0.2-1.5,0.3-2.3,0.3c-0.8,0-1.7-0.1-2.5-0.3c-0.8-0.2-1.6-0.4-2.3-0.7l0.4-1.4c0.7,0.3,1.4,0.5,2.1,0.7
				c0.7,0.2,1.5,0.3,2.2,0.3c1.2,0,2.2-0.3,3-0.8c0.7-0.6,1.1-1.3,1.1-2.3c0-0.5-0.1-1-0.3-1.4c-0.2-0.4-0.5-0.7-0.9-1.1
				c-0.4-0.3-0.8-0.6-1.3-0.8c-0.5-0.2-1-0.5-1.5-0.7c-0.6-0.3-1.1-0.6-1.7-0.9c-0.5-0.3-1-0.6-1.4-1c-0.4-0.4-0.8-0.8-1-1.3
				c-0.3-0.5-0.4-1-0.4-1.7c0-0.7,0.1-1.3,0.4-1.9c0.3-0.5,0.6-1,1.1-1.4c0.5-0.4,1-0.6,1.6-0.8c0.6-0.2,1.3-0.3,2-0.3
				c0.8,0,1.6,0.1,2.3,0.2c0.7,0.2,1.4,0.4,2,0.7l-0.4,1.5c-0.6-0.3-1.2-0.5-1.9-0.7c-0.7-0.2-1.3-0.2-2-0.2c-1.1,0-1.9,0.2-2.5,0.7
				c-0.6,0.4-0.9,1.1-0.9,2.1c0,0.4,0.1,0.8,0.2,1.1c0.1,0.3,0.3,0.6,0.6,0.8c0.3,0.2,0.6,0.5,1,0.7c0.4,0.2,0.9,0.5,1.5,0.8
				c0.6,0.3,1.2,0.6,1.8,0.9c0.6,0.3,1.1,0.7,1.6,1.1c0.5,0.4,0.9,0.9,1.2,1.5C146.8,27.8,146.9,28.4,146.9,29.2z"/>
			<path class="st0" d="M167.9,33.6h-1.8l-1.7-4.4h-8.3l-1.7,4.4h-1.8l6.8-17.1h1.7L167.9,33.6z M160.3,18.2l-3.6,9.5h7.2
				L160.3,18.2z"/>
			<path class="st0" d="M176.6,33.6h-1.7V16.4h1.7V33.6z"/>
		</g>
		<g>
			<path class="st0" d="M84.9,56.2c0,0.7-0.1,1.3-0.4,1.9c-0.3,0.6-0.7,1.1-1.2,1.5c-0.5,0.4-1.1,0.7-1.8,1
				c-0.7,0.2-1.5,0.3-2.3,0.3c-0.8,0-1.7-0.1-2.5-0.3c-0.8-0.2-1.6-0.4-2.3-0.7l0.4-1.4c0.7,0.3,1.4,0.5,2.1,0.7s1.5,0.3,2.2,0.3
				c1.2,0,2.2-0.3,3-0.8c0.7-0.6,1.1-1.3,1.1-2.3c0-0.5-0.1-1-0.3-1.4s-0.5-0.7-0.9-1.1c-0.4-0.3-0.8-0.6-1.3-0.8
				c-0.5-0.2-1-0.5-1.5-0.7c-0.6-0.3-1.1-0.6-1.7-0.9c-0.5-0.3-1-0.6-1.4-1c-0.4-0.4-0.8-0.8-1-1.3c-0.3-0.5-0.4-1-0.4-1.7
				c0-0.7,0.1-1.3,0.4-1.9c0.3-0.5,0.6-1,1.1-1.4c0.5-0.4,1-0.6,1.6-0.8c0.6-0.2,1.3-0.3,2-0.3c0.8,0,1.6,0.1,2.3,0.2
				c0.7,0.2,1.4,0.4,2,0.7l-0.4,1.5c-0.6-0.3-1.2-0.5-1.9-0.7c-0.7-0.2-1.3-0.2-2-0.2c-1.1,0-1.9,0.2-2.5,0.7
				c-0.6,0.4-0.9,1.1-0.9,2.1c0,0.4,0.1,0.8,0.2,1.1c0.1,0.3,0.3,0.6,0.6,0.8c0.3,0.2,0.6,0.5,1,0.7c0.4,0.2,0.9,0.5,1.5,0.8
				c0.6,0.3,1.2,0.6,1.8,0.9c0.6,0.3,1.1,0.7,1.6,1.1c0.5,0.4,0.9,0.9,1.2,1.5C84.8,54.7,84.9,55.4,84.9,56.2z"/>
			<path class="st0" d="M102.6,43.4v1.4h-5.2v15.7h-1.7V44.8h-5.2v-1.4H102.6z"/>
			<path class="st0" d="M120.5,43.4h1.7v11.2c0,0.9-0.1,1.7-0.4,2.4c-0.3,0.8-0.7,1.4-1.2,2c-0.5,0.6-1.2,1-2,1.4
				c-0.8,0.3-1.8,0.5-2.8,0.5c-1.1,0-2-0.2-2.8-0.5c-0.8-0.3-1.5-0.8-2-1.4c-0.5-0.6-1-1.2-1.2-2c-0.3-0.8-0.4-1.6-0.4-2.4V43.4h1.7
				v11.3c0,1.4,0.4,2.5,1.2,3.4c0.8,0.9,2,1.3,3.6,1.3c1.6,0,2.7-0.4,3.6-1.3c0.8-0.9,1.2-2,1.2-3.4V43.4z"/>
			<path class="st0" d="M130.5,43.4h4.2c1.4,0,2.8,0.2,4,0.6c1.2,0.4,2.2,1,3.1,1.8c0.9,0.8,1.5,1.7,2,2.7c0.5,1.1,0.7,2.2,0.7,3.5
				c0,1.3-0.2,2.4-0.7,3.5c-0.5,1-1.1,1.9-2,2.7c-0.9,0.8-1.9,1.3-3.1,1.8c-1.2,0.4-2.5,0.6-4,0.6h-4.2V43.4z M134.7,59.1
				c1.1,0,2.1-0.2,3.1-0.5c1-0.3,1.8-0.8,2.5-1.4c0.7-0.6,1.3-1.4,1.7-2.2c0.4-0.9,0.6-1.9,0.6-3s-0.2-2.2-0.6-3
				c-0.4-0.9-1-1.6-1.7-2.2s-1.6-1.1-2.5-1.4c-1-0.3-2-0.5-3.1-0.5h-2.5v14.3H134.7z"/>
			<path class="st0" d="M153.5,60.5h-1.7V43.4h1.7V60.5z"/>
			<path class="st0" d="M169,60.8c-1.3,0-2.5-0.2-3.5-0.7c-1-0.5-1.9-1.1-2.6-1.9c-0.7-0.8-1.2-1.8-1.6-2.8
				c-0.4-1.1-0.6-2.2-0.6-3.4s0.2-2.3,0.6-3.4c0.4-1.1,0.9-2,1.6-2.8c0.7-0.8,1.6-1.5,2.6-1.9c1-0.5,2.2-0.7,3.5-0.7
				c1.3,0,2.5,0.2,3.5,0.7c1,0.5,1.9,1.1,2.6,1.9c0.7,0.8,1.2,1.8,1.6,2.8c0.4,1.1,0.6,2.2,0.6,3.4s-0.2,2.3-0.6,3.4
				c-0.4,1.1-0.9,2-1.6,2.8c-0.7,0.8-1.6,1.5-2.6,1.9C171.5,60.6,170.3,60.8,169,60.8z M169,59.4c1,0,1.9-0.2,2.7-0.6
				c0.8-0.4,1.5-0.9,2-1.6c0.6-0.7,1-1.5,1.3-2.4c0.3-0.9,0.4-1.9,0.4-2.9c0-1-0.1-2-0.4-2.9c-0.3-0.9-0.7-1.7-1.3-2.4
				c-0.6-0.7-1.2-1.2-2-1.6c-0.8-0.4-1.7-0.6-2.7-0.6s-1.9,0.2-2.7,0.6c-0.8,0.4-1.5,0.9-2,1.6c-0.5,0.7-1,1.5-1.3,2.4
				c-0.3,0.9-0.4,1.9-0.4,2.9c0,1,0.1,2,0.4,2.9c0.3,0.9,0.7,1.7,1.3,2.4c0.5,0.7,1.2,1.2,2,1.6C167.1,59.2,168,59.4,169,59.4z"/>
		</g>
	</g>
	<path class="st0" d="M25.6,13.3c-5.3,0-4.6,4.4-6.7,5.5c-1.8,0.9-4.9,0.8-6.7,3c-1.5,1.8-1.8,3.8-1.3,5.8c0.5,2.2,1.1,4.3,4.8,4.1
		c3-0.1,4.4-3.1,5.3-4.1c0.6-0.7,3.4-3.3,6.6,0.6c1.1,1.3,3.7,3.9,6.4,3.2c1.7-0.4,1.8-1.8,2-2.9c0.2-1.8-0.6-4.1-2.6-4.8
		c-3.1-1.1-1.6-4.3-1.8-6.4C31.5,15.7,29.5,13.3,25.6,13.3z"/>
	<path class="st0" d="M36.8,45c1.4,0.6,3.9-0.8,5.1-1.9c1.1-1,2.5-0.8,3.4,0.3c0.5,0.7,1.8,2.2,2.5,2.8c0.3,0.2,2.3,2.2,5.1-1.3
		c0.9-1.1,1.1-3.3-1.4-4.9c-0.5-0.3-0.8-1.1-0.8-1.7c-0.1-0.8,0.1-1.7,0.2-2.5c0.2-1.9-1-3.3-2.8-4c-3.1-1.2-5,0-5.4,1.2
		c-0.7,2-2.2,1.9-3.6,2c-3.1,0.1-4.9,2.6-5,5.7C34.1,42.6,34.6,44.1,36.8,45z"/>
	<path class="st0" d="M6.3,31.4c-2.1,0.7-1.6,2.2-1.5,4.3c0.1,2-2.2,3.1-2,5.3C3,42.6,3.5,44.4,6,44.2c1.8-0.1,3.1-1.1,3.1-3
		c0.1-1.6,0.9-2.4,2.5-2.2c1.1,0.2,2.4,0.8,3.3,0.2c2.1-1.5,1-4.5-1.7-4.8c-0.8-0.1-2.7-0.1-3.2-0.8C9,32.3,7.9,30.8,6.3,31.4z"/>
	<path class="st0" d="M37.6,59.3c-0.1-0.5-0.2-0.9-0.3-1.2c-0.6-2.6,0-3.9,2.1-5.5c2.6-2,3.4-2.9,4.4-6c0.2-0.7,0.6-2.4-0.2-2.9
		c-0.3-0.2-1.1,0.2-1.3,0.5c-1,1-1.7,2.3-2.9,3.1c-2.9,2-5.2-0.4-5.7-1.1c-2.2-3-4-5.1-6.6-7.9c-2.6-2.8-3.3-4.8-1.5-8.6
		c0.5-1,0-1.7-1.2-1.8c-1.7-0.2-2.8,0.6-3.7,1.9c-2.2,3.5-3.3,7.3-3.1,11.5c0.1,1.5-0.3,1.9-1.7,1.4c-1.2-0.4-2.3-1.2-3.5-1.7
		c-0.6-0.3-1.1-1.2-1.9-0.5c-0.4,0.4,0,1.3,0.3,1.9c0.8,1.3,1.2,1.7,2.2,2.5c1.6,1.3,3.5,2.4,5.3,3.4c1.3,0.7,1.4,2,1.5,3.2
		c0.3,2.6-0.6,4.9-1.9,7.1c-0.1,0.2-0.2,0.5-0.3,0.9C24.2,59.3,30.8,59.3,37.6,59.3z"/>
	<path class="st0" d="M8.8,66.7c-3,0-5.5-2.2-5.7-5.2c-0.1-1.9,0,1.3,0-0.7c0.9,0,49,0,50,0c0,2,0.1-1.2,0,0.7
		c-0.2,3-2.7,5.2-5.7,5.2H8.8z"/>
</g>
</svg>
