<?xml version="1.0" encoding="utf-8"?>
<!-- Generator: Adobe Illustrator 19.2.0, SVG Export Plug-In . SVG Version: 6.00 Build 0)  -->
<svg version="1.1" id="Layer_1" xmlns="http://www.w3.org/2000/svg" xmlns:xlink="http://www.w3.org/1999/xlink" x="0px" y="0px"
	 viewBox="0 0 200 80" style="enable-background:new 0 0 200 80;" xml:space="preserve">
<style type="text/css">
	.st0{fill:#1A1A1A;}
</style>
<g>
	<g>
		<path class="st0" d="M94.2,29.2c0,0.7-0.1,1.3-0.4,1.8c-0.3,0.6-0.7,1-1.2,1.4s-1.2,0.7-2,1c-0.8,0.2-1.6,0.3-2.6,0.3h-4.3V17.3
			h4.6c0.8,0,1.5,0.1,2.2,0.3c0.7,0.2,1.2,0.4,1.7,0.8c0.5,0.3,0.8,0.8,1.1,1.2c0.3,0.5,0.4,1,0.4,1.6c0,1-0.3,1.8-1,2.5
			c-0.7,0.7-1.5,1.2-2.6,1.5c0.6,0.1,1.1,0.3,1.6,0.5s1,0.5,1.3,0.8c0.4,0.3,0.7,0.7,0.9,1.2C94.1,28.1,94.2,28.7,94.2,29.2z
			 M87.5,24.6c0.6,0,1.2-0.1,1.8-0.2c0.5-0.2,1-0.4,1.4-0.7c0.4-0.3,0.7-0.6,0.9-1s0.3-0.8,0.3-1.3c0-0.9-0.4-1.6-1.1-2.1
			s-1.6-0.7-2.7-0.7h-3v6H87.5z M92.5,29.2c0-0.5-0.1-1-0.4-1.4c-0.3-0.4-0.6-0.7-1-1c-0.4-0.3-0.9-0.5-1.5-0.6
			C89,26,88.4,26,87.7,26h-2.5v6.5h2.9c1.3,0,2.4-0.3,3.2-0.8C92.1,31.1,92.5,30.3,92.5,29.2z"/>
		<path class="st0" d="M107.9,34.1c-1.3,0-2.4-0.2-3.4-0.7c-1-0.5-1.8-1.1-2.5-1.9c-0.7-0.8-1.2-1.7-1.5-2.7c-0.4-1-0.5-2.1-0.5-3.3
			s0.2-2.2,0.5-3.3c0.4-1,0.9-1.9,1.5-2.7c0.7-0.8,1.5-1.4,2.5-1.9c1-0.5,2.1-0.7,3.4-0.7c1.3,0,2.4,0.2,3.4,0.7
			c1,0.5,1.8,1.1,2.5,1.9c0.7,0.8,1.2,1.7,1.5,2.7c0.4,1,0.5,2.1,0.5,3.3s-0.2,2.2-0.5,3.3c-0.4,1-0.9,1.9-1.5,2.7
			c-0.7,0.8-1.5,1.4-2.5,1.9C110.3,33.9,109.2,34.1,107.9,34.1z M107.9,32.7c1,0,1.9-0.2,2.6-0.6c0.8-0.4,1.4-0.9,2-1.5
			c0.5-0.6,0.9-1.4,1.2-2.3s0.4-1.8,0.4-2.8c0-1-0.1-1.9-0.4-2.8s-0.7-1.6-1.2-2.3c-0.5-0.7-1.2-1.2-2-1.5c-0.8-0.4-1.6-0.6-2.6-0.6
			s-1.9,0.2-2.6,0.6c-0.8,0.4-1.4,0.9-1.9,1.5c-0.5,0.7-0.9,1.4-1.2,2.3c-0.3,0.9-0.4,1.8-0.4,2.8c0,1,0.1,1.9,0.4,2.8
			c0.3,0.9,0.7,1.6,1.2,2.3c0.5,0.6,1.2,1.2,1.9,1.5C106.1,32.5,107,32.7,107.9,32.7z"/>
		<path class="st0" d="M134.2,33.8L124.4,20v13.8h-1.6V17.3h1.6l9.8,13.8V17.3h1.6v16.5H134.2z"/>
		<path class="st0" d="M152.9,29.6c0,0.7-0.1,1.3-0.4,1.8s-0.7,1-1.1,1.4s-1.1,0.7-1.7,0.9c-0.7,0.2-1.4,0.3-2.2,0.3
			c-0.8,0-1.6-0.1-2.4-0.3c-0.8-0.2-1.5-0.4-2.2-0.7l0.4-1.4c0.7,0.3,1.3,0.5,2,0.7s1.4,0.2,2.1,0.2c1.2,0,2.1-0.3,2.8-0.8
			c0.7-0.5,1.1-1.3,1.1-2.2c0-0.5-0.1-1-0.3-1.3c-0.2-0.4-0.5-0.7-0.8-1c-0.4-0.3-0.8-0.6-1.2-0.8c-0.5-0.2-0.9-0.5-1.4-0.7
			c-0.5-0.3-1.1-0.5-1.6-0.8c-0.5-0.3-1-0.6-1.4-1c-0.4-0.4-0.7-0.8-1-1.2c-0.2-0.5-0.4-1-0.4-1.6c0-0.7,0.1-1.3,0.4-1.8
			c0.3-0.5,0.6-1,1.1-1.3c0.4-0.3,1-0.6,1.6-0.8c0.6-0.2,1.3-0.3,1.9-0.3c0.8,0,1.5,0.1,2.2,0.2c0.7,0.1,1.4,0.4,1.9,0.6l-0.3,1.4
			c-0.6-0.3-1.2-0.5-1.8-0.7c-0.7-0.2-1.3-0.2-1.9-0.2c-1,0-1.8,0.2-2.4,0.6c-0.6,0.4-0.9,1.1-0.9,2c0,0.4,0.1,0.8,0.2,1.1
			c0.1,0.3,0.3,0.6,0.6,0.8c0.3,0.2,0.6,0.5,1,0.7c0.4,0.2,0.9,0.5,1.5,0.8c0.6,0.3,1.1,0.6,1.7,0.9s1.1,0.7,1.6,1.1
			c0.5,0.4,0.9,0.9,1.2,1.4S152.9,28.8,152.9,29.6z"/>
		<path class="st0" d="M173.1,33.8h-1.8l-1.6-4.2h-8l-1.6,4.2h-1.8l6.5-16.5h1.6L173.1,33.8z M165.8,19l-3.5,9.2h6.9L165.8,19z"/>
		<path class="st0" d="M181.5,33.8h-1.7V17.3h1.7V33.8z"/>
	</g>
	<g>
		<path class="st0" d="M93.2,55.6c0,0.7-0.1,1.3-0.4,1.8c-0.3,0.6-0.7,1-1.1,1.4s-1.1,0.7-1.7,0.9c-0.7,0.2-1.4,0.3-2.2,0.3
			c-0.8,0-1.6-0.1-2.4-0.3c-0.8-0.2-1.5-0.4-2.2-0.7l0.4-1.4c0.7,0.3,1.3,0.5,2,0.7s1.4,0.2,2.1,0.2c1.2,0,2.1-0.3,2.8-0.8
			c0.7-0.5,1.1-1.3,1.1-2.2c0-0.5-0.1-1-0.3-1.3s-0.5-0.7-0.8-1c-0.4-0.3-0.8-0.6-1.2-0.8s-0.9-0.5-1.4-0.7
			c-0.5-0.3-1.1-0.5-1.6-0.8s-1-0.6-1.4-1s-0.7-0.8-1-1.2c-0.2-0.5-0.4-1-0.4-1.6c0-0.7,0.1-1.3,0.4-1.8c0.3-0.5,0.6-1,1.1-1.3
			c0.4-0.3,1-0.6,1.6-0.8c0.6-0.2,1.3-0.3,1.9-0.3c0.8,0,1.5,0.1,2.2,0.2c0.7,0.1,1.4,0.4,1.9,0.6l-0.3,1.4
			c-0.6-0.3-1.2-0.5-1.8-0.7c-0.7-0.2-1.3-0.2-1.9-0.2c-1,0-1.8,0.2-2.4,0.6c-0.6,0.4-0.9,1.1-0.9,2c0,0.4,0.1,0.8,0.2,1.1
			c0.1,0.3,0.3,0.6,0.6,0.8c0.3,0.2,0.6,0.5,1,0.7c0.4,0.2,0.9,0.5,1.4,0.8s1.1,0.6,1.7,0.9c0.6,0.3,1.1,0.7,1.6,1.1
			c0.5,0.4,0.9,0.9,1.2,1.4C93.1,54.2,93.2,54.8,93.2,55.6z"/>
		<path class="st0" d="M110.2,43.3v1.4h-5v15.1h-1.7V44.7h-5v-1.4H110.2z"/>
		<path class="st0" d="M127.5,43.3h1.7v10.8c0,0.8-0.1,1.6-0.4,2.3c-0.3,0.7-0.7,1.4-1.2,1.9c-0.5,0.5-1.2,1-2,1.3s-1.7,0.5-2.7,0.5
			c-1,0-2-0.2-2.7-0.5c-0.8-0.3-1.4-0.8-2-1.3c-0.5-0.5-0.9-1.2-1.2-1.9c-0.3-0.7-0.4-1.5-0.4-2.3V43.3h1.7v10.9
			c0,1.4,0.4,2.4,1.2,3.3c0.8,0.8,1.9,1.3,3.4,1.3s2.6-0.4,3.4-1.3c0.8-0.8,1.2-1.9,1.2-3.3V43.3z"/>
		<path class="st0" d="M137.1,43.3h4.1c1.4,0,2.7,0.2,3.8,0.6c1.2,0.4,2.1,1,3,1.7c0.8,0.7,1.5,1.6,1.9,2.6c0.5,1,0.7,2.1,0.7,3.3
			c0,1.2-0.2,2.3-0.7,3.3c-0.5,1-1.1,1.9-1.9,2.6c-0.8,0.7-1.8,1.3-3,1.7c-1.2,0.4-2.4,0.6-3.8,0.6h-4.1V43.3z M141.2,58.4
			c1.1,0,2.1-0.1,3-0.4c0.9-0.3,1.7-0.7,2.4-1.3c0.7-0.6,1.2-1.3,1.6-2.2c0.4-0.9,0.6-1.8,0.6-2.9s-0.2-2.1-0.6-2.9
			c-0.4-0.9-1-1.6-1.6-2.1s-1.5-1-2.4-1.3c-0.9-0.3-1.9-0.5-3-0.5h-2.4v13.7H141.2z"/>
		<path class="st0" d="M159.2,59.8h-1.7V43.3h1.7V59.8z"/>
		<path class="st0" d="M174.2,60.1c-1.3,0-2.4-0.2-3.4-0.7c-1-0.5-1.8-1.1-2.5-1.9c-0.7-0.8-1.2-1.7-1.5-2.7c-0.4-1-0.5-2.1-0.5-3.3
			s0.2-2.2,0.5-3.3c0.4-1,0.9-1.9,1.5-2.7c0.7-0.8,1.5-1.4,2.5-1.9c1-0.5,2.1-0.7,3.4-0.7c1.3,0,2.4,0.2,3.4,0.7
			c1,0.5,1.8,1.1,2.5,1.9c0.7,0.8,1.2,1.7,1.5,2.7s0.5,2.1,0.5,3.3s-0.2,2.2-0.5,3.3c-0.4,1-0.9,1.9-1.5,2.7
			c-0.7,0.8-1.5,1.4-2.5,1.9C176.6,59.8,175.5,60.1,174.2,60.1z M174.2,58.7c1,0,1.9-0.2,2.6-0.6c0.8-0.4,1.4-0.9,2-1.5
			c0.5-0.6,0.9-1.4,1.2-2.3s0.4-1.8,0.4-2.8c0-1-0.1-1.9-0.4-2.8s-0.7-1.6-1.2-2.3c-0.5-0.7-1.2-1.2-2-1.5c-0.8-0.4-1.6-0.6-2.6-0.6
			s-1.9,0.2-2.6,0.6c-0.8,0.4-1.4,0.9-1.9,1.5c-0.5,0.7-0.9,1.4-1.2,2.3c-0.3,0.9-0.4,1.8-0.4,2.8c0,1,0.1,1.9,0.4,2.8
			c0.3,0.9,0.7,1.6,1.2,2.3c0.5,0.6,1.2,1.2,1.9,1.5C172.3,58.5,173.2,58.7,174.2,58.7z"/>
	</g>
</g>
<path class="st0" d="M36.1,14.3c-5.1,0-4.4,4.3-6.4,5.3c-1.7,0.8-4.7,0.7-6.5,2.9c-1.4,1.7-1.7,3.6-1.3,5.6c0.5,2.1,1,4.1,4.6,4
	c2.9-0.1,4.2-3,5.1-4c0.6-0.6,3.3-3.2,6.4,0.6c1,1.2,3.5,3.7,6.2,3.1c1.6-0.4,1.7-1.7,1.9-2.8c0.2-1.8-0.6-3.9-2.5-4.6
	c-3-1.1-1.5-4.2-1.7-6.2C41.8,16.6,39.8,14.2,36.1,14.3z"/>
<path class="st0" d="M46.9,44.8c1.4,0.6,3.8-0.8,4.9-1.8c1-0.9,2.4-0.8,3.2,0.3c0.5,0.7,1.7,2.2,2.4,2.7c0.3,0.2,2.3,2.1,4.9-1.3
	c0.9-1.1,1-3.2-1.3-4.7c-0.4-0.3-0.7-1.1-0.8-1.7c-0.1-0.8,0.1-1.6,0.2-2.4c0.2-1.8-1-3.2-2.7-3.8c-3-1.1-4.8,0-5.2,1.2
	c-0.6,2-2.1,1.9-3.5,1.9c-2.9,0.1-4.7,2.5-4.8,5.5C44.2,42.5,44.8,43.9,46.9,44.8z"/>
<path class="st0" d="M17.5,31.7c-2,0.7-1.6,2.1-1.4,4.1c0.1,1.9-2.1,3-1.9,5.1c0.2,1.6,0.7,3.3,3.1,3.1c1.7-0.1,3-1.1,3-2.9
	c0.1-1.6,0.9-2.3,2.4-2.1c1.1,0.2,2.3,0.8,3.1,0.2c2-1.4,0.9-4.3-1.6-4.6c-0.7-0.1-2.6-0.1-3-0.7C20.1,32.6,19.1,31.2,17.5,31.7z"/>
<path class="st0" d="M47.6,58.5c-0.1-0.5-0.2-0.8-0.3-1.2c-0.6-2.5,0-3.7,2-5.3c2.5-1.9,3.3-2.8,4.2-5.8c0.2-0.7,0.6-2.3-0.2-2.8
	c-0.3-0.2-1,0.2-1.3,0.5c-1,1-1.7,2.2-2.8,3c-2.8,1.9-5-0.4-5.5-1c-2.1-2.9-3.9-4.9-6.4-7.6c-2.5-2.7-3.1-4.6-1.5-8.3
	c0.5-1,0-1.6-1.1-1.7c-1.6-0.2-2.7,0.6-3.6,1.9c-2.2,3.4-3.2,7-3,11.1c0.1,1.4-0.3,1.8-1.7,1.3c-1.2-0.4-2.2-1.1-3.4-1.7
	c-0.6-0.3-1.1-1.2-1.8-0.5c-0.4,0.4,0,1.3,0.3,1.8c0.8,1.2,1.2,1.6,2.2,2.4c1.6,1.3,3.3,2.3,5.1,3.2c1.3,0.7,1.4,1.9,1.5,3
	c0.3,2.5-0.6,4.8-1.8,6.9c-0.1,0.2-0.2,0.5-0.3,0.8C34.8,58.5,41.1,58.5,47.6,58.5z"/>
<path class="st0" d="M19.9,65.7c-2.9,0-5.3-2.1-5.5-5c-0.1-1.9,0,1.2,0-0.7c0.9,0,47.2,0,48.1,0c0,1.9,0.1-1.2,0,0.7
	c-0.2,2.9-2.6,5-5.5,5H19.9z"/>
</svg>
