<?xml version="1.0" encoding="utf-8"?>
<!-- Generator: Adobe Illustrator 19.2.0, SVG Export Plug-In . SVG Version: 6.00 Build 0)  -->
<svg version="1.1" id="Layer_1" xmlns="http://www.w3.org/2000/svg" xmlns:xlink="http://www.w3.org/1999/xlink" x="0px" y="0px"
	 viewBox="0 0 682 682" style="enable-background:new 0 0 682 682;" xml:space="preserve">
<style type="text/css">
	.st0{fill:#FFFFFF;}
</style>
<path class="st0" d="M544.2,92.9C484.3,33,404.8,0,320,0C145.4,0,3.3,142.1,3.2,316.8c0,55.8,14.6,110.3,42.3,158.4L0.6,639.4
	l168-44.1c46.3,25.2,98.4,38.5,151.4,38.6h0.1c174.6,0,316.8-142.1,316.8-316.8C636.9,232.4,604,152.8,544.2,92.9z M320,580.4h-0.1
	c-47.3,0-93.6-12.7-134-36.7l-9.6-5.7l-99.7,26.1l26.6-97.2l-6.3-10C70.6,415,56.7,366.6,56.7,316.8
	C56.8,171.6,174.9,53.5,320.2,53.5c70.3,0,136.5,27.4,186.2,77.2s77.1,115.9,77.1,186.3C583.3,462.2,465.2,580.4,320,580.4z
	 M464.5,383.1c-7.9-4-46.8-23.1-54.1-25.8c-7.3-2.6-12.5-4-17.8,4c-5.3,7.9-20.4,25.8-25.1,31c-4.6,5.3-9.2,5.9-17.2,2
	c-7.9-4-33.4-12.3-63.7-39.3c-23.5-21-39.4-46.9-44-54.8c-4.6-7.9,0-11.8,3.5-16.2c8.6-10.6,17.2-21.8,19.8-27.1
	c2.6-5.3,1.3-9.9-0.7-13.9c-2-4-17.8-42.9-24.4-58.8c-6.4-15.4-13-13.3-17.8-13.6c-4.6-0.2-9.9-0.3-15.2-0.3c-5.3,0-13.9,2-21.1,9.9
	c-7.3,7.9-27.7,27.1-27.7,66s28.4,76.6,32.3,81.9c4,5.3,55.8,85.2,135.2,119.5c18.9,8.2,33.6,13,45.1,16.7c19,6,36.2,5.2,49.9,3.1
	c15.2-2.3,46.8-19.2,53.4-37.6c6.6-18.5,6.6-34.3,4.6-37.6C477.7,389.1,472.4,387.1,464.5,383.1z"/>
</svg>
